M48
INCH,LZ
;FILE_FORMAT=2:4
;TYPE=PLATED
;Layer: PTH_Through
;EasyEDA v6.4.32, 2022-03-04 17:10:02
;9e068ee103114b4da440d1e05eba0729,9b295ca1ffa148ecaf4cbe0d9ff7b9be,10
;Gerber Generator version 0.2
;Holesize 1 = 0.0120 inch
T01C0.0120
;Holesize 2 = 0.0120 inch
T02C0.0120
;Holesize 3 = 0.0320 inch
T03C0.0320
;Holesize 4 = 0.0360 inch
T04C0.0360
;Holesize 5 = 0.0390 inch
T05C0.0390
;Holesize 6 = 0.0430 inch
T06C0.0430
;Holesize 7 = 0.0470 inch
T07C0.0470
%
G05
G90
T01
X021732Y026378
X023150Y022716
X012992Y026299
X032598Y021102
X033583Y021102
X031457Y022480
X020551Y024291
X018937Y024685
X017992Y027874
X018976Y025984
X014449Y026260
X015276Y027165
X016260Y024685
X015866Y023386
X024606Y025866
X023071Y027323
X031614Y026024
X026220Y023110
X026890Y023976
X028268Y024488
X026890Y025591
X026535Y027323
X024843Y024764
X023543Y025157
X023976Y026102
X021339Y027116
X021772Y023583
X012874Y027953
T02
X022087Y026653
T03
X032571Y019803
X033071Y019803
X033571Y019803
T04
X014031Y023717
X014031Y024717
X014031Y025717
X014031Y026717
T05
X005040Y022835G85X006024Y022835
X005985Y025197G85X005079Y025197
X003680Y024469G85X003680Y023563
T06
X030810Y025611
X030022Y025611
X029235Y025611
X029235Y027383
X030022Y027383
X030810Y027383
X030810Y023012
X030022Y023012
X029235Y023012
X029235Y024784
X030022Y024784
X030810Y024784
T07
X033346Y022898
X033346Y023898
X033346Y024898
M30
