G04 Layer: BottomSilkscreenLayer*
G04 EasyEDA v6.4.32, 2022-03-04 17:10:02*
G04 9e068ee103114b4da440d1e05eba0729,9b295ca1ffa148ecaf4cbe0d9ff7b9be,10*
G04 Gerber Generator version 0.2*
G04 Scale: 100 percent, Rotated: No, Reflected: No *
G04 Dimensions in inches *
G04 leading zeros omitted , absolute positions ,3 integer and 6 decimal *
%FSLAX36Y36*%
%MOIN*%

%ADD45C,0.0118*%

%LPD*%
D45*
X2941662Y178883D02*
G01*
X2941662Y127343D01*
X2944884Y117680D01*
X2948104Y114459D01*
X2954547Y111237D01*
X2964210Y111237D01*
X2970653Y114459D01*
X2941662Y169218D02*
G01*
X2948104Y175662D01*
X2954547Y178883D01*
X2964210Y178883D01*
X2970653Y175662D01*
X2977096Y169218D01*
X2980316Y159555D01*
X2980316Y153114D01*
X2977096Y143449D01*
X2970653Y137008D01*
X2964210Y133786D01*
X2954547Y133786D01*
X2948104Y137008D01*
X2941662Y143449D01*
X2920402Y201430D02*
G01*
X2917182Y198209D01*
X2913960Y201430D01*
X2917182Y204652D01*
X2920402Y201430D01*
X2917182Y178883D02*
G01*
X2917182Y133786D01*
X2883037Y201430D02*
G01*
X2883037Y146671D01*
X2879816Y137008D01*
X2873374Y133786D01*
X2866931Y133786D01*
X2892700Y178883D02*
G01*
X2870151Y178883D01*
X2845671Y201430D02*
G01*
X2845671Y133786D01*
X2845671Y165997D02*
G01*
X2836008Y175662D01*
X2829565Y178883D01*
X2819902Y178883D01*
X2813459Y175662D01*
X2810237Y165997D01*
X2810237Y133786D01*
X2788977Y178883D02*
G01*
X2788977Y146671D01*
X2785757Y137008D01*
X2779314Y133786D01*
X2769651Y133786D01*
X2763208Y137008D01*
X2753545Y146671D01*
X2753545Y178883D02*
G01*
X2753545Y133786D01*
X2732286Y201430D02*
G01*
X2732286Y133786D01*
X2732286Y169218D02*
G01*
X2725843Y175662D01*
X2719400Y178883D01*
X2709736Y178883D01*
X2703294Y175662D01*
X2696851Y169218D01*
X2693630Y159555D01*
X2693630Y153114D01*
X2696851Y143449D01*
X2703294Y137008D01*
X2709736Y133786D01*
X2719400Y133786D01*
X2725843Y137008D01*
X2732286Y143449D01*
X2669149Y149891D02*
G01*
X2672371Y146671D01*
X2669149Y143449D01*
X2665928Y146671D01*
X2669149Y149891D01*
X2606014Y169218D02*
G01*
X2612457Y175662D01*
X2618900Y178883D01*
X2628563Y178883D01*
X2635006Y175662D01*
X2641448Y169218D01*
X2644669Y159555D01*
X2644669Y153114D01*
X2641448Y143449D01*
X2635006Y137008D01*
X2628563Y133786D01*
X2618900Y133786D01*
X2612457Y137008D01*
X2606014Y143449D01*
X2568648Y178883D02*
G01*
X2575092Y175662D01*
X2581534Y169218D01*
X2584754Y159555D01*
X2584754Y153114D01*
X2581534Y143449D01*
X2575092Y137008D01*
X2568648Y133786D01*
X2558986Y133786D01*
X2552542Y137008D01*
X2546100Y143449D01*
X2542879Y153114D01*
X2542879Y159555D01*
X2546100Y169218D01*
X2552542Y175662D01*
X2558986Y178883D01*
X2568648Y178883D01*
X2521620Y178883D02*
G01*
X2521620Y133786D01*
X2521620Y165997D02*
G01*
X2511956Y175662D01*
X2505514Y178883D01*
X2495850Y178883D01*
X2489408Y175662D01*
X2486187Y165997D01*
X2486187Y133786D01*
X2486187Y165997D02*
G01*
X2476522Y175662D01*
X2470081Y178883D01*
X2460416Y178883D01*
X2453975Y175662D01*
X2450753Y165997D01*
X2450753Y133786D01*
X2371512Y214315D02*
G01*
X2429494Y111237D01*
X2324483Y201430D02*
G01*
X2350253Y133786D01*
X2324483Y201430D02*
G01*
X2298714Y133786D01*
X2340589Y156334D02*
G01*
X2308377Y156334D01*
X2251683Y201430D02*
G01*
X2258127Y201430D01*
X2264569Y198209D01*
X2267790Y188546D01*
X2267790Y133786D01*
X2277453Y178883D02*
G01*
X2254904Y178883D01*
X2220761Y201430D02*
G01*
X2220761Y146671D01*
X2217539Y137008D01*
X2211096Y133786D01*
X2204655Y133786D01*
X2230424Y178883D02*
G01*
X2207875Y178883D01*
X2183395Y159555D02*
G01*
X2144741Y159555D01*
X2144741Y165997D01*
X2147961Y172440D01*
X2151183Y175662D01*
X2157626Y178883D01*
X2167289Y178883D01*
X2173730Y175662D01*
X2180173Y169218D01*
X2183395Y159555D01*
X2183395Y153114D01*
X2180173Y143449D01*
X2173730Y137008D01*
X2167289Y133786D01*
X2157626Y133786D01*
X2151183Y137008D01*
X2144741Y143449D01*
X2123481Y178883D02*
G01*
X2123481Y133786D01*
X2123481Y159555D02*
G01*
X2120259Y169218D01*
X2113816Y175662D01*
X2107375Y178883D01*
X2097710Y178883D01*
X2076451Y201430D02*
G01*
X2076451Y133786D01*
X2076451Y201430D02*
G01*
X2034575Y201430D01*
X2076451Y169218D02*
G01*
X2050681Y169218D01*
X2076451Y133786D02*
G01*
X2034575Y133786D01*
X1974661Y178883D02*
G01*
X1974661Y133786D01*
X1974661Y169218D02*
G01*
X1981103Y175662D01*
X1987547Y178883D01*
X1997209Y178883D01*
X2003653Y175662D01*
X2010095Y169218D01*
X2013316Y159555D01*
X2013316Y153114D01*
X2010095Y143449D01*
X2003653Y137008D01*
X1997209Y133786D01*
X1987547Y133786D01*
X1981103Y137008D01*
X1974661Y143449D01*
X1953401Y178883D02*
G01*
X1953401Y133786D01*
X1953401Y159555D02*
G01*
X1950181Y169218D01*
X1943738Y175662D01*
X1937295Y178883D01*
X1927632Y178883D01*
X1896709Y201430D02*
G01*
X1896709Y146671D01*
X1893487Y137008D01*
X1887046Y133786D01*
X1880603Y133786D01*
X1906373Y178883D02*
G01*
X1883824Y178883D01*
X1859342Y201430D02*
G01*
X1859342Y133786D01*
X1859342Y165997D02*
G01*
X1849679Y175662D01*
X1843238Y178883D01*
X1833573Y178883D01*
X1827132Y175662D01*
X1823909Y165997D01*
X1823909Y133786D01*
X1802650Y201430D02*
G01*
X1802650Y133786D01*
X1802650Y133786D02*
G01*
X1763995Y133786D01*
X1720187Y201430D02*
G01*
X1720187Y133786D01*
X1742736Y201430D02*
G01*
X1697640Y201430D01*
X1676379Y201430D02*
G01*
X1676379Y133786D01*
X1676379Y201430D02*
G01*
X1653832Y201430D01*
X1644167Y198209D01*
X1637726Y191768D01*
X1634504Y185324D01*
X1631283Y175662D01*
X1631283Y159555D01*
X1634504Y149891D01*
X1637726Y143449D01*
X1644167Y137008D01*
X1653832Y133786D01*
X1676379Y133786D01*
X1552042Y214315D02*
G01*
X1610024Y111237D01*
X1485685Y191768D02*
G01*
X1492128Y198209D01*
X1501791Y201430D01*
X1514675Y201430D01*
X1524340Y198209D01*
X1530781Y191768D01*
X1530781Y185324D01*
X1527560Y178883D01*
X1524340Y175662D01*
X1517897Y172440D01*
X1498569Y165997D01*
X1492128Y162777D01*
X1488906Y159555D01*
X1485685Y153114D01*
X1485685Y143449D01*
X1492128Y137008D01*
X1501791Y133786D01*
X1514675Y133786D01*
X1524340Y137008D01*
X1530781Y143449D01*
X1448320Y178883D02*
G01*
X1454762Y175662D01*
X1461205Y169218D01*
X1464426Y159555D01*
X1464426Y153114D01*
X1461205Y143449D01*
X1454762Y137008D01*
X1448320Y133786D01*
X1438656Y133786D01*
X1432214Y137008D01*
X1425771Y143449D01*
X1422550Y153114D01*
X1422550Y159555D01*
X1425771Y169218D01*
X1432214Y175662D01*
X1438656Y178883D01*
X1448320Y178883D01*
X1401291Y201430D02*
G01*
X1401291Y133786D01*
X1341376Y201430D02*
G01*
X1341376Y133786D01*
X1341376Y169218D02*
G01*
X1347818Y175662D01*
X1354260Y178883D01*
X1363924Y178883D01*
X1370366Y175662D01*
X1376809Y169218D01*
X1380030Y159555D01*
X1380030Y153114D01*
X1376809Y143449D01*
X1370366Y137008D01*
X1363924Y133786D01*
X1354260Y133786D01*
X1347818Y137008D01*
X1341376Y143449D01*
X1320117Y159555D02*
G01*
X1281462Y159555D01*
X1281462Y165997D01*
X1284683Y172440D01*
X1287905Y175662D01*
X1294346Y178883D01*
X1304011Y178883D01*
X1310452Y175662D01*
X1316895Y169218D01*
X1320117Y159555D01*
X1320117Y153114D01*
X1316895Y143449D01*
X1310452Y137008D01*
X1304011Y133786D01*
X1294346Y133786D01*
X1287905Y137008D01*
X1281462Y143449D01*
X1260201Y178883D02*
G01*
X1260201Y133786D01*
X1260201Y159555D02*
G01*
X1256980Y169218D01*
X1250538Y175662D01*
X1244097Y178883D01*
X1234432Y178883D01*
X1213172Y162777D02*
G01*
X1155191Y162777D01*
X1133932Y201430D02*
G01*
X1133932Y133786D01*
X1133932Y201430D02*
G01*
X1104940Y201430D01*
X1095277Y198209D01*
X1092056Y194989D01*
X1088834Y188546D01*
X1088834Y182103D01*
X1092056Y175662D01*
X1095277Y172440D01*
X1104940Y169218D01*
X1133932Y169218D01*
X1111383Y169218D02*
G01*
X1088834Y133786D01*
X1067574Y159555D02*
G01*
X1028921Y159555D01*
X1028921Y165997D01*
X1032142Y172440D01*
X1035363Y175662D01*
X1041805Y178883D01*
X1051468Y178883D01*
X1057911Y175662D01*
X1064354Y169218D01*
X1067574Y159555D01*
X1067574Y153114D01*
X1064354Y143449D01*
X1057911Y137008D01*
X1051468Y133786D01*
X1041805Y133786D01*
X1035363Y137008D01*
X1028921Y143449D01*
X981891Y201430D02*
G01*
X988334Y201430D01*
X994777Y198209D01*
X997997Y188546D01*
X997997Y133786D01*
X1007660Y178883D02*
G01*
X985113Y178883D01*
X960631Y201430D02*
G01*
X960631Y133786D01*
X923266Y178883D02*
G01*
X929709Y175662D01*
X936150Y169218D01*
X939372Y159555D01*
X939372Y153114D01*
X936150Y143449D01*
X929709Y137008D01*
X923266Y133786D01*
X913603Y133786D01*
X907160Y137008D01*
X900717Y143449D01*
X897497Y153114D01*
X897497Y159555D01*
X900717Y169218D01*
X907160Y175662D01*
X913603Y178883D01*
X923266Y178883D01*
X876237Y178883D02*
G01*
X863352Y133786D01*
X850466Y178883D02*
G01*
X863352Y133786D01*
X850466Y178883D02*
G01*
X837583Y133786D01*
X824697Y178883D02*
G01*
X837583Y133786D01*
X803437Y162777D02*
G01*
X745457Y162777D01*
X724196Y201430D02*
G01*
X724196Y133786D01*
X724196Y201430D02*
G01*
X695205Y201430D01*
X685542Y198209D01*
X682321Y194989D01*
X679099Y188546D01*
X679099Y178883D01*
X682321Y172440D01*
X685542Y169218D01*
X695205Y165997D01*
X724196Y165997D01*
X657840Y201430D02*
G01*
X657840Y133786D01*
X597926Y178883D02*
G01*
X597926Y133786D01*
X597926Y169218D02*
G01*
X604369Y175662D01*
X610810Y178883D01*
X620473Y178883D01*
X626916Y175662D01*
X633359Y169218D01*
X636579Y159555D01*
X636579Y153114D01*
X633359Y143449D01*
X626916Y137008D01*
X620473Y133786D01*
X610810Y133786D01*
X604369Y137008D01*
X597926Y143449D01*
X567002Y201430D02*
G01*
X567002Y146671D01*
X563782Y137008D01*
X557339Y133786D01*
X550896Y133786D01*
X576666Y178883D02*
G01*
X554117Y178883D01*
X529636Y159555D02*
G01*
X490983Y159555D01*
X490983Y165997D01*
X494203Y172440D01*
X497424Y175662D01*
X503867Y178883D01*
X513530Y178883D01*
X519972Y175662D01*
X526415Y169218D01*
X529636Y159555D01*
X529636Y153114D01*
X526415Y143449D01*
X519972Y137008D01*
X513530Y133786D01*
X503867Y133786D01*
X497424Y137008D01*
X490983Y143449D01*
M02*
