G04 Layer: TopPasteMaskLayer*
G04 EasyEDA v6.4.32, 2022-03-04 17:10:02*
G04 9e068ee103114b4da440d1e05eba0729,9b295ca1ffa148ecaf4cbe0d9ff7b9be,10*
G04 Gerber Generator version 0.2*
G04 Scale: 100 percent, Rotated: No, Reflected: No *
G04 Dimensions in inches *
G04 leading zeros omitted , absolute positions ,3 integer and 6 decimal *
%FSLAX36Y36*%
%MOIN*%

%ADD14C,0.0110*%
%ADD19R,0.0374X0.0453*%
%ADD21R,0.0551X0.0472*%
%ADD22R,0.0265X0.0620*%
%ADD24R,0.0315X0.0354*%
%ADD25R,0.0354X0.0315*%
%ADD27R,0.0630X0.1181*%
%ADD28R,0.2283X0.2441*%
%ADD30R,0.0472X0.1378*%
%ADD31R,0.0236X0.0118*%

%LPD*%
G36*
X2179920Y2735240D02*
G01*
X2177940Y2733260D01*
X2177940Y2715539D01*
X2179920Y2713580D01*
X2198820Y2713580D01*
X2201560Y2715539D01*
X2201560Y2733260D01*
X2198820Y2735240D01*
G37*
G36*
X2218500Y2735240D02*
G01*
X2215740Y2733260D01*
X2215740Y2715539D01*
X2218500Y2713580D01*
X2237400Y2713580D01*
X2239360Y2715539D01*
X2239360Y2733260D01*
X2237400Y2735240D01*
G37*
G36*
X3153540Y2529320D02*
G01*
X3151560Y2527360D01*
X3151560Y2495860D01*
X3153540Y2493900D01*
X3162520Y2493900D01*
X3162520Y2508460D01*
X3175500Y2508460D01*
X3175500Y2493900D01*
X3185040Y2493900D01*
X3187000Y2495860D01*
X3187000Y2527360D01*
X3185040Y2529320D01*
G37*
G36*
X3153540Y2466340D02*
G01*
X3151560Y2464360D01*
X3151560Y2433260D01*
X3153540Y2431300D01*
X3185040Y2431300D01*
X3187000Y2433260D01*
X3187000Y2464360D01*
X3185040Y2466340D01*
X3175500Y2466340D01*
X3175500Y2451380D01*
X3162520Y2451380D01*
X3162520Y2466340D01*
G37*
G36*
X2236020Y2309060D02*
G01*
X2234060Y2307080D01*
X2234060Y2298100D01*
X2248620Y2298100D01*
X2248620Y2285120D01*
X2234060Y2285120D01*
X2234060Y2275580D01*
X2236020Y2273620D01*
X2267520Y2273620D01*
X2269480Y2275580D01*
X2269480Y2307080D01*
X2267520Y2309060D01*
G37*
G36*
X2173420Y2309060D02*
G01*
X2171460Y2307080D01*
X2171460Y2275580D01*
X2173420Y2273620D01*
X2204520Y2273620D01*
X2206500Y2275580D01*
X2206500Y2285120D01*
X2191540Y2285120D01*
X2191540Y2298100D01*
X2206500Y2298100D01*
X2206500Y2307080D01*
X2204520Y2309060D01*
G37*
G36*
X2740160Y2379720D02*
G01*
X2738180Y2377740D01*
X2738180Y2346260D01*
X2740160Y2344280D01*
X2749120Y2344280D01*
X2749120Y2358860D01*
X2762120Y2358860D01*
X2762120Y2344280D01*
X2771640Y2344280D01*
X2773620Y2346260D01*
X2773620Y2377740D01*
X2771640Y2379720D01*
G37*
G36*
X2740160Y2316720D02*
G01*
X2738180Y2314760D01*
X2738180Y2283660D01*
X2740160Y2281680D01*
X2771640Y2281680D01*
X2773620Y2283660D01*
X2773620Y2314760D01*
X2771640Y2316720D01*
X2762120Y2316720D01*
X2762120Y2301760D01*
X2749120Y2301760D01*
X2749120Y2316720D01*
G37*
G36*
X2795280Y2659240D02*
G01*
X2793300Y2657280D01*
X2793300Y2625779D01*
X2795280Y2623820D01*
X2804240Y2623820D01*
X2804240Y2638380D01*
X2817240Y2638380D01*
X2817240Y2623820D01*
X2826760Y2623820D01*
X2828740Y2625779D01*
X2828740Y2657280D01*
X2826760Y2659240D01*
G37*
G36*
X2795280Y2596259D02*
G01*
X2793300Y2594280D01*
X2793300Y2563180D01*
X2795280Y2561220D01*
X2826760Y2561220D01*
X2828740Y2563180D01*
X2828740Y2594280D01*
X2826760Y2596259D01*
X2817240Y2596259D01*
X2817240Y2581300D01*
X2804240Y2581300D01*
X2804240Y2596259D01*
G37*
G36*
X816940Y2314180D02*
G01*
X800780Y2313980D01*
X798820Y2312000D01*
X798820Y2266740D01*
X800780Y2264760D01*
X851180Y2264760D01*
X853139Y2266740D01*
X853139Y2312000D01*
X851180Y2313980D01*
X834640Y2313780D01*
X834640Y2296460D01*
X816940Y2296460D01*
G37*
G36*
X800780Y2398620D02*
G01*
X798820Y2396660D01*
X798820Y2351380D01*
X800780Y2349400D01*
X816940Y2349600D01*
X816940Y2366940D01*
X834640Y2366940D01*
X834640Y2349420D01*
X851180Y2349400D01*
X853139Y2351380D01*
X853139Y2396660D01*
X851180Y2398620D01*
G37*
G36*
X1793480Y2572940D02*
G01*
X1791519Y2570960D01*
X1791720Y2554440D01*
X1809040Y2554440D01*
X1809040Y2536720D01*
X1791320Y2536720D01*
X1791519Y2520580D01*
X1793480Y2518600D01*
X1838760Y2518600D01*
X1840720Y2520580D01*
X1840720Y2570960D01*
X1838760Y2572940D01*
G37*
G36*
X1708839Y2572940D02*
G01*
X1706860Y2570960D01*
X1706860Y2520580D01*
X1708839Y2518600D01*
X1754120Y2518600D01*
X1756080Y2520580D01*
X1755880Y2536720D01*
X1738560Y2536720D01*
X1738560Y2554440D01*
X1756080Y2554440D01*
X1756080Y2570960D01*
X1754120Y2572940D01*
G37*
G36*
X1910980Y2418900D02*
G01*
X1909019Y2416940D01*
X1909019Y2371660D01*
X1910980Y2369680D01*
X1927520Y2369880D01*
X1927520Y2387200D01*
X1945240Y2387200D01*
X1945240Y2369500D01*
X1961380Y2369680D01*
X1963340Y2371660D01*
X1963340Y2416940D01*
X1961380Y2418900D01*
G37*
G36*
X1910980Y2334260D02*
G01*
X1909019Y2332280D01*
X1909019Y2287020D01*
X1910980Y2285040D01*
X1961380Y2285040D01*
X1963340Y2287020D01*
X1963340Y2332280D01*
X1961380Y2334260D01*
X1945240Y2334060D01*
X1945240Y2316740D01*
X1927520Y2316740D01*
X1927520Y2334260D01*
G37*
G36*
X2579600Y2346880D02*
G01*
X2566220Y2333500D01*
X2565680Y2330160D01*
X2578200Y2317640D01*
X2581540Y2318200D01*
X2594900Y2331560D01*
X2594900Y2334340D01*
X2582380Y2346880D01*
G37*
G36*
X2555640Y2320140D02*
G01*
X2552300Y2319580D01*
X2538940Y2306220D01*
X2538940Y2303440D01*
X2551480Y2290920D01*
X2554260Y2290920D01*
X2567620Y2304280D01*
X2568180Y2307620D01*
G37*
G36*
X2684060Y2353540D02*
G01*
X2682080Y2351580D01*
X2682080Y2332680D01*
X2684060Y2329920D01*
X2701780Y2329920D01*
X2703740Y2332680D01*
X2703740Y2351580D01*
X2701780Y2353540D01*
G37*
G36*
X2684060Y2315740D02*
G01*
X2682080Y2313000D01*
X2682080Y2294100D01*
X2684060Y2292120D01*
X2701780Y2292120D01*
X2703740Y2294100D01*
X2703740Y2313000D01*
X2701780Y2315740D01*
G37*
G36*
X2739200Y2633080D02*
G01*
X2737240Y2631100D01*
X2737240Y2612200D01*
X2739200Y2609460D01*
X2756920Y2609460D01*
X2758900Y2612200D01*
X2758900Y2631100D01*
X2756920Y2633080D01*
G37*
G36*
X2739200Y2595280D02*
G01*
X2737240Y2592520D01*
X2737240Y2573620D01*
X2739200Y2571660D01*
X2756920Y2571660D01*
X2758900Y2573620D01*
X2758900Y2592520D01*
X2756920Y2595280D01*
G37*
G36*
X2606600Y2693320D02*
G01*
X2594060Y2680800D01*
X2594060Y2678020D01*
X2607420Y2664660D01*
X2610760Y2664100D01*
X2623300Y2676620D01*
X2622740Y2679960D01*
X2609380Y2693320D01*
G37*
G36*
X2633320Y2666600D02*
G01*
X2620779Y2654080D01*
X2621340Y2650740D01*
X2634700Y2637380D01*
X2637500Y2637380D01*
X2650020Y2649900D01*
X2650020Y2652679D01*
X2636660Y2666040D01*
G37*
G36*
X1883839Y2725880D02*
G01*
X1867700Y2725680D01*
X1865720Y2723720D01*
X1865720Y2678440D01*
X1867700Y2676480D01*
X1918100Y2676480D01*
X1920060Y2678440D01*
X1920060Y2723720D01*
X1918100Y2725680D01*
X1901560Y2725500D01*
X1901560Y2708180D01*
X1883839Y2708180D01*
G37*
G36*
X1867700Y2810340D02*
G01*
X1865720Y2808360D01*
X1865720Y2763100D01*
X1867700Y2761120D01*
X1883839Y2761320D01*
X1883839Y2778639D01*
X1901560Y2778639D01*
X1901560Y2761120D01*
X1918100Y2761120D01*
X1920060Y2763100D01*
X1920060Y2808360D01*
X1918100Y2810340D01*
G37*
G36*
X1978320Y2725880D02*
G01*
X1962180Y2725680D01*
X1960220Y2723720D01*
X1960220Y2678440D01*
X1962180Y2676480D01*
X2012580Y2676480D01*
X2014540Y2678440D01*
X2014540Y2723720D01*
X2012580Y2725680D01*
X1996040Y2725500D01*
X1996040Y2708180D01*
X1978320Y2708180D01*
G37*
G36*
X1962180Y2810340D02*
G01*
X1960220Y2808360D01*
X1960220Y2763100D01*
X1962180Y2761120D01*
X1978320Y2761320D01*
X1978320Y2778639D01*
X1996040Y2778639D01*
X1996040Y2761120D01*
X2012580Y2761120D01*
X2014540Y2763100D01*
X2014540Y2808360D01*
X2012580Y2810340D01*
G37*
D14*
X2260977Y2508577D02*
G01*
X2218662Y2466262D01*
X2274907Y2494657D02*
G01*
X2232592Y2452343D01*
X2288816Y2480736D02*
G01*
X2246503Y2438422D01*
X2302746Y2466817D02*
G01*
X2260433Y2424502D01*
X2316656Y2452907D02*
G01*
X2274342Y2410592D01*
X2330586Y2438977D02*
G01*
X2288272Y2396662D01*
X2344497Y2425066D02*
G01*
X2302183Y2382752D01*
X2358416Y2411136D02*
G01*
X2316103Y2368823D01*
X2372336Y2397226D02*
G01*
X2330023Y2354913D01*
X2386256Y2383307D02*
G01*
X2343942Y2340992D01*
X2400177Y2369387D02*
G01*
X2357862Y2327073D01*
X2414097Y2355466D02*
G01*
X2371782Y2313153D01*
X2444162Y2355466D02*
G01*
X2486477Y2313153D01*
X2458082Y2369387D02*
G01*
X2500397Y2327073D01*
X2472003Y2383307D02*
G01*
X2514317Y2340992D01*
X2485923Y2397226D02*
G01*
X2528236Y2354913D01*
X2499843Y2411136D02*
G01*
X2542156Y2368823D01*
X2513762Y2425066D02*
G01*
X2556076Y2382752D01*
X2527682Y2438977D02*
G01*
X2569997Y2396662D01*
X2541602Y2452907D02*
G01*
X2583917Y2410592D01*
X2555523Y2466817D02*
G01*
X2597836Y2424502D01*
X2569443Y2480736D02*
G01*
X2611756Y2438422D01*
X2583362Y2494657D02*
G01*
X2625676Y2452343D01*
X2597282Y2508577D02*
G01*
X2639597Y2466262D01*
X2639597Y2580956D02*
G01*
X2597282Y2538643D01*
X2625676Y2594886D02*
G01*
X2583362Y2552573D01*
X2611756Y2608796D02*
G01*
X2569443Y2566482D01*
X2597836Y2622716D02*
G01*
X2555523Y2580403D01*
X2583917Y2636637D02*
G01*
X2541602Y2594322D01*
X2569997Y2650556D02*
G01*
X2527682Y2608243D01*
X2556076Y2664477D02*
G01*
X2513762Y2622163D01*
X2542156Y2678397D02*
G01*
X2499843Y2636082D01*
X2528236Y2692316D02*
G01*
X2485923Y2650003D01*
X2514317Y2706237D02*
G01*
X2472003Y2663923D01*
X2500397Y2720156D02*
G01*
X2458082Y2677842D01*
X2486477Y2734077D02*
G01*
X2444162Y2691763D01*
X2371782Y2734077D02*
G01*
X2414097Y2691763D01*
X2357862Y2720156D02*
G01*
X2400177Y2677842D01*
X2343942Y2706237D02*
G01*
X2386256Y2663923D01*
X2330023Y2692316D02*
G01*
X2372336Y2650003D01*
X2316103Y2678397D02*
G01*
X2358416Y2636082D01*
X2302183Y2664477D02*
G01*
X2344497Y2622163D01*
X2288272Y2650556D02*
G01*
X2330586Y2608243D01*
X2274342Y2636637D02*
G01*
X2316656Y2594322D01*
X2260433Y2622716D02*
G01*
X2302746Y2580403D01*
X2246503Y2608796D02*
G01*
X2288816Y2566482D01*
X2232592Y2594886D02*
G01*
X2274907Y2552573D01*
X2218662Y2580956D02*
G01*
X2260977Y2538643D01*
D19*
G01*
X1602659Y2755909D03*
G01*
X1735919Y2755909D03*
D21*
G01*
X929129Y2413389D03*
G01*
X929129Y2279529D03*
G36*
X1737034Y2307058D02*
G01*
X1737034Y2380059D01*
X1737075Y2381812D01*
X1737199Y2383560D01*
X1737403Y2385302D01*
X1737690Y2387033D01*
X1738058Y2388747D01*
X1738504Y2390443D01*
X1739031Y2392116D01*
X1739634Y2393762D01*
X1740316Y2395378D01*
X1741071Y2396960D01*
X1741899Y2398505D01*
X1742800Y2400010D01*
X1743770Y2401471D01*
X1744808Y2402885D01*
X1745910Y2404249D01*
X1747075Y2405559D01*
X1748301Y2406813D01*
X1749584Y2408009D01*
X1750920Y2409144D01*
X1752309Y2410214D01*
X1753747Y2411217D01*
X1755231Y2412152D01*
X1756756Y2413017D01*
X1758320Y2413811D01*
X1761442Y2414529D01*
X1761442Y2481352D01*
X1787426Y2481352D01*
X1787426Y2414529D01*
X1790550Y2413811D01*
X1792115Y2413017D01*
X1793640Y2412152D01*
X1795123Y2411217D01*
X1796562Y2410214D01*
X1797951Y2409144D01*
X1799287Y2408009D01*
X1800571Y2406813D01*
X1801796Y2405559D01*
X1802961Y2404249D01*
X1804063Y2402885D01*
X1805101Y2401471D01*
X1806071Y2400010D01*
X1806971Y2398505D01*
X1807800Y2396960D01*
X1808555Y2395378D01*
X1809237Y2393762D01*
X1809840Y2392116D01*
X1810366Y2390443D01*
X1810814Y2388747D01*
X1811181Y2387033D01*
X1811468Y2385302D01*
X1811673Y2383560D01*
X1811796Y2381812D01*
X1811837Y2380059D01*
X1811837Y2307058D01*
X1811796Y2305306D01*
X1811673Y2303557D01*
X1811468Y2301815D01*
X1811181Y2300084D01*
X1810814Y2298370D01*
X1810366Y2296675D01*
X1809840Y2295002D01*
X1809237Y2293355D01*
X1808555Y2291740D01*
X1807800Y2290156D01*
X1806971Y2288611D01*
X1806071Y2287107D01*
X1805101Y2285646D01*
X1804063Y2284232D01*
X1802961Y2282869D01*
X1801796Y2281558D01*
X1800571Y2280304D01*
X1799287Y2279108D01*
X1797951Y2277973D01*
X1796562Y2276903D01*
X1795123Y2275900D01*
X1793640Y2274965D01*
X1792115Y2274099D01*
X1790550Y2273307D01*
X1788950Y2272588D01*
X1787319Y2271945D01*
X1785659Y2271381D01*
X1783975Y2270893D01*
X1782268Y2270486D01*
X1780546Y2270160D01*
X1778810Y2269914D01*
X1777064Y2269749D01*
X1775312Y2269668D01*
X1773558Y2269668D01*
X1771808Y2269749D01*
X1770061Y2269914D01*
X1768325Y2270160D01*
X1766602Y2270486D01*
X1764897Y2270893D01*
X1763212Y2271381D01*
X1761552Y2271945D01*
X1759921Y2272588D01*
X1758320Y2273307D01*
X1756756Y2274099D01*
X1755231Y2274965D01*
X1753747Y2275900D01*
X1752309Y2276903D01*
X1750920Y2277973D01*
X1749584Y2279108D01*
X1748301Y2280304D01*
X1747075Y2281558D01*
X1745910Y2282869D01*
X1744808Y2284232D01*
X1743770Y2285646D01*
X1742800Y2287107D01*
X1741899Y2288611D01*
X1741071Y2290156D01*
X1740316Y2291740D01*
X1739634Y2293355D01*
X1739031Y2295002D01*
X1738504Y2296675D01*
X1738058Y2298370D01*
X1737690Y2300084D01*
X1737403Y2301815D01*
X1737199Y2303557D01*
X1737075Y2305306D01*
G37*
D22*
G01*
X1715720Y2450349D03*
G01*
X1833829Y2450349D03*
G36*
X1786593Y2650888D02*
G01*
X1818090Y2650888D01*
X1818090Y2615453D01*
X1786593Y2615453D01*
G37*
G36*
X1731476Y2650888D02*
G01*
X1762971Y2650888D01*
X1762971Y2615453D01*
X1731476Y2615453D01*
G37*
D25*
G01*
X2022010Y2364760D03*
G01*
X2022010Y2309650D03*
D24*
G01*
X3302439Y2170000D03*
G01*
X3357560Y2170000D03*
D25*
G01*
X2073999Y2778840D03*
G01*
X2073999Y2723719D03*
D27*
G01*
X1231890Y2678110D03*
G01*
X1051570Y2678110D03*
D28*
G01*
X1141729Y2408499D03*
D25*
G01*
X905510Y2539369D03*
G01*
X905510Y2594490D03*
D30*
G01*
X165360Y2257089D03*
G01*
X165360Y2467319D03*
D31*
G01*
X818900Y2506900D03*
G01*
X818900Y2532489D03*
M02*
