G04 Layer: TopSilkscreenLayer*
G04 EasyEDA v6.4.32, 2022-03-04 17:10:02*
G04 9e068ee103114b4da440d1e05eba0729,9b295ca1ffa148ecaf4cbe0d9ff7b9be,10*
G04 Gerber Generator version 0.2*
G04 Scale: 100 percent, Rotated: No, Reflected: No *
G04 Dimensions in inches *
G04 leading zeros omitted , absolute positions ,3 integer and 6 decimal *
%FSLAX36Y36*%
%MOIN*%

%ADD10C,0.0100*%
%ADD11C,0.0157*%
%ADD12C,0.0394*%
%ADD39C,0.0236*%
%ADD40C,0.0060*%
%ADD41C,0.0080*%
%ADD42C,0.0080*%
%ADD43C,0.0039*%
%ADD44C,0.0032*%
%ADD45C,0.0118*%
%ADD46C,0.0094*%
%ADD47C,0.0079*%
%ADD48C,0.0059*%

%LPD*%
G36*
X3379140Y507879D02*
G01*
X3377200Y507800D01*
X3375260Y507540D01*
X3373360Y507120D01*
X3371500Y506520D01*
X3369680Y505740D01*
X3367940Y504799D01*
X3366280Y503700D01*
X3364740Y502420D01*
X3363279Y500980D01*
X3361960Y499360D01*
X3360779Y497560D01*
X3359740Y495600D01*
X3358960Y493660D01*
X3358440Y491719D01*
X3358180Y489560D01*
X3358106Y486740D01*
X3363620Y486740D01*
X3363740Y488920D01*
X3364120Y490980D01*
X3364740Y492900D01*
X3365580Y494680D01*
X3366640Y496300D01*
X3367880Y497740D01*
X3369320Y499000D01*
X3370940Y500060D01*
X3372720Y500920D01*
X3374640Y501540D01*
X3376700Y501940D01*
X3378880Y502080D01*
X3381120Y501960D01*
X3383240Y501599D01*
X3385220Y500980D01*
X3387040Y500160D01*
X3388700Y499120D01*
X3390200Y497879D01*
X3391500Y496460D01*
X3392580Y494880D01*
X3393460Y493120D01*
X3394100Y491220D01*
X3394500Y489200D01*
X3394640Y487040D01*
X3394520Y484880D01*
X3394160Y482819D01*
X3393540Y480900D01*
X3392700Y479120D01*
X3391640Y477500D01*
X3390380Y476040D01*
X3388940Y474780D01*
X3387320Y473720D01*
X3385560Y472860D01*
X3383620Y472239D01*
X3381580Y471840D01*
X3379400Y471719D01*
X3377700Y471780D01*
X3375940Y472000D01*
X3374340Y472320D01*
X3373100Y472700D01*
X3370980Y473760D01*
X3369100Y475060D01*
X3367480Y476560D01*
X3366120Y478260D01*
X3365059Y480140D01*
X3364280Y482200D01*
X3363800Y484400D01*
X3363620Y486740D01*
X3358106Y486740D01*
X3358200Y484560D01*
X3358480Y482380D01*
X3358960Y480340D01*
X3359640Y478420D01*
X3360539Y476580D01*
X3361680Y474840D01*
X3363039Y473140D01*
X3364640Y471460D01*
X3367820Y468400D01*
X3333860Y406280D01*
X3322940Y386540D01*
X3322679Y386719D01*
X3321200Y388459D01*
X3314940Y396640D01*
X3305560Y409340D01*
X3287220Y434460D01*
X3282740Y440340D01*
X3282020Y440660D01*
X3281640Y440660D01*
X3281220Y440540D01*
X3280220Y439760D01*
X3278860Y438080D01*
X3277020Y435280D01*
X3271259Y425400D01*
X3261820Y408300D01*
X3231640Y353020D01*
X3223039Y353040D01*
X3220760Y352780D01*
X3218740Y352260D01*
X3216560Y351360D01*
X3213540Y349660D01*
X3210720Y347500D01*
X3208360Y345080D01*
X3206720Y342660D01*
X3206080Y341180D01*
X3205560Y339440D01*
X3205160Y337520D01*
X3204880Y335480D01*
X3204728Y332180D01*
X3209720Y332180D01*
X3209860Y334320D01*
X3210240Y336340D01*
X3210860Y338240D01*
X3211720Y339980D01*
X3212780Y341580D01*
X3214040Y343020D01*
X3215480Y344280D01*
X3217100Y345319D01*
X3218880Y346180D01*
X3220800Y346800D01*
X3222840Y347200D01*
X3225000Y347320D01*
X3228200Y347100D01*
X3231060Y346360D01*
X3233700Y345060D01*
X3236220Y343160D01*
X3237840Y341440D01*
X3239080Y339440D01*
X3239980Y337260D01*
X3240520Y334920D01*
X3240720Y332520D01*
X3240580Y330100D01*
X3240120Y327700D01*
X3239340Y325420D01*
X3238260Y323300D01*
X3236860Y321400D01*
X3235160Y319780D01*
X3233180Y318500D01*
X3230160Y317460D01*
X3226640Y316960D01*
X3223180Y317060D01*
X3220280Y317780D01*
X3217799Y319000D01*
X3215659Y320379D01*
X3213840Y321920D01*
X3212360Y323640D01*
X3211200Y325520D01*
X3210380Y327560D01*
X3209880Y329780D01*
X3209720Y332180D01*
X3204728Y332180D01*
X3204860Y329219D01*
X3205140Y327299D01*
X3205620Y325360D01*
X3206340Y323500D01*
X3207260Y321719D01*
X3208340Y320060D01*
X3209620Y318500D01*
X3211040Y317040D01*
X3212600Y315740D01*
X3214280Y314560D01*
X3216060Y313540D01*
X3217940Y312680D01*
X3219900Y311980D01*
X3221900Y311480D01*
X3223960Y311140D01*
X3226019Y311020D01*
X3228120Y311120D01*
X3230200Y311420D01*
X3232860Y312140D01*
X3235340Y313160D01*
X3237620Y314480D01*
X3239680Y316040D01*
X3241480Y317840D01*
X3243039Y319900D01*
X3244300Y322140D01*
X3245240Y324600D01*
X3245840Y326780D01*
X3246240Y328920D01*
X3246440Y331040D01*
X3246460Y333100D01*
X3246280Y335120D01*
X3245920Y337080D01*
X3245360Y339000D01*
X3244640Y340840D01*
X3243700Y342620D01*
X3242600Y344320D01*
X3241320Y345940D01*
X3239860Y347480D01*
X3236740Y350460D01*
X3270520Y412200D01*
X3279480Y428420D01*
X3281420Y431800D01*
X3281660Y431659D01*
X3285460Y426980D01*
X3292840Y417200D01*
X3311160Y392120D01*
X3319700Y380700D01*
X3321240Y379200D01*
X3322640Y378540D01*
X3323980Y378740D01*
X3325360Y379720D01*
X3326960Y382320D01*
X3335920Y398220D01*
X3349800Y423519D01*
X3372919Y466000D01*
X3378440Y465959D01*
X3380840Y466019D01*
X3383100Y466300D01*
X3385240Y466740D01*
X3387260Y467400D01*
X3389160Y468260D01*
X3390960Y469320D01*
X3392660Y470580D01*
X3394280Y472060D01*
X3396440Y474700D01*
X3398340Y477879D01*
X3399660Y481019D01*
X3400380Y484960D01*
X3400600Y485360D01*
X3401139Y485620D01*
X3401360Y485920D01*
X3401560Y486900D01*
X3401360Y487879D01*
X3401139Y488160D01*
X3400600Y488420D01*
X3400380Y488840D01*
X3400040Y491200D01*
X3399700Y492560D01*
X3398540Y495600D01*
X3397500Y497560D01*
X3396320Y499360D01*
X3395000Y500980D01*
X3393540Y502420D01*
X3391980Y503700D01*
X3390320Y504799D01*
X3388600Y505740D01*
X3386780Y506520D01*
X3384920Y507120D01*
X3383020Y507540D01*
X3381080Y507800D01*
G37*
D46*
X1464614Y630446D02*
G01*
X1464614Y577847D01*
X1499614Y630446D02*
G01*
X1499614Y577847D01*
X1464614Y605347D02*
G01*
X1499614Y605347D01*
X1531214Y630446D02*
G01*
X1526214Y627946D01*
X1521214Y622946D01*
X1518714Y617847D01*
X1516214Y610347D01*
X1516214Y597847D01*
X1518714Y590347D01*
X1521214Y585347D01*
X1526214Y580347D01*
X1531214Y577847D01*
X1541214Y577847D01*
X1546214Y580347D01*
X1551214Y585347D01*
X1553714Y590347D01*
X1556314Y597847D01*
X1556314Y610347D01*
X1553714Y617847D01*
X1551214Y622946D01*
X1546214Y627946D01*
X1541214Y630446D01*
X1531214Y630446D01*
X1590313Y630446D02*
G01*
X1590313Y577847D01*
X1572813Y630446D02*
G01*
X1607914Y630446D01*
X1698113Y622946D02*
G01*
X1693014Y627946D01*
X1685514Y630446D01*
X1675514Y630446D01*
X1668014Y627946D01*
X1663014Y622946D01*
X1663014Y617847D01*
X1665514Y612847D01*
X1668014Y610347D01*
X1673014Y607847D01*
X1688014Y602847D01*
X1693014Y600347D01*
X1695514Y597847D01*
X1698113Y592847D01*
X1698113Y585347D01*
X1693014Y580347D01*
X1685514Y577847D01*
X1675514Y577847D01*
X1668014Y580347D01*
X1663014Y585347D01*
X1714614Y630446D02*
G01*
X1714614Y592847D01*
X1717114Y585347D01*
X1722114Y580347D01*
X1729614Y577847D01*
X1734614Y577847D01*
X1742114Y580347D01*
X1747214Y585347D01*
X1749714Y592847D01*
X1749714Y630446D01*
X1766214Y630446D02*
G01*
X1766214Y577847D01*
X1766214Y630446D02*
G01*
X1788714Y630446D01*
X1796314Y627946D01*
X1798814Y625446D01*
X1801314Y620446D01*
X1801314Y615347D01*
X1798814Y610347D01*
X1796314Y607847D01*
X1788714Y605347D01*
X1766214Y605347D01*
X1783714Y605347D02*
G01*
X1801314Y577847D01*
X1817813Y630446D02*
G01*
X1817813Y577847D01*
X1817813Y630446D02*
G01*
X1850414Y630446D01*
X1817813Y605347D02*
G01*
X1837914Y605347D01*
X1887013Y630446D02*
G01*
X1866913Y577847D01*
X1887013Y630446D02*
G01*
X1907013Y577847D01*
X1874413Y595347D02*
G01*
X1899513Y595347D01*
X1961113Y617847D02*
G01*
X1958613Y622946D01*
X1953613Y627946D01*
X1948613Y630446D01*
X1938613Y630446D01*
X1933613Y627946D01*
X1928513Y622946D01*
X1926013Y617847D01*
X1923513Y610347D01*
X1923513Y597847D01*
X1926013Y590347D01*
X1928513Y585347D01*
X1933613Y580347D01*
X1938613Y577847D01*
X1948613Y577847D01*
X1953613Y580347D01*
X1958613Y585347D01*
X1961113Y590347D01*
X1977713Y630446D02*
G01*
X1977713Y577847D01*
X1977713Y630446D02*
G01*
X2010213Y630446D01*
X1977713Y605347D02*
G01*
X1997713Y605347D01*
X1977713Y577847D02*
G01*
X2010213Y577847D01*
D11*
X1521135Y743144D02*
G01*
X1516835Y751745D01*
X1508235Y760345D01*
X1499634Y764645D01*
X1482434Y764645D01*
X1473834Y760345D01*
X1465235Y751745D01*
X1461035Y743144D01*
X1456734Y730244D01*
X1456734Y708845D01*
X1461035Y695945D01*
X1465235Y687345D01*
X1473834Y678744D01*
X1482434Y674445D01*
X1499634Y674445D01*
X1508235Y678744D01*
X1516835Y687345D01*
X1521135Y695945D01*
X1583834Y764645D02*
G01*
X1549435Y674445D01*
X1583834Y764645D02*
G01*
X1618135Y674445D01*
X1562335Y704544D02*
G01*
X1605334Y704544D01*
X1646535Y764645D02*
G01*
X1646535Y700244D01*
X1650834Y687345D01*
X1659435Y678744D01*
X1672335Y674445D01*
X1680934Y674445D01*
X1693734Y678744D01*
X1702335Y687345D01*
X1706634Y700244D01*
X1706634Y764645D01*
X1765034Y764645D02*
G01*
X1765034Y674445D01*
X1735034Y764645D02*
G01*
X1795135Y764645D01*
X1823434Y764645D02*
G01*
X1823434Y674445D01*
X1877635Y764645D02*
G01*
X1869035Y760345D01*
X1860434Y751745D01*
X1856135Y743144D01*
X1851835Y730244D01*
X1851835Y708845D01*
X1856135Y695945D01*
X1860434Y687345D01*
X1869035Y678744D01*
X1877635Y674445D01*
X1894735Y674445D01*
X1903334Y678744D01*
X1911935Y687345D01*
X1916234Y695945D01*
X1920534Y708845D01*
X1920534Y730244D01*
X1916234Y743144D01*
X1911935Y751745D01*
X1903334Y760345D01*
X1894735Y764645D01*
X1877635Y764645D01*
X1948935Y764645D02*
G01*
X1948935Y674445D01*
X1948935Y764645D02*
G01*
X2009035Y674445D01*
X2009035Y764645D02*
G01*
X2009035Y674445D01*
D47*
X3282899Y1409499D02*
G01*
X3343000Y1432399D01*
X3282899Y1455300D02*
G01*
X3343000Y1432399D01*
X3320100Y1474200D02*
G01*
X3320100Y1508499D01*
X3314399Y1508499D01*
X3308699Y1505700D01*
X3305799Y1502800D01*
X3302899Y1497100D01*
X3302899Y1488499D01*
X3305799Y1482699D01*
X3311499Y1476999D01*
X3320100Y1474200D01*
X3325799Y1474200D01*
X3334399Y1476999D01*
X3340200Y1482699D01*
X3343000Y1488499D01*
X3343000Y1497100D01*
X3340200Y1502800D01*
X3334399Y1508499D01*
X3302899Y1527399D02*
G01*
X3343000Y1527399D01*
X3320100Y1527399D02*
G01*
X3311499Y1530300D01*
X3305799Y1535999D01*
X3302899Y1541700D01*
X3302899Y1550300D01*
X3282899Y1619000D02*
G01*
X3282899Y1650500D01*
X3305799Y1633400D01*
X3305799Y1641900D01*
X3308699Y1647699D01*
X3311499Y1650500D01*
X3320100Y1653400D01*
X3325799Y1653400D01*
X3334399Y1650500D01*
X3340200Y1644800D01*
X3343000Y1636199D01*
X3343000Y1627600D01*
X3340200Y1619000D01*
X3337299Y1616199D01*
X3331599Y1613299D01*
X3328699Y1675199D02*
G01*
X3331599Y1672300D01*
X3334399Y1675199D01*
X3331599Y1678000D01*
X3328699Y1675199D01*
X3282899Y1714099D02*
G01*
X3285699Y1705500D01*
X3294300Y1699800D01*
X3308699Y1696900D01*
X3317200Y1696900D01*
X3331599Y1699800D01*
X3340200Y1705500D01*
X3343000Y1714099D01*
X3343000Y1719800D01*
X3340200Y1728400D01*
X3331599Y1734099D01*
X3317200Y1736999D01*
X3308699Y1736999D01*
X3294300Y1734099D01*
X3285699Y1728400D01*
X3282899Y1719800D01*
X3282899Y1714099D01*
X3286855Y622719D02*
G01*
X3346956Y594119D01*
X3286855Y582719D02*
G01*
X3286855Y622719D01*
X3286855Y658818D02*
G01*
X3289656Y650219D01*
X3298256Y644519D01*
X3312556Y641619D01*
X3321156Y641619D01*
X3335456Y644519D01*
X3344056Y650219D01*
X3346956Y658818D01*
X3346956Y664618D01*
X3344056Y673119D01*
X3335456Y678919D01*
X3321156Y681718D01*
X3312556Y681718D01*
X3298256Y678919D01*
X3289656Y673119D01*
X3286855Y664618D01*
X3286855Y658818D01*
X3306855Y700619D02*
G01*
X3346956Y700619D01*
X3318356Y700619D02*
G01*
X3309755Y709218D01*
X3306855Y714918D01*
X3306855Y723519D01*
X3309755Y729319D01*
X3318356Y732118D01*
X3346956Y732118D01*
X3318356Y732118D02*
G01*
X3309755Y740718D01*
X3306855Y746419D01*
X3306855Y755019D01*
X3309755Y760819D01*
X3318356Y763618D01*
X3346956Y763618D01*
X3306855Y782519D02*
G01*
X3346956Y782519D01*
X3318356Y782519D02*
G01*
X3309755Y791118D01*
X3306855Y796819D01*
X3306855Y805419D01*
X3309755Y811219D01*
X3318356Y814018D01*
X3346956Y814018D01*
X3318356Y814018D02*
G01*
X3309755Y822618D01*
X3306855Y828319D01*
X3306855Y836918D01*
X3309755Y842618D01*
X3318356Y845518D01*
X3346956Y845518D01*
X3306855Y908519D02*
G01*
X3346956Y940019D01*
X3306855Y940019D02*
G01*
X3346956Y908519D01*
X3286855Y1037319D02*
G01*
X3286855Y1008719D01*
X3312556Y1005918D01*
X3309755Y1008719D01*
X3306855Y1017319D01*
X3306855Y1025918D01*
X3309755Y1034519D01*
X3315456Y1040219D01*
X3324056Y1043119D01*
X3329755Y1043119D01*
X3338356Y1040219D01*
X3344056Y1034519D01*
X3346956Y1025918D01*
X3346956Y1017319D01*
X3344056Y1008719D01*
X3341256Y1005918D01*
X3335456Y1003018D01*
X3286855Y1079218D02*
G01*
X3289656Y1070619D01*
X3298256Y1064819D01*
X3312556Y1062019D01*
X3321156Y1062019D01*
X3335456Y1064819D01*
X3344056Y1070619D01*
X3346956Y1079218D01*
X3346956Y1084918D01*
X3344056Y1093519D01*
X3335456Y1099218D01*
X3321156Y1102118D01*
X3312556Y1102118D01*
X3298256Y1099218D01*
X3289656Y1093519D01*
X3286855Y1084918D01*
X3286855Y1079218D01*
X3306855Y1121019D02*
G01*
X3346956Y1121019D01*
X3318356Y1121019D02*
G01*
X3309755Y1129519D01*
X3306855Y1135318D01*
X3306855Y1143919D01*
X3309755Y1149618D01*
X3318356Y1152519D01*
X3346956Y1152519D01*
X3318356Y1152519D02*
G01*
X3309755Y1161019D01*
X3306855Y1166819D01*
X3306855Y1175419D01*
X3309755Y1181118D01*
X3318356Y1183919D01*
X3346956Y1183919D01*
X3306855Y1202818D02*
G01*
X3346956Y1202818D01*
X3318356Y1202818D02*
G01*
X3309755Y1211419D01*
X3306855Y1217219D01*
X3306855Y1225819D01*
X3309755Y1231518D01*
X3318356Y1234319D01*
X3346956Y1234319D01*
X3318356Y1234319D02*
G01*
X3309755Y1242919D01*
X3306855Y1248719D01*
X3306855Y1257219D01*
X3309755Y1263018D01*
X3318356Y1265819D01*
X3346956Y1265819D01*
D11*
X198838Y1894960D02*
G01*
X207438Y1903560D01*
X211738Y1916460D01*
X211738Y1933661D01*
X207438Y1946561D01*
X198838Y1955160D01*
X190237Y1955160D01*
X181637Y1950860D01*
X177337Y1946561D01*
X173038Y1937961D01*
X164438Y1912161D01*
X160138Y1903560D01*
X155837Y1899261D01*
X147337Y1894960D01*
X134438Y1894960D01*
X125837Y1903560D01*
X121538Y1916460D01*
X121538Y1933661D01*
X125837Y1946561D01*
X134438Y1955160D01*
X211738Y1840860D02*
G01*
X207438Y1849461D01*
X198838Y1858060D01*
X190237Y1862361D01*
X177337Y1866660D01*
X155837Y1866660D01*
X143038Y1862361D01*
X134438Y1858060D01*
X125837Y1849461D01*
X121538Y1840860D01*
X121538Y1823760D01*
X125837Y1815160D01*
X134438Y1806561D01*
X143038Y1802260D01*
X155837Y1797961D01*
X177337Y1797961D01*
X190237Y1802260D01*
X198838Y1806561D01*
X207438Y1815160D01*
X211738Y1823760D01*
X211738Y1840860D01*
X211738Y1769560D02*
G01*
X121538Y1769560D01*
X121538Y1769560D02*
G01*
X121538Y1718060D01*
X211738Y1689760D02*
G01*
X121538Y1689760D01*
X211738Y1689760D02*
G01*
X211738Y1659661D01*
X207438Y1646761D01*
X198838Y1638161D01*
X190237Y1633861D01*
X177337Y1629560D01*
X155837Y1629560D01*
X143038Y1633861D01*
X134438Y1638161D01*
X125837Y1646761D01*
X121538Y1659661D01*
X121538Y1689760D01*
X211738Y1601260D02*
G01*
X121538Y1601260D01*
X211738Y1601260D02*
G01*
X211738Y1545360D01*
X168737Y1601260D02*
G01*
X168737Y1566860D01*
X121538Y1601260D02*
G01*
X121538Y1545360D01*
X211738Y1517060D02*
G01*
X121538Y1517060D01*
X211738Y1517060D02*
G01*
X211738Y1478360D01*
X207438Y1465560D01*
X203137Y1461260D01*
X194537Y1456961D01*
X185938Y1456961D01*
X177337Y1461260D01*
X173038Y1465560D01*
X168737Y1478360D01*
X168737Y1517060D01*
X168737Y1486961D02*
G01*
X121538Y1456961D01*
X211738Y1362460D02*
G01*
X121538Y1362460D01*
X211738Y1362460D02*
G01*
X211738Y1323760D01*
X207438Y1310860D01*
X203137Y1306561D01*
X194537Y1302260D01*
X185938Y1302260D01*
X177337Y1306561D01*
X173038Y1310860D01*
X168737Y1323760D01*
X168737Y1362460D01*
X168737Y1332361D02*
G01*
X121538Y1302260D01*
X211738Y1273960D02*
G01*
X121538Y1273960D01*
X211738Y1273960D02*
G01*
X211738Y1218161D01*
X168737Y1273960D02*
G01*
X168737Y1239560D01*
X121538Y1273960D02*
G01*
X121538Y1218161D01*
X211738Y1189760D02*
G01*
X121538Y1189760D01*
X211738Y1189760D02*
G01*
X211738Y1133960D01*
X168737Y1189760D02*
G01*
X168737Y1155461D01*
X211738Y1105560D02*
G01*
X121538Y1105560D01*
X121538Y1105560D02*
G01*
X121538Y1054061D01*
X211738Y999960D02*
G01*
X207438Y1008560D01*
X198838Y1017161D01*
X190237Y1021460D01*
X177337Y1025761D01*
X155837Y1025761D01*
X143038Y1021460D01*
X134438Y1017161D01*
X125837Y1008560D01*
X121538Y999960D01*
X121538Y982761D01*
X125837Y974160D01*
X134438Y965560D01*
X143038Y961260D01*
X155837Y956961D01*
X177337Y956961D01*
X190237Y961260D01*
X198838Y965560D01*
X207438Y974160D01*
X211738Y982761D01*
X211738Y999960D01*
X211738Y928661D02*
G01*
X121538Y907161D01*
X211738Y885661D02*
G01*
X121538Y907161D01*
X211738Y885661D02*
G01*
X121538Y864261D01*
X211738Y842761D02*
G01*
X121538Y864261D01*
X211738Y748261D02*
G01*
X121538Y748261D01*
X211738Y748261D02*
G01*
X211738Y709661D01*
X207438Y696761D01*
X203137Y692460D01*
X194537Y688161D01*
X181637Y688161D01*
X173038Y692460D01*
X168737Y696761D01*
X164438Y709661D01*
X164438Y748261D01*
X211738Y659760D02*
G01*
X121538Y659760D01*
X121538Y659760D02*
G01*
X121538Y608261D01*
X211738Y545560D02*
G01*
X121538Y579861D01*
X211738Y545560D02*
G01*
X121538Y511161D01*
X151637Y567060D02*
G01*
X151637Y524061D01*
X211738Y452761D02*
G01*
X121538Y452761D01*
X211738Y482860D02*
G01*
X211738Y422761D01*
X211738Y394360D02*
G01*
X121538Y394360D01*
X211738Y394360D02*
G01*
X211738Y338560D01*
X168737Y394360D02*
G01*
X168737Y359960D01*
X121538Y394360D02*
G01*
X121538Y338560D01*
D43*
X779492Y2720333D02*
G01*
X781692Y2721433D01*
X784891Y2724634D01*
X784891Y2702033D01*
X797391Y2724634D02*
G01*
X794092Y2723533D01*
X793091Y2721433D01*
X793091Y2719234D01*
X794092Y2717134D01*
X796292Y2716033D01*
X800591Y2714933D01*
X803792Y2713933D01*
X805892Y2711734D01*
X806992Y2709634D01*
X806992Y2706334D01*
X805892Y2704234D01*
X804891Y2703134D01*
X801692Y2702033D01*
X797391Y2702033D01*
X794092Y2703134D01*
X793091Y2704234D01*
X791992Y2706334D01*
X791992Y2709634D01*
X793091Y2711734D01*
X795191Y2713933D01*
X798392Y2714933D01*
X802691Y2716033D01*
X804891Y2717134D01*
X805892Y2719234D01*
X805892Y2721433D01*
X804891Y2723533D01*
X801692Y2724634D01*
X797391Y2724634D01*
X814092Y2724634D02*
G01*
X822691Y2702033D01*
X831292Y2724634D02*
G01*
X822691Y2702033D01*
X838392Y2724634D02*
G01*
X838392Y2702033D01*
X838392Y2724634D02*
G01*
X845892Y2724634D01*
X849092Y2723533D01*
X851292Y2721433D01*
X852291Y2719234D01*
X853392Y2716033D01*
X853392Y2710634D01*
X852291Y2707433D01*
X851292Y2705333D01*
X849092Y2703134D01*
X845892Y2702033D01*
X838392Y2702033D01*
X876592Y2719234D02*
G01*
X875492Y2721433D01*
X873392Y2723533D01*
X871192Y2724634D01*
X866891Y2724634D01*
X864791Y2723533D01*
X862592Y2721433D01*
X861592Y2719234D01*
X860492Y2716033D01*
X860492Y2710634D01*
X861592Y2707433D01*
X862592Y2705333D01*
X864791Y2703134D01*
X866891Y2702033D01*
X871192Y2702033D01*
X873392Y2703134D01*
X875492Y2705333D01*
X876592Y2707433D01*
X900191Y2724634D02*
G01*
X900191Y2702033D01*
X900191Y2724634D02*
G01*
X908792Y2702033D01*
X917391Y2724634D02*
G01*
X908792Y2702033D01*
X917391Y2724634D02*
G01*
X917391Y2702033D01*
X933091Y2724634D02*
G01*
X924492Y2702033D01*
X933091Y2724634D02*
G01*
X941692Y2702033D01*
X927691Y2709634D02*
G01*
X938392Y2709634D01*
X948792Y2724634D02*
G01*
X963792Y2702033D01*
X963792Y2724634D02*
G01*
X948792Y2702033D01*
X3228161Y2268737D02*
G01*
X3228161Y2258038D01*
X3237761Y2256938D01*
X3236760Y2258038D01*
X3235661Y2261237D01*
X3235661Y2264537D01*
X3236760Y2267737D01*
X3238860Y2269837D01*
X3242061Y2270938D01*
X3244260Y2270938D01*
X3247461Y2269837D01*
X3249561Y2267737D01*
X3250661Y2264537D01*
X3250661Y2261237D01*
X3249561Y2258038D01*
X3248560Y2256938D01*
X3246360Y2255938D01*
X3228161Y2278038D02*
G01*
X3250661Y2286637D01*
X3228161Y2295237D02*
G01*
X3250661Y2286637D01*
X3231360Y2311938D02*
G01*
X3250661Y2311938D01*
X3240960Y2302238D02*
G01*
X3240960Y2321637D01*
X3228161Y2361738D02*
G01*
X3244260Y2361738D01*
X3247461Y2362838D01*
X3249561Y2365037D01*
X3250661Y2368238D01*
X3250661Y2370338D01*
X3249561Y2373537D01*
X3247461Y2375738D01*
X3244260Y2376837D01*
X3228161Y2376837D01*
X3228161Y2383937D02*
G01*
X3250661Y2383937D01*
X3228161Y2383937D02*
G01*
X3228161Y2393537D01*
X3229161Y2396738D01*
X3230261Y2397838D01*
X3232461Y2398937D01*
X3235661Y2398937D01*
X3237761Y2397838D01*
X3238860Y2396738D01*
X3239961Y2393537D01*
X3239961Y2383937D01*
X3228161Y2406037D02*
G01*
X3250661Y2406037D01*
X3228161Y2406037D02*
G01*
X3228161Y2413537D01*
X3229161Y2416738D01*
X3231360Y2418937D01*
X3233460Y2419938D01*
X3236760Y2421037D01*
X3242061Y2421037D01*
X3245261Y2419938D01*
X3247461Y2418937D01*
X3249561Y2416738D01*
X3250661Y2413537D01*
X3250661Y2406037D01*
X3228161Y2428137D02*
G01*
X3250661Y2428137D01*
X3228161Y2474738D02*
G01*
X3229161Y2471538D01*
X3232461Y2469337D01*
X3237761Y2468238D01*
X3240960Y2468238D01*
X3246360Y2469337D01*
X3249561Y2471538D01*
X3250661Y2474738D01*
X3250661Y2476837D01*
X3249561Y2480138D01*
X3246360Y2482238D01*
X3240960Y2483337D01*
X3237761Y2483337D01*
X3232461Y2482238D01*
X3229161Y2480138D01*
X3228161Y2476837D01*
X3228161Y2474738D01*
X3228161Y2490437D02*
G01*
X3250661Y2499038D01*
X3228161Y2507537D02*
G01*
X3250661Y2499038D01*
X2224777Y2774400D02*
G01*
X2223676Y2776500D01*
X2221576Y2778699D01*
X2219377Y2779699D01*
X2215077Y2779701D01*
X2212977Y2778699D01*
X2210776Y2776498D01*
X2209776Y2774400D01*
X2208676Y2771100D01*
X2208678Y2765799D01*
X2209777Y2762600D01*
X2210776Y2760399D01*
X2212977Y2758299D01*
X2215077Y2757199D01*
X2219377Y2757199D01*
X2221576Y2758299D01*
X2223676Y2760399D01*
X2224777Y2762600D01*
X2237177Y2779699D02*
G01*
X2233977Y2778699D01*
X2232878Y2776500D01*
X2232878Y2774400D01*
X2233977Y2772199D01*
X2236178Y2771100D01*
X2240477Y2770100D01*
X2243676Y2769000D01*
X2245776Y2766900D01*
X2246877Y2764699D01*
X2246877Y2761500D01*
X2245776Y2759299D01*
X2244777Y2758299D01*
X2241477Y2757199D01*
X2237177Y2757199D01*
X2233977Y2758299D01*
X2232876Y2759299D01*
X2231877Y2761500D01*
X2231877Y2764701D01*
X2232876Y2766900D01*
X2235077Y2769000D01*
X2238276Y2770099D01*
X2242577Y2771100D01*
X2244777Y2772199D01*
X2245776Y2774400D01*
X2245776Y2776500D01*
X2244777Y2778699D01*
X2241477Y2779699D01*
X2237177Y2779699D01*
X3149589Y2571078D02*
G01*
X3149589Y2548479D01*
X3149589Y2571078D02*
G01*
X3159290Y2571078D01*
X3162489Y2569978D01*
X3163590Y2568879D01*
X3164589Y2566779D01*
X3164589Y2564679D01*
X3163590Y2562478D01*
X3162489Y2561379D01*
X3159290Y2560378D01*
X3149589Y2560378D01*
X3157089Y2560378D02*
G01*
X3164589Y2548479D01*
X3173890Y2571078D02*
G01*
X3185690Y2571078D01*
X3179189Y2562478D01*
X3182489Y2562478D01*
X3184589Y2561379D01*
X3185690Y2560378D01*
X3186790Y2557078D01*
X3186790Y2554978D01*
X3185690Y2551779D01*
X3183490Y2549578D01*
X3180290Y2548479D01*
X3177089Y2548479D01*
X3173890Y2549578D01*
X3172790Y2550679D01*
X3171689Y2552779D01*
D40*
X2401567Y2785551D02*
G01*
X2401567Y2754850D01*
X2403567Y2748751D01*
X2407667Y2744650D01*
X2413868Y2742651D01*
X2417968Y2742651D01*
X2424067Y2744650D01*
X2428167Y2748751D01*
X2430168Y2754850D01*
X2430168Y2785551D01*
X2443667Y2777350D02*
G01*
X2447767Y2779452D01*
X2453968Y2785551D01*
X2453968Y2742651D01*
D48*
X3401179Y2322818D02*
G01*
X3433379Y2322818D01*
X3439778Y2325018D01*
X3444079Y2329317D01*
X3446279Y2335718D01*
X3446279Y2340018D01*
X3444079Y2346417D01*
X3439778Y2350718D01*
X3433379Y2352917D01*
X3401179Y2352917D01*
X3401179Y2367017D02*
G01*
X3446279Y2367017D01*
X3401179Y2367017D02*
G01*
X3401179Y2386417D01*
X3403279Y2392818D01*
X3405478Y2395018D01*
X3409678Y2397118D01*
X3416179Y2397118D01*
X3420478Y2395018D01*
X3422578Y2392818D01*
X3424778Y2386417D01*
X3424778Y2367017D01*
X3401179Y2411318D02*
G01*
X3446279Y2411318D01*
X3401179Y2411318D02*
G01*
X3401179Y2426318D01*
X3403279Y2432818D01*
X3407578Y2437118D01*
X3411878Y2439218D01*
X3418279Y2441417D01*
X3429079Y2441417D01*
X3435478Y2439218D01*
X3439778Y2437118D01*
X3444079Y2432818D01*
X3446279Y2426318D01*
X3446279Y2411318D01*
X3401179Y2455518D02*
G01*
X3446279Y2455518D01*
D40*
X822833Y2789162D02*
G01*
X826932Y2791262D01*
X833032Y2797363D01*
X833032Y2754463D01*
X848632Y2787163D02*
G01*
X848632Y2789162D01*
X850632Y2793263D01*
X852732Y2795363D01*
X856832Y2797363D01*
X864933Y2797363D01*
X869032Y2795363D01*
X871132Y2793263D01*
X873132Y2789162D01*
X873132Y2785063D01*
X871132Y2780963D01*
X867033Y2774863D01*
X846532Y2754463D01*
X875232Y2754463D01*
X888733Y2797363D02*
G01*
X905033Y2754463D01*
X921432Y2797363D02*
G01*
X905033Y2754463D01*
D43*
X2110168Y2299333D02*
G01*
X2110168Y2276833D01*
X2110168Y2299333D02*
G01*
X2119867Y2299333D01*
X2123068Y2298334D01*
X2124167Y2297233D01*
X2125267Y2295133D01*
X2125267Y2292934D01*
X2124167Y2290834D01*
X2123068Y2289733D01*
X2119867Y2288634D01*
X2110168Y2288634D01*
X2117767Y2288634D02*
G01*
X2125267Y2276833D01*
X2143068Y2299333D02*
G01*
X2132367Y2284333D01*
X2148468Y2284333D01*
X2143068Y2299333D02*
G01*
X2143068Y2276833D01*
X2740200Y2260100D02*
G01*
X2740200Y2237500D01*
X2740200Y2260100D02*
G01*
X2749799Y2260100D01*
X2753000Y2259000D01*
X2754099Y2257899D01*
X2755200Y2255799D01*
X2755200Y2253600D01*
X2754099Y2251500D01*
X2753000Y2250399D01*
X2749799Y2249299D01*
X2740200Y2249299D01*
X2747700Y2249299D02*
G01*
X2755200Y2237500D01*
X2775200Y2260100D02*
G01*
X2764399Y2260100D01*
X2763400Y2250399D01*
X2764399Y2251500D01*
X2767600Y2252500D01*
X2770900Y2252500D01*
X2774099Y2251500D01*
X2776199Y2249299D01*
X2777299Y2246100D01*
X2777299Y2244000D01*
X2776199Y2240700D01*
X2774099Y2238600D01*
X2770900Y2237500D01*
X2767600Y2237500D01*
X2764399Y2238600D01*
X2763400Y2239699D01*
X2762299Y2241799D01*
X2795317Y2539630D02*
G01*
X2795317Y2517031D01*
X2795317Y2539630D02*
G01*
X2805018Y2539630D01*
X2808217Y2538530D01*
X2809218Y2537431D01*
X2810317Y2535331D01*
X2810317Y2533130D01*
X2809218Y2531030D01*
X2808217Y2529931D01*
X2805018Y2528831D01*
X2795317Y2528831D01*
X2802817Y2528831D02*
G01*
X2810317Y2517031D01*
X2830317Y2536331D02*
G01*
X2829218Y2538530D01*
X2826018Y2539630D01*
X2823918Y2539630D01*
X2820618Y2538530D01*
X2818518Y2535331D01*
X2817417Y2529931D01*
X2817417Y2524531D01*
X2818518Y2520230D01*
X2820618Y2518130D01*
X2823918Y2517031D01*
X2824917Y2517031D01*
X2828118Y2518130D01*
X2830317Y2520230D01*
X2831418Y2523530D01*
X2831418Y2524531D01*
X2830317Y2527730D01*
X2828118Y2529931D01*
X2824917Y2531030D01*
X2823918Y2531030D01*
X2820618Y2529931D01*
X2818518Y2527730D01*
X2817417Y2524531D01*
X1527543Y2764002D02*
G01*
X1527543Y2741401D01*
X1527543Y2764002D02*
G01*
X1535043Y2764002D01*
X1538343Y2762901D01*
X1540443Y2760801D01*
X1541544Y2758602D01*
X1542543Y2755401D01*
X1542543Y2750001D01*
X1541544Y2746801D01*
X1540443Y2744702D01*
X1538343Y2742501D01*
X1535043Y2741401D01*
X1527543Y2741401D01*
X1551844Y2764002D02*
G01*
X1563644Y2764002D01*
X1557244Y2755401D01*
X1560443Y2755401D01*
X1562543Y2754301D01*
X1563644Y2753301D01*
X1564744Y2750001D01*
X1564744Y2747901D01*
X1563644Y2744702D01*
X1561444Y2742501D01*
X1558244Y2741401D01*
X1555043Y2741401D01*
X1551844Y2742501D01*
X1550744Y2743602D01*
X1549643Y2745702D01*
X827124Y2435823D02*
G01*
X826023Y2437923D01*
X823923Y2440124D01*
X821724Y2441124D01*
X817424Y2441124D01*
X815324Y2440124D01*
X813123Y2437923D01*
X812124Y2435823D01*
X811023Y2432523D01*
X811023Y2427224D01*
X812124Y2424023D01*
X813123Y2421824D01*
X815324Y2419724D01*
X817424Y2418624D01*
X821724Y2418624D01*
X823923Y2419724D01*
X826023Y2421824D01*
X827124Y2424023D01*
X849224Y2441124D02*
G01*
X838523Y2418624D01*
X834224Y2441124D02*
G01*
X849224Y2441124D01*
X913386Y2480493D02*
G01*
X913386Y2457993D01*
X913386Y2480493D02*
G01*
X920886Y2480493D01*
X924085Y2479493D01*
X926286Y2477294D01*
X927385Y2475194D01*
X928386Y2471894D01*
X928386Y2466594D01*
X927385Y2463393D01*
X926286Y2461194D01*
X924085Y2459094D01*
X920886Y2457993D01*
X913386Y2457993D01*
X936585Y2475194D02*
G01*
X936585Y2476194D01*
X937686Y2478393D01*
X938685Y2479493D01*
X940886Y2480493D01*
X945186Y2480493D01*
X947286Y2479493D01*
X948386Y2478393D01*
X949485Y2476194D01*
X949485Y2474094D01*
X948386Y2471894D01*
X946286Y2468694D01*
X935486Y2457993D01*
X950586Y2457993D01*
X1372623Y2299454D02*
G01*
X1370424Y2298355D01*
X1368324Y2296154D01*
X1367223Y2294054D01*
X1366123Y2290855D01*
X1366123Y2285455D01*
X1367223Y2282255D01*
X1368324Y2280055D01*
X1370424Y2277955D01*
X1372623Y2276855D01*
X1376923Y2276855D01*
X1379023Y2277955D01*
X1381123Y2280055D01*
X1382223Y2282255D01*
X1383324Y2285455D01*
X1383324Y2290855D01*
X1382223Y2294054D01*
X1381123Y2296154D01*
X1379023Y2298355D01*
X1376923Y2299454D01*
X1372623Y2299454D01*
X1390424Y2299454D02*
G01*
X1390424Y2276855D01*
X1390424Y2276855D02*
G01*
X1403324Y2276855D01*
X1410424Y2299454D02*
G01*
X1410424Y2276855D01*
X1410424Y2299454D02*
G01*
X1424323Y2299454D01*
X1410424Y2288654D02*
G01*
X1418923Y2288654D01*
X1410424Y2276855D02*
G01*
X1424323Y2276855D01*
X1431423Y2299454D02*
G01*
X1431423Y2276855D01*
X1431423Y2299454D02*
G01*
X1438923Y2299454D01*
X1442124Y2298355D01*
X1444323Y2296154D01*
X1445424Y2294054D01*
X1446423Y2290855D01*
X1446423Y2285455D01*
X1445424Y2282255D01*
X1444323Y2280055D01*
X1442124Y2277955D01*
X1438923Y2276855D01*
X1431423Y2276855D01*
X1500396Y2480243D02*
G01*
X1489696Y2480243D01*
X1488595Y2470542D01*
X1489696Y2471642D01*
X1492896Y2472642D01*
X1496095Y2472642D01*
X1499395Y2471642D01*
X1501495Y2469443D01*
X1502596Y2466242D01*
X1502596Y2464142D01*
X1501495Y2460843D01*
X1499395Y2458742D01*
X1496095Y2457642D01*
X1492896Y2457642D01*
X1489696Y2458742D01*
X1488595Y2459843D01*
X1487596Y2461943D01*
X1509696Y2480243D02*
G01*
X1518296Y2457642D01*
X1526895Y2480243D02*
G01*
X1518296Y2457642D01*
X1543595Y2476943D02*
G01*
X1543595Y2457642D01*
X1533896Y2467343D02*
G01*
X1553296Y2467343D01*
X1503649Y2379602D02*
G01*
X1502550Y2381702D01*
X1500450Y2383802D01*
X1498249Y2384902D01*
X1493950Y2384902D01*
X1491850Y2383802D01*
X1489750Y2381702D01*
X1488649Y2379602D01*
X1487550Y2376302D01*
X1487550Y2371001D01*
X1488649Y2367701D01*
X1489750Y2365601D01*
X1491850Y2363402D01*
X1493950Y2362402D01*
X1498249Y2362402D01*
X1500450Y2363402D01*
X1502550Y2365601D01*
X1503649Y2367701D01*
X1503649Y2371001D01*
X1498249Y2371001D02*
G01*
X1503649Y2371001D01*
X1510749Y2384902D02*
G01*
X1510749Y2362402D01*
X1510749Y2384902D02*
G01*
X1525749Y2362402D01*
X1525749Y2384902D02*
G01*
X1525749Y2362402D01*
X1532849Y2384902D02*
G01*
X1532849Y2362402D01*
X1532849Y2384902D02*
G01*
X1540349Y2384902D01*
X1543649Y2383802D01*
X1545749Y2381702D01*
X1546850Y2379602D01*
X1547849Y2376302D01*
X1547849Y2371001D01*
X1546850Y2367701D01*
X1545749Y2365601D01*
X1543649Y2363402D01*
X1540349Y2362402D01*
X1532849Y2362402D01*
X1502550Y2579339D02*
G01*
X1500450Y2581439D01*
X1497250Y2582539D01*
X1492950Y2582539D01*
X1489750Y2581439D01*
X1487550Y2579339D01*
X1487550Y2577238D01*
X1488649Y2575039D01*
X1489750Y2573939D01*
X1491850Y2572939D01*
X1498249Y2570738D01*
X1500450Y2569639D01*
X1501549Y2568638D01*
X1502550Y2566439D01*
X1502550Y2563238D01*
X1500450Y2561039D01*
X1497250Y2560039D01*
X1492950Y2560039D01*
X1489750Y2561039D01*
X1487550Y2563238D01*
X1525749Y2577238D02*
G01*
X1524750Y2579339D01*
X1522550Y2581439D01*
X1520450Y2582539D01*
X1516149Y2582539D01*
X1513950Y2581439D01*
X1511850Y2579339D01*
X1510749Y2577238D01*
X1509650Y2573939D01*
X1509650Y2568638D01*
X1510749Y2565338D01*
X1511850Y2563238D01*
X1513950Y2561039D01*
X1516149Y2560039D01*
X1520450Y2560039D01*
X1522550Y2561039D01*
X1524750Y2563238D01*
X1525749Y2565338D01*
X1532849Y2582539D02*
G01*
X1532849Y2560039D01*
X1532849Y2560039D02*
G01*
X1545749Y2560039D01*
X1502550Y2681702D02*
G01*
X1500450Y2683802D01*
X1497250Y2684902D01*
X1492950Y2684902D01*
X1489750Y2683802D01*
X1487550Y2681702D01*
X1487550Y2679602D01*
X1488649Y2677402D01*
X1489750Y2676302D01*
X1491850Y2675302D01*
X1498249Y2673101D01*
X1500450Y2672002D01*
X1501549Y2671001D01*
X1502550Y2668802D01*
X1502550Y2665601D01*
X1500450Y2663402D01*
X1497250Y2662402D01*
X1492950Y2662402D01*
X1489750Y2663402D01*
X1487550Y2665601D01*
X1509650Y2684902D02*
G01*
X1509650Y2662402D01*
X1509650Y2684902D02*
G01*
X1517150Y2684902D01*
X1520450Y2683802D01*
X1522550Y2681702D01*
X1523649Y2679602D01*
X1524750Y2676302D01*
X1524750Y2671001D01*
X1523649Y2667701D01*
X1522550Y2665601D01*
X1520450Y2663402D01*
X1517150Y2662402D01*
X1509650Y2662402D01*
X1540349Y2684902D02*
G01*
X1531750Y2662402D01*
X1540349Y2684902D02*
G01*
X1548950Y2662402D01*
X1535050Y2669902D02*
G01*
X1545749Y2669902D01*
X1693175Y2302660D02*
G01*
X1682475Y2302660D01*
X1681374Y2293060D01*
X1682475Y2294059D01*
X1685675Y2295160D01*
X1688874Y2295160D01*
X1692075Y2294059D01*
X1694274Y2291959D01*
X1695375Y2288760D01*
X1695375Y2286559D01*
X1694274Y2283359D01*
X1692075Y2281160D01*
X1688874Y2280160D01*
X1685675Y2280160D01*
X1682475Y2281160D01*
X1681374Y2282260D01*
X1680275Y2284459D01*
X1702375Y2302660D02*
G01*
X1710974Y2280160D01*
X1719575Y2302660D02*
G01*
X1710974Y2280160D01*
X1657044Y2549299D02*
G01*
X1655945Y2551399D01*
X1653845Y2553598D01*
X1651644Y2554598D01*
X1647344Y2554598D01*
X1645245Y2553598D01*
X1643045Y2551399D01*
X1642044Y2549299D01*
X1640945Y2546098D01*
X1640945Y2540698D01*
X1642044Y2537498D01*
X1643045Y2535299D01*
X1645245Y2533198D01*
X1647344Y2532098D01*
X1651644Y2532098D01*
X1653845Y2533198D01*
X1655945Y2535299D01*
X1657044Y2537498D01*
X1666244Y2554598D02*
G01*
X1678045Y2554598D01*
X1671644Y2546098D01*
X1674844Y2546098D01*
X1677044Y2544998D01*
X1678045Y2543899D01*
X1679144Y2540698D01*
X1679144Y2538499D01*
X1678045Y2535299D01*
X1675945Y2533198D01*
X1672745Y2532098D01*
X1669444Y2532098D01*
X1666244Y2533198D01*
X1665245Y2534198D01*
X1664144Y2536399D01*
X1680676Y2635922D02*
G01*
X1679576Y2638022D01*
X1677476Y2640223D01*
X1675276Y2641223D01*
X1670977Y2641223D01*
X1668877Y2640223D01*
X1666676Y2638022D01*
X1665577Y2635922D01*
X1664576Y2632622D01*
X1664576Y2627323D01*
X1665577Y2624122D01*
X1666676Y2621923D01*
X1668877Y2619823D01*
X1670977Y2618723D01*
X1675276Y2618723D01*
X1677476Y2619823D01*
X1679576Y2621923D01*
X1680676Y2624122D01*
X1698477Y2641223D02*
G01*
X1687776Y2626223D01*
X1703877Y2626223D01*
X1698477Y2641223D02*
G01*
X1698477Y2618723D01*
X1935735Y2458060D02*
G01*
X1934636Y2460160D01*
X1932536Y2462359D01*
X1930335Y2463359D01*
X1926135Y2463359D01*
X1923936Y2462359D01*
X1921836Y2460160D01*
X1920735Y2458060D01*
X1919636Y2454859D01*
X1919636Y2449459D01*
X1920735Y2446260D01*
X1921836Y2444059D01*
X1923936Y2441959D01*
X1926135Y2440859D01*
X1930335Y2440859D01*
X1932536Y2441959D01*
X1934636Y2444059D01*
X1935735Y2446260D01*
X1955735Y2463359D02*
G01*
X1944935Y2463359D01*
X1943936Y2453760D01*
X1944935Y2454859D01*
X1948235Y2455859D01*
X1951436Y2455859D01*
X1954636Y2454859D01*
X1956836Y2452660D01*
X1957835Y2449459D01*
X1957835Y2447260D01*
X1956836Y2444059D01*
X1954636Y2441959D01*
X1951436Y2440859D01*
X1948235Y2440859D01*
X1944935Y2441959D01*
X1943936Y2442959D01*
X1942835Y2445160D01*
X2022367Y2426572D02*
G01*
X2021266Y2428672D01*
X2019166Y2430873D01*
X2016967Y2431873D01*
X2012667Y2431873D01*
X2010567Y2430873D01*
X2008366Y2428672D01*
X2007367Y2426572D01*
X2006266Y2423272D01*
X2006266Y2417973D01*
X2007367Y2414773D01*
X2008366Y2412573D01*
X2010567Y2410473D01*
X2012667Y2409373D01*
X2016967Y2409373D01*
X2019166Y2410473D01*
X2021266Y2412573D01*
X2022367Y2414773D01*
X2042367Y2428672D02*
G01*
X2041266Y2430873D01*
X2038067Y2431873D01*
X2035866Y2431873D01*
X2032667Y2430873D01*
X2030567Y2427573D01*
X2029467Y2422273D01*
X2029467Y2416873D01*
X2030567Y2412573D01*
X2032667Y2410473D01*
X2035866Y2409373D01*
X2036967Y2409373D01*
X2040167Y2410473D01*
X2042367Y2412573D01*
X2043366Y2415772D01*
X2043366Y2416873D01*
X2042367Y2420073D01*
X2040167Y2422273D01*
X2036967Y2423272D01*
X2035866Y2423272D01*
X2032667Y2422273D01*
X2030567Y2420073D01*
X2029467Y2416873D01*
X3413734Y2175961D02*
G01*
X3412633Y2178060D01*
X3410533Y2180261D01*
X3408334Y2181361D01*
X3404034Y2181361D01*
X3401934Y2180261D01*
X3399834Y2178060D01*
X3398734Y2175961D01*
X3397633Y2172761D01*
X3397633Y2167361D01*
X3398734Y2164160D01*
X3399834Y2161961D01*
X3401934Y2159861D01*
X3404034Y2158760D01*
X3408334Y2158760D01*
X3410533Y2159861D01*
X3412633Y2161961D01*
X3413734Y2164160D01*
X3434834Y2173760D02*
G01*
X3433734Y2170560D01*
X3431534Y2168461D01*
X3428334Y2167361D01*
X3427233Y2167361D01*
X3424034Y2168461D01*
X3421934Y2170560D01*
X3420834Y2173760D01*
X3420834Y2174861D01*
X3421934Y2178060D01*
X3424034Y2180261D01*
X3427233Y2181361D01*
X3428334Y2181361D01*
X3431534Y2180261D01*
X3433734Y2178060D01*
X3434834Y2173760D01*
X3434834Y2168461D01*
X3433734Y2163060D01*
X3431534Y2159861D01*
X3428334Y2158760D01*
X3426234Y2158760D01*
X3422933Y2159861D01*
X3421934Y2161961D01*
X2590915Y2282269D02*
G01*
X2589816Y2284369D01*
X2587716Y2286570D01*
X2585515Y2287669D01*
X2581216Y2287669D01*
X2579116Y2286570D01*
X2576916Y2284369D01*
X2575915Y2282269D01*
X2574817Y2279070D01*
X2574817Y2273670D01*
X2575916Y2270470D01*
X2576916Y2268270D01*
X2579116Y2266170D01*
X2581216Y2265070D01*
X2585515Y2265070D01*
X2587716Y2266170D01*
X2589816Y2268270D01*
X2590915Y2270470D01*
X2598015Y2283370D02*
G01*
X2600115Y2284369D01*
X2603316Y2287669D01*
X2603316Y2265070D01*
X2616916Y2287669D02*
G01*
X2613716Y2286570D01*
X2611516Y2283370D01*
X2610416Y2277970D01*
X2610415Y2274769D01*
X2611516Y2269369D01*
X2613716Y2266170D01*
X2616916Y2265070D01*
X2619016Y2265070D01*
X2622215Y2266170D01*
X2624416Y2269369D01*
X2625517Y2274769D01*
X2625515Y2277970D01*
X2624417Y2283370D01*
X2622215Y2286570D01*
X2619016Y2287669D01*
X2616916Y2287669D01*
X2677559Y2254702D02*
G01*
X2676459Y2256801D01*
X2674259Y2259002D01*
X2672159Y2260102D01*
X2667858Y2260102D01*
X2665758Y2259002D01*
X2663558Y2256801D01*
X2662458Y2254702D01*
X2661459Y2251502D01*
X2661459Y2246102D01*
X2662458Y2242901D01*
X2663558Y2240702D01*
X2665758Y2238602D01*
X2667858Y2237501D01*
X2672159Y2237501D01*
X2674259Y2238602D01*
X2676459Y2240702D01*
X2677559Y2242901D01*
X2684659Y2255801D02*
G01*
X2686759Y2256801D01*
X2689958Y2260102D01*
X2689958Y2237501D01*
X2698158Y2254702D02*
G01*
X2698158Y2255801D01*
X2699259Y2257901D01*
X2700258Y2259002D01*
X2702458Y2260102D01*
X2706759Y2260102D01*
X2708859Y2259002D01*
X2709958Y2257901D01*
X2711058Y2255801D01*
X2711058Y2253602D01*
X2709958Y2251502D01*
X2707758Y2248202D01*
X2697058Y2237501D01*
X2712058Y2237501D01*
X2732677Y2534220D02*
G01*
X2731576Y2536320D01*
X2729476Y2538519D01*
X2727277Y2539620D01*
X2722977Y2539620D01*
X2720877Y2538519D01*
X2718676Y2536320D01*
X2717677Y2534220D01*
X2716576Y2531019D01*
X2716576Y2525619D01*
X2717677Y2522420D01*
X2718676Y2520219D01*
X2720877Y2518119D01*
X2722977Y2517020D01*
X2727277Y2517020D01*
X2729476Y2518119D01*
X2731576Y2520219D01*
X2732677Y2522420D01*
X2739777Y2535320D02*
G01*
X2741877Y2536320D01*
X2745177Y2539620D01*
X2745177Y2517020D01*
X2754377Y2539620D02*
G01*
X2766176Y2539620D01*
X2759777Y2531019D01*
X2762977Y2531019D01*
X2765077Y2529920D01*
X2766176Y2528820D01*
X2767277Y2525619D01*
X2767277Y2523519D01*
X2766176Y2520219D01*
X2763977Y2518119D01*
X2760776Y2517020D01*
X2757577Y2517020D01*
X2754377Y2518119D01*
X2753276Y2519220D01*
X2752177Y2521320D01*
X2559422Y2731062D02*
G01*
X2558321Y2733162D01*
X2556221Y2735363D01*
X2554022Y2736462D01*
X2549722Y2736462D01*
X2547622Y2735363D01*
X2545421Y2733162D01*
X2544322Y2731062D01*
X2543321Y2727863D01*
X2543321Y2722462D01*
X2544322Y2719263D01*
X2545421Y2717062D01*
X2547622Y2714962D01*
X2549722Y2713863D01*
X2554022Y2713863D01*
X2556221Y2714962D01*
X2558321Y2717062D01*
X2559422Y2719263D01*
X2566522Y2732163D02*
G01*
X2568621Y2733162D01*
X2571822Y2736462D01*
X2571822Y2713863D01*
X2589722Y2736462D02*
G01*
X2578922Y2721363D01*
X2595021Y2721363D01*
X2589722Y2736462D02*
G01*
X2589722Y2713863D01*
X2137330Y2801277D02*
G01*
X2136229Y2803377D01*
X2134129Y2805576D01*
X2131930Y2806577D01*
X2127629Y2806577D01*
X2125529Y2805576D01*
X2123429Y2803377D01*
X2122330Y2801277D01*
X2121229Y2798076D01*
X2121229Y2792676D01*
X2122330Y2789477D01*
X2123429Y2787276D01*
X2125529Y2785176D01*
X2127629Y2784077D01*
X2131930Y2784077D01*
X2134129Y2785176D01*
X2136229Y2787276D01*
X2137330Y2789477D01*
X2144430Y2802276D02*
G01*
X2146530Y2803377D01*
X2149830Y2806577D01*
X2149830Y2784077D01*
X2170829Y2799077D02*
G01*
X2169729Y2795877D01*
X2167629Y2793777D01*
X2164430Y2792676D01*
X2163329Y2792676D01*
X2160129Y2793777D01*
X2157929Y2795877D01*
X2156930Y2799077D01*
X2156930Y2800176D01*
X2157929Y2803377D01*
X2160129Y2805576D01*
X2163329Y2806577D01*
X2164430Y2806577D01*
X2167629Y2805576D01*
X2169729Y2803377D01*
X2170829Y2799077D01*
X2170829Y2793777D01*
X2169729Y2788377D01*
X2167629Y2785176D01*
X2164430Y2784077D01*
X2162229Y2784077D01*
X2159030Y2785176D01*
X2157929Y2787276D01*
X1118110Y2267982D02*
G01*
X1118110Y2245381D01*
X1118110Y2267982D02*
G01*
X1126710Y2245381D01*
X1135311Y2267982D02*
G01*
X1126710Y2245381D01*
X1135311Y2267982D02*
G01*
X1135311Y2245381D01*
X1148810Y2267982D02*
G01*
X1146710Y2266882D01*
X1144511Y2264681D01*
X1143410Y2262582D01*
X1142411Y2259382D01*
X1142411Y2253982D01*
X1143410Y2250781D01*
X1144511Y2248582D01*
X1146710Y2246482D01*
X1148810Y2245381D01*
X1153110Y2245381D01*
X1155210Y2246482D01*
X1157411Y2248582D01*
X1158510Y2250781D01*
X1159511Y2253982D01*
X1159511Y2259382D01*
X1158510Y2262582D01*
X1157411Y2264681D01*
X1155210Y2266882D01*
X1153110Y2267982D01*
X1148810Y2267982D01*
X1181710Y2264681D02*
G01*
X1179511Y2266882D01*
X1176310Y2267982D01*
X1172011Y2267982D01*
X1168810Y2266882D01*
X1166611Y2264681D01*
X1166611Y2262582D01*
X1167710Y2260381D01*
X1168810Y2259382D01*
X1170910Y2258281D01*
X1177411Y2256082D01*
X1179511Y2255082D01*
X1180610Y2253982D01*
X1181710Y2251781D01*
X1181710Y2248582D01*
X1179511Y2246482D01*
X1176310Y2245381D01*
X1172011Y2245381D01*
X1168810Y2246482D01*
X1166611Y2248582D01*
X1188711Y2267982D02*
G01*
X1188711Y2245381D01*
X1188711Y2267982D02*
G01*
X1202710Y2267982D01*
X1188711Y2257181D02*
G01*
X1197310Y2257181D01*
X1209810Y2267982D02*
G01*
X1209810Y2245381D01*
X1209810Y2267982D02*
G01*
X1223711Y2267982D01*
X1209810Y2257181D02*
G01*
X1218410Y2257181D01*
X1209810Y2245381D02*
G01*
X1223711Y2245381D01*
X1238410Y2267982D02*
G01*
X1238410Y2245381D01*
X1230811Y2267982D02*
G01*
X1245910Y2267982D01*
X1877184Y2664834D02*
G01*
X1877184Y2642334D01*
X1877184Y2664834D02*
G01*
X1886784Y2664834D01*
X1889984Y2663834D01*
X1891085Y2662734D01*
X1892184Y2660535D01*
X1892184Y2658434D01*
X1891085Y2656334D01*
X1889984Y2655234D01*
X1886784Y2654135D01*
X1877184Y2654135D01*
X1884684Y2654135D02*
G01*
X1892184Y2642334D01*
X1899284Y2660535D02*
G01*
X1901385Y2661635D01*
X1904584Y2664834D01*
X1904584Y2642334D01*
X1971643Y2664834D02*
G01*
X1971643Y2642334D01*
X1971643Y2664834D02*
G01*
X1981342Y2664834D01*
X1984543Y2663834D01*
X1985643Y2662734D01*
X1986643Y2660535D01*
X1986643Y2658434D01*
X1985643Y2656334D01*
X1984543Y2655234D01*
X1981342Y2654135D01*
X1971643Y2654135D01*
X1979143Y2654135D02*
G01*
X1986643Y2642334D01*
X1994843Y2659535D02*
G01*
X1994843Y2660535D01*
X1995942Y2662734D01*
X1996943Y2663834D01*
X1999143Y2664834D01*
X2003442Y2664834D01*
X2005542Y2663834D01*
X2006643Y2662734D01*
X2007743Y2660535D01*
X2007743Y2658434D01*
X2006643Y2656334D01*
X2004543Y2653035D01*
X1993743Y2642334D01*
X2008743Y2642334D01*
D48*
X3243386Y1862618D02*
G01*
X3243386Y1817519D01*
X3228285Y1862618D02*
G01*
X3258386Y1862618D01*
X3272586Y1862618D02*
G01*
X3272586Y1817519D01*
X3272586Y1862618D02*
G01*
X3300486Y1862618D01*
X3272586Y1841118D02*
G01*
X3289786Y1841118D01*
X3272586Y1817519D02*
G01*
X3300486Y1817519D01*
X3314686Y1862618D02*
G01*
X3314686Y1817519D01*
X3314686Y1862618D02*
G01*
X3331886Y1817519D01*
X3348986Y1862618D02*
G01*
X3331886Y1817519D01*
X3348986Y1862618D02*
G01*
X3348986Y1817519D01*
X3363185Y1862618D02*
G01*
X3363185Y1817519D01*
X3363185Y1862618D02*
G01*
X3382485Y1862618D01*
X3388986Y1860419D01*
X3391085Y1858319D01*
X3393285Y1854018D01*
X3393285Y1847519D01*
X3391085Y1843218D01*
X3388986Y1841118D01*
X3382485Y1839018D01*
X3363185Y1839018D01*
D43*
X905883Y2656300D02*
G01*
X904782Y2658400D01*
X902682Y2660599D01*
X900483Y2661599D01*
X896183Y2661599D01*
X894083Y2660599D01*
X891882Y2658400D01*
X890883Y2656300D01*
X889782Y2653000D01*
X889782Y2647700D01*
X890883Y2644499D01*
X891882Y2642300D01*
X894083Y2640200D01*
X896183Y2639099D01*
X900483Y2639099D01*
X902682Y2640200D01*
X904782Y2642300D01*
X905883Y2644499D01*
X912983Y2657300D02*
G01*
X915083Y2658400D01*
X918283Y2661599D01*
X918283Y2639099D01*
X252296Y2530282D02*
G01*
X251296Y2532381D01*
X249095Y2534582D01*
X246995Y2535682D01*
X242696Y2535682D01*
X240495Y2534582D01*
X238395Y2532381D01*
X237296Y2530282D01*
X236195Y2527082D01*
X236195Y2521682D01*
X237296Y2518481D01*
X238395Y2516282D01*
X240495Y2514182D01*
X242696Y2513081D01*
X246995Y2513081D01*
X249095Y2514182D01*
X251296Y2516282D01*
X252296Y2518481D01*
X260495Y2530282D02*
G01*
X260495Y2531381D01*
X261595Y2533481D01*
X262595Y2534582D01*
X264796Y2535682D01*
X269095Y2535682D01*
X271195Y2534582D01*
X272296Y2533481D01*
X273395Y2531381D01*
X273395Y2529182D01*
X272296Y2527082D01*
X270196Y2523881D01*
X259396Y2513081D01*
X274396Y2513081D01*
X803176Y2582863D02*
G01*
X803176Y2560363D01*
X803176Y2582863D02*
G01*
X810676Y2582863D01*
X813877Y2581864D01*
X816076Y2579663D01*
X817076Y2577564D01*
X818176Y2574263D01*
X818176Y2568964D01*
X817076Y2565664D01*
X816076Y2563564D01*
X813877Y2561464D01*
X810676Y2560363D01*
X803176Y2560363D01*
X825276Y2578564D02*
G01*
X827376Y2579663D01*
X830676Y2582863D01*
X830676Y2560363D01*
G36*
X1721660Y2730419D02*
G01*
X1721660Y2718800D01*
X1733660Y2718800D01*
X1733660Y2730419D01*
G37*
G36*
X1721660Y2793000D02*
G01*
X1721660Y2781400D01*
X1733660Y2781400D01*
X1733660Y2793000D01*
G37*
G36*
X221220Y2484340D02*
G01*
X221220Y2453140D01*
X229020Y2453140D01*
X229020Y2484340D01*
G37*
G36*
X221220Y2271260D02*
G01*
X221220Y2240080D01*
X229020Y2240080D01*
X229020Y2271260D01*
G37*
G36*
X199140Y2259560D02*
G01*
X199140Y2251780D01*
X251100Y2251780D01*
X251100Y2259560D01*
G37*
D39*
X1417321Y826772D02*
G01*
X2047242Y826772D01*
X1417321Y826772D02*
G01*
X1732281Y1377952D01*
X2047242Y826772D01*
X1669288Y1065693D02*
G01*
X1678518Y1056469D01*
X1795271Y1065693D02*
G01*
X1804498Y1056469D01*
X1732281Y1062991D02*
G01*
X1741511Y1053769D01*
X1574801Y905513D02*
G01*
X1889763Y905513D01*
D12*
X3110236Y149607D02*
G01*
X3110236Y1968506D01*
X417323Y78742D02*
G01*
X3039372Y78742D01*
X346457Y149607D02*
G01*
X346457Y1968506D01*
X3039372Y2039373D02*
G01*
X417323Y2039373D01*
D40*
X2248669Y2744034D02*
G01*
X2217563Y2744034D01*
X2217563Y2704774D02*
G01*
X2248669Y2704774D01*
X2254669Y2710774D02*
G01*
X2254669Y2738033D01*
X2168644Y2744034D02*
G01*
X2199750Y2744034D01*
X2199750Y2704774D02*
G01*
X2168644Y2704774D01*
X2162645Y2710774D02*
G01*
X2162645Y2738033D01*
X3195293Y2497089D02*
G01*
X3195293Y2534841D01*
X3143276Y2534841D01*
X3143276Y2497089D01*
X3195293Y2463530D02*
G01*
X3195293Y2425779D01*
X3143276Y2425779D01*
X3143276Y2463530D01*
D10*
X2429129Y2676731D02*
G01*
X2582242Y2523616D01*
X2429129Y2370502D01*
X2276014Y2523616D01*
X2429129Y2676731D01*
D41*
X3384638Y2464758D02*
G01*
X3384638Y2539758D01*
X3284638Y2539758D01*
X3284638Y2239758D01*
X3384638Y2239758D01*
D42*
X3384638Y2239758D02*
G01*
X3384638Y2464758D01*
D10*
X3033737Y2626096D02*
G01*
X2970743Y2626096D01*
X2970743Y2673343D01*
X3033737Y2673343D01*
X3033737Y2633973D01*
X3033737Y2626096D01*
X3065232Y2610349D02*
G01*
X2939246Y2610349D01*
X2939246Y2689090D01*
X3065232Y2689090D01*
X3065232Y2610349D01*
X2888068Y2535547D02*
G01*
X2888068Y2541430D01*
X2888068Y2580848D02*
G01*
X2888068Y2718591D01*
X2888068Y2758009D02*
G01*
X2888068Y2763892D01*
X2888068Y2763892D02*
G01*
X2892016Y2763892D01*
X2954984Y2763892D02*
G01*
X2970756Y2763892D01*
X3033724Y2763892D02*
G01*
X3049495Y2763892D01*
X3112464Y2763892D02*
G01*
X3116412Y2763892D01*
X3116412Y2763892D02*
G01*
X3116412Y2758009D01*
X3116412Y2718591D02*
G01*
X3116412Y2580848D01*
X3116412Y2541430D02*
G01*
X3116412Y2535547D01*
X3116412Y2535547D02*
G01*
X3112464Y2535547D01*
X3049495Y2535547D02*
G01*
X3033724Y2535547D01*
X2970756Y2535547D02*
G01*
X2954984Y2535547D01*
X2892016Y2535547D02*
G01*
X2888068Y2535547D01*
X3033737Y2366197D02*
G01*
X2970743Y2366197D01*
X2970743Y2413443D01*
X3033737Y2413443D01*
X3033737Y2374072D01*
X3033737Y2366197D01*
X3065232Y2350450D02*
G01*
X2939246Y2350450D01*
X2939246Y2429189D01*
X3065232Y2429189D01*
X3065232Y2350450D01*
X2888068Y2275648D02*
G01*
X2888068Y2281531D01*
X2888068Y2320949D02*
G01*
X2888068Y2458690D01*
X2888068Y2498108D02*
G01*
X2888068Y2503991D01*
X2888068Y2503991D02*
G01*
X2892016Y2503991D01*
X2954984Y2503991D02*
G01*
X2970756Y2503991D01*
X3033724Y2503991D02*
G01*
X3049495Y2503991D01*
X3112464Y2503991D02*
G01*
X3116412Y2503991D01*
X3116412Y2503991D02*
G01*
X3116412Y2498108D01*
X3116412Y2458690D02*
G01*
X3116412Y2320949D01*
X3116412Y2281531D02*
G01*
X3116412Y2275648D01*
X3116412Y2275648D02*
G01*
X3112464Y2275648D01*
X3049495Y2275648D02*
G01*
X3033724Y2275648D01*
X2970756Y2275648D02*
G01*
X2954984Y2275648D01*
X2892016Y2275648D02*
G01*
X2888068Y2275648D01*
X728213Y2835745D02*
G01*
X728213Y2268490D01*
X728544Y2835745D02*
G01*
X374214Y2835745D01*
X728213Y2706579D02*
G01*
X373883Y2706579D01*
X728213Y2268490D02*
G01*
X642393Y2268490D01*
X464034Y2268490D02*
G01*
X374214Y2268490D01*
X374214Y2835745D02*
G01*
X374214Y2488989D01*
X374214Y2314171D02*
G01*
X374214Y2268490D01*
D40*
X2237247Y2265326D02*
G01*
X2274998Y2265326D01*
X2274998Y2317341D01*
X2237247Y2317341D01*
X2203688Y2265326D02*
G01*
X2165937Y2265326D01*
X2165937Y2317341D01*
X2203688Y2317341D01*
X2781908Y2347480D02*
G01*
X2781908Y2385230D01*
X2729892Y2385230D01*
X2729892Y2347480D01*
X2781908Y2313919D02*
G01*
X2781908Y2276169D01*
X2729892Y2276169D01*
X2729892Y2313919D01*
X2837025Y2627011D02*
G01*
X2837025Y2664762D01*
X2785010Y2664762D01*
X2785010Y2627011D01*
X2837025Y2593451D02*
G01*
X2837025Y2555700D01*
X2785010Y2555700D01*
X2785010Y2593451D01*
X1724652Y2721804D02*
G01*
X1613931Y2721804D01*
X1613931Y2721804D02*
G01*
X1613931Y2728418D01*
X1724652Y2790009D02*
G01*
X1613931Y2790009D01*
X1613931Y2790009D02*
G01*
X1613931Y2783395D01*
X1710603Y2721804D02*
G01*
X1710603Y2790009D01*
X791197Y2402017D02*
G01*
X791197Y2346505D01*
X862346Y2346505D02*
G01*
X862346Y2402017D01*
X856346Y2408017D02*
G01*
X797196Y2408017D01*
X791197Y2259403D02*
G01*
X791197Y2314915D01*
X862346Y2314915D02*
G01*
X862346Y2259403D01*
X856346Y2253402D02*
G01*
X797196Y2253402D01*
D10*
X909134Y2326457D02*
G01*
X949134Y2326457D01*
X945133Y2366457D02*
G01*
X929134Y2326457D01*
X913134Y2366457D02*
G01*
X945133Y2366457D01*
X929134Y2326457D02*
G01*
X913134Y2366457D01*
X968504Y2405513D02*
G01*
X968504Y2287402D01*
X889763Y2405513D02*
G01*
X889763Y2287402D01*
X929134Y2316457D02*
G01*
X929134Y2376457D01*
X1353149Y2719155D02*
G01*
X1463149Y2719155D01*
X1463149Y2321655D01*
X1353149Y2321655D01*
X1353149Y2719155D01*
D40*
X1866360Y2427705D02*
G01*
X1866360Y2323281D01*
X1821130Y2323281D01*
X1683195Y2427705D02*
G01*
X1683195Y2323281D01*
X1728424Y2323281D01*
X1703476Y2510981D02*
G01*
X1758987Y2510981D01*
X1758987Y2582132D02*
G01*
X1703476Y2582132D01*
X1697475Y2576131D02*
G01*
X1697475Y2516981D01*
X1846090Y2510981D02*
G01*
X1790577Y2510981D01*
X1790577Y2582132D02*
G01*
X1846090Y2582132D01*
X1852089Y2576131D02*
G01*
X1852089Y2516981D01*
D10*
X1829507Y2648910D02*
G01*
X1829507Y2617413D01*
X1785816Y2661109D02*
G01*
X1817312Y2661109D01*
X1785816Y2605216D02*
G01*
X1817312Y2605216D01*
X1763144Y2661338D02*
G01*
X1731647Y2661338D01*
X1719449Y2649140D02*
G01*
X1719449Y2617645D01*
X1763144Y2605448D02*
G01*
X1731647Y2605448D01*
D40*
X1970965Y2281648D02*
G01*
X1970965Y2337159D01*
X1899816Y2337159D02*
G01*
X1899816Y2281648D01*
X1905816Y2275648D02*
G01*
X1964966Y2275648D01*
X1970965Y2424261D02*
G01*
X1970965Y2368750D01*
X1899816Y2368750D02*
G01*
X1899816Y2424261D01*
X1905816Y2430261D02*
G01*
X1964966Y2430261D01*
D10*
X2006265Y2391930D02*
G01*
X2037763Y2391930D01*
X1994066Y2348240D02*
G01*
X1994066Y2379735D01*
X2049958Y2348240D02*
G01*
X2049958Y2379735D01*
X1993837Y2325567D02*
G01*
X1993837Y2294070D01*
X2006036Y2281873D02*
G01*
X2037530Y2281873D01*
X2049727Y2325567D02*
G01*
X2049727Y2294070D01*
X3275275Y2154261D02*
G01*
X3275275Y2185758D01*
X3318966Y2142062D02*
G01*
X3287470Y2142062D01*
X3318966Y2197953D02*
G01*
X3287470Y2197953D01*
X3341638Y2141833D02*
G01*
X3373135Y2141833D01*
X3385333Y2154031D02*
G01*
X3385333Y2185526D01*
X3341638Y2197723D02*
G01*
X3373135Y2197723D01*
D40*
X2552511Y2276720D02*
G01*
X2574507Y2298715D01*
X2546746Y2326475D02*
G01*
X2524750Y2304481D01*
X2524750Y2295994D02*
G01*
X2544026Y2276720D01*
X2609097Y2333305D02*
G01*
X2587102Y2311309D01*
X2559341Y2339070D02*
G01*
X2581336Y2361066D01*
X2589822Y2361066D02*
G01*
X2609097Y2341790D01*
X2712545Y2282824D02*
G01*
X2712545Y2313930D01*
X2673284Y2313930D02*
G01*
X2673284Y2282824D01*
X2679285Y2276824D02*
G01*
X2706544Y2276824D01*
X2712545Y2362847D02*
G01*
X2712545Y2331741D01*
X2673284Y2331741D02*
G01*
X2673284Y2362847D01*
X2679285Y2368847D02*
G01*
X2706544Y2368847D01*
X2767692Y2562352D02*
G01*
X2767692Y2593458D01*
X2728433Y2593458D02*
G01*
X2728433Y2562352D01*
X2734432Y2556352D02*
G01*
X2761692Y2556352D01*
X2767692Y2642375D02*
G01*
X2767692Y2611269D01*
X2728433Y2611269D02*
G01*
X2728433Y2642375D01*
X2734432Y2648375D02*
G01*
X2761692Y2648375D01*
X2664215Y2650936D02*
G01*
X2642219Y2672932D01*
X2614458Y2645171D02*
G01*
X2636454Y2623175D01*
X2644939Y2623175D02*
G01*
X2664215Y2642451D01*
X2607629Y2707521D02*
G01*
X2629624Y2685527D01*
X2601863Y2657766D02*
G01*
X2579868Y2679760D01*
X2579868Y2688247D02*
G01*
X2599143Y2707521D01*
D10*
X2058257Y2806006D02*
G01*
X2089754Y2806006D01*
X2046058Y2762314D02*
G01*
X2046058Y2793809D01*
X2101949Y2762314D02*
G01*
X2101949Y2793809D01*
X2045829Y2739641D02*
G01*
X2045829Y2708146D01*
X2058027Y2695947D02*
G01*
X2089521Y2695947D01*
X2101719Y2739641D02*
G01*
X2101719Y2708146D01*
D40*
X1273473Y2362804D02*
G01*
X1273473Y2597741D01*
X1009993Y2362804D02*
G01*
X1009993Y2597741D01*
X1273473Y2597741D02*
G01*
X1009993Y2597741D01*
X1928999Y2762154D02*
G01*
X1928999Y2812743D01*
X1856787Y2812743D01*
X1856787Y2762154D01*
X1928999Y2724659D02*
G01*
X1928999Y2674070D01*
X1856787Y2674070D01*
X1856787Y2724659D01*
X2023487Y2762154D02*
G01*
X2023487Y2812743D01*
X1951275Y2812743D01*
X1951275Y2762154D01*
X2023487Y2724659D02*
G01*
X2023487Y2674070D01*
X1951275Y2674070D01*
X1951275Y2724659D01*
D10*
X3229138Y2039366D02*
G01*
X3385037Y2039366D01*
X921251Y2512206D02*
G01*
X889754Y2512206D01*
X933450Y2555897D02*
G01*
X933450Y2524402D01*
X877557Y2555897D02*
G01*
X877557Y2524402D01*
X933679Y2578569D02*
G01*
X933679Y2610066D01*
X921481Y2622264D02*
G01*
X889985Y2622264D01*
X877789Y2578569D02*
G01*
X877789Y2610066D01*
D40*
X194461Y2494313D02*
G01*
X298256Y2495104D01*
X298256Y2284203D01*
X243355Y2229304D01*
X192354Y2229828D01*
X137494Y2494861D02*
G01*
X32435Y2495124D01*
X32435Y2284250D01*
X87402Y2229285D01*
X138355Y2229285D01*
D43*
X828739Y2490158D02*
G01*
X809054Y2490158D01*
X809054Y2549214D02*
G01*
X828739Y2549214D01*
D44*
X834647Y2543310D02*
G01*
X834647Y2496071D01*
X803148Y2496071D01*
X803148Y2543310D01*
X834647Y2543310D01*
D39*
G75*
G01*
X1700788Y1002703D02*
G02*
X1678517Y948936I-76038J0D01*
G75*
G01*
X1647019Y1119461D02*
G03*
X1669290Y1065694I76038J0D01*
G75*
G01*
X1669290Y1173228D02*
G03*
X1647019Y1119461I53767J-53767D01*
G75*
G01*
X1678517Y1056470D02*
G02*
X1700788Y1002703I-53767J-53767D01*
G75*
G01*
X1773003Y1119461D02*
G03*
X1795274Y1065694I76038J0D01*
G75*
G01*
X1826772Y1002703D02*
G02*
X1804501Y948936I-76038J0D01*
G75*
G01*
X1795274Y1173228D02*
G03*
X1773003Y1119461I53767J-53767D01*
G75*
G01*
X1804501Y1056470D02*
G02*
X1826772Y1002703I-53767J-53767D01*
G75*
G01*
X1741511Y1053769D02*
G02*
X1763782Y1000002I-53767J-53767D01*
G75*
G01*
X1732284Y1170527D02*
G03*
X1710013Y1116760I53767J-53767D01*
G75*
G01*
X1763782Y1000002D02*
G02*
X1741511Y946235I-76038J0D01*
G75*
G01*
X1710013Y1116760D02*
G03*
X1732284Y1062993I76038J0D01*
D12*
G75*
G01*
X3039372Y78741D02*
G03*
X3110238Y149607I0J70866D01*
G75*
G01*
X417323Y78741D02*
G02*
X346457Y149607I0J70866D01*
G75*
G01*
X3110238Y1968506D02*
G03*
X3039372Y2039372I-70866J0D01*
G75*
G01*
X346457Y1968506D02*
G02*
X417323Y2039372I70866J0D01*
D40*
G75*
G01*
X2248669Y2704774D02*
G03*
X2254669Y2710775I0J6000D01*
G75*
G01*
X2254669Y2738033D02*
G03*
X2248669Y2744034I-6000J1D01*
G75*
G01*
X2168645Y2704774D02*
G02*
X2162645Y2710775I0J6000D01*
G75*
G01*
X2162645Y2738033D02*
G02*
X2168645Y2744034I6000J1D01*
D45*
G75*
G01*
X2216148Y2505515D02*
G03*
X2216219Y2505444I-4141J-4212D01*
D11*
G75*
G01*
X2317760Y2529203D02*
G03*
X2317901Y2529062I-5497J-5638D01*
D40*
G75*
G01*
X862347Y2402017D02*
G03*
X856347Y2408017I-6000J0D01*
G75*
G01*
X797197Y2408017D02*
G03*
X791197Y2402017I0J-6000D01*
G75*
G01*
X862347Y2259403D02*
G02*
X856347Y2253403I-6000J0D01*
G75*
G01*
X797197Y2253403D02*
G02*
X791197Y2259403I0J6000D01*
G75*
G01*
X1703476Y2582132D02*
G03*
X1697476Y2576132I0J-6000D01*
G75*
G01*
X1697476Y2516982D02*
G03*
X1703476Y2510982I6000J0D01*
G75*
G01*
X1846090Y2582132D02*
G02*
X1852090Y2576132I0J-6000D01*
G75*
G01*
X1852090Y2516982D02*
G02*
X1846090Y2510982I-6000J0D01*
D10*
G75*
G01*
X1719448Y2649140D02*
G02*
X1731646Y2661338I12198J0D01*
G75*
G01*
X1731646Y2605446D02*
G02*
X1719448Y2617645I0J12198D01*
G75*
G01*
X1817310Y2661109D02*
G02*
X1829508Y2648910I0J-12198D01*
G75*
G01*
X1829508Y2617415D02*
G02*
X1817310Y2605217I-12198J0D01*
D40*
G75*
G01*
X1899816Y2281648D02*
G03*
X1905816Y2275648I6000J0D01*
G75*
G01*
X1964966Y2275648D02*
G03*
X1970966Y2281648I0J6000D01*
G75*
G01*
X1899816Y2424262D02*
G02*
X1905816Y2430262I6000J0D01*
G75*
G01*
X1964966Y2430262D02*
G02*
X1970966Y2424262I0J-6000D01*
D10*
G75*
G01*
X2006036Y2281871D02*
G02*
X1993838Y2294069I0J12198D01*
G75*
G01*
X2049730Y2294069D02*
G02*
X2037531Y2281871I-12198J0D01*
G75*
G01*
X1994067Y2379733D02*
G02*
X2006266Y2391931I12198J0D01*
G75*
G01*
X2037761Y2391931D02*
G02*
X2049959Y2379733I0J-12198D01*
G75*
G01*
X3385335Y2154031D02*
G02*
X3373137Y2141833I-12198J0D01*
G75*
G01*
X3373137Y2197725D02*
G02*
X3385335Y2185526I0J-12198D01*
G75*
G01*
X3287473Y2142062D02*
G02*
X3275275Y2154261I0J12198D01*
G75*
G01*
X3275275Y2185756D02*
G02*
X3287473Y2197954I12198J0D01*
D40*
G75*
G01*
X2524751Y2304481D02*
G03*
X2524751Y2295995I4242J-4243D01*
G75*
G01*
X2544026Y2276720D02*
G03*
X2552512Y2276720I4243J4242D01*
G75*
G01*
X2581336Y2361066D02*
G02*
X2589822Y2361066I4243J-4242D01*
G75*
G01*
X2609097Y2341791D02*
G02*
X2609097Y2333305I-4242J-4243D01*
G75*
G01*
X2673285Y2282824D02*
G03*
X2679285Y2276824I6000J0D01*
G75*
G01*
X2706545Y2276824D02*
G03*
X2712545Y2282824I0J6000D01*
G75*
G01*
X2673285Y2362848D02*
G02*
X2679285Y2368848I6000J0D01*
G75*
G01*
X2706545Y2368848D02*
G02*
X2712545Y2362848I0J-6000D01*
G75*
G01*
X2728433Y2562352D02*
G03*
X2734433Y2556352I6000J0D01*
G75*
G01*
X2761693Y2556352D02*
G03*
X2767693Y2562352I0J6000D01*
G75*
G01*
X2728433Y2642376D02*
G02*
X2734433Y2648376I6000J0D01*
G75*
G01*
X2761693Y2648376D02*
G02*
X2767693Y2642376I0J-6000D01*
G75*
G01*
X2636454Y2623176D02*
G03*
X2644940Y2623176I4243J4242D01*
G75*
G01*
X2664215Y2642451D02*
G03*
X2664215Y2650937I-4242J4243D01*
G75*
G01*
X2579869Y2679761D02*
G02*
X2579869Y2688247I4242J4243D01*
G75*
G01*
X2599144Y2707522D02*
G02*
X2607630Y2707522I4243J-4242D01*
D10*
G75*
G01*
X2058027Y2695946D02*
G02*
X2045829Y2708144I0J12198D01*
G75*
G01*
X2101721Y2708144D02*
G02*
X2089522Y2695946I-12198J0D01*
G75*
G01*
X2046058Y2793808D02*
G02*
X2058257Y2806006I12198J0D01*
G75*
G01*
X2089752Y2806006D02*
G02*
X2101950Y2793808I0J-12198D01*
G75*
G01*
X3229088Y2039416D02*
G03*
X3385088Y2039416I78000J-58992D01*
G75*
G01*
X921481Y2622266D02*
G02*
X933679Y2610068I0J-12198D01*
G75*
G01*
X877787Y2610068D02*
G02*
X889986Y2622266I12198J0D01*
G75*
G01*
X933450Y2524404D02*
G02*
X921251Y2512206I-12198J0D01*
G75*
G01*
X889756Y2512206D02*
G02*
X877558Y2524404I0J12198D01*
M02*
