G04 Layer: BottomLayer*
G04 EasyEDA v6.4.32, 2022-03-04 17:10:02*
G04 9e068ee103114b4da440d1e05eba0729,9b295ca1ffa148ecaf4cbe0d9ff7b9be,10*
G04 Gerber Generator version 0.2*
G04 Scale: 100 percent, Rotated: No, Reflected: No *
G04 Dimensions in inches *
G04 leading zeros omitted , absolute positions ,3 integer and 6 decimal *
%FSLAX36Y36*%
%MOIN*%

%ADD11C,0.0157*%
%ADD15C,0.0240*%
%ADD32C,0.0709*%
%ADD33R,0.0709X0.0620*%
%ADD34C,0.0630*%
%ADD35C,0.0600*%
%ADD36R,0.0354X0.0630*%
%ADD37C,0.0354*%
%ADD38C,0.0142*%

%LPD*%
G36*
X14200Y2202760D02*
G01*
X12660Y2203060D01*
X11379Y2203920D01*
X10500Y2205220D01*
X10200Y2206760D01*
X10200Y2676940D01*
X10560Y2687360D01*
X11600Y2697360D01*
X13320Y2707260D01*
X15700Y2717040D01*
X18760Y2726620D01*
X22460Y2735960D01*
X26780Y2745040D01*
X31720Y2753800D01*
X37240Y2762200D01*
X43320Y2770220D01*
X49940Y2777780D01*
X57060Y2784900D01*
X64640Y2791500D01*
X72660Y2797559D01*
X81080Y2803060D01*
X89840Y2807980D01*
X98940Y2812300D01*
X108300Y2815980D01*
X117880Y2819020D01*
X127640Y2821380D01*
X137560Y2823080D01*
X147560Y2824100D01*
X157720Y2824440D01*
X3306860Y2824440D01*
X3317280Y2824080D01*
X3327280Y2823039D01*
X3337180Y2821320D01*
X3346960Y2818940D01*
X3356540Y2815880D01*
X3365880Y2812200D01*
X3374960Y2807860D01*
X3383720Y2802919D01*
X3392120Y2797400D01*
X3400140Y2791320D01*
X3407700Y2784700D01*
X3414800Y2777580D01*
X3421420Y2770000D01*
X3427480Y2761980D01*
X3432980Y2753580D01*
X3437900Y2744800D01*
X3442220Y2735720D01*
X3445899Y2726360D01*
X3448940Y2716760D01*
X3451300Y2707000D01*
X3453000Y2697080D01*
X3454020Y2687080D01*
X3454360Y2676920D01*
X3454440Y2206760D01*
X3454140Y2205220D01*
X3453279Y2203920D01*
X3451980Y2203060D01*
X3450440Y2202760D01*
X3307460Y2202760D01*
X3305940Y2203060D01*
X3304640Y2203920D01*
X3145640Y2363080D01*
X3143000Y2365080D01*
X3140140Y2366500D01*
X3137080Y2367380D01*
X3133720Y2367680D01*
X2804120Y2367680D01*
X2802580Y2368000D01*
X2801280Y2368860D01*
X2618039Y2552080D01*
X2615400Y2554080D01*
X2612540Y2555500D01*
X2609480Y2556380D01*
X2606120Y2556680D01*
X2516660Y2556680D01*
X2515120Y2556980D01*
X2513820Y2557860D01*
X2483620Y2588060D01*
X2482840Y2589160D01*
X2481480Y2594200D01*
X2479840Y2597700D01*
X2477620Y2600860D01*
X2474880Y2603600D01*
X2471720Y2605820D01*
X2468220Y2607460D01*
X2464480Y2608460D01*
X2460620Y2608800D01*
X2456780Y2608460D01*
X2453040Y2607460D01*
X2449540Y2605820D01*
X2446360Y2603600D01*
X2443640Y2600860D01*
X2441420Y2597700D01*
X2439780Y2594200D01*
X2438780Y2590460D01*
X2438440Y2586600D01*
X2438780Y2582760D01*
X2439780Y2579020D01*
X2441420Y2575520D01*
X2443640Y2572340D01*
X2446360Y2569620D01*
X2449540Y2567400D01*
X2453040Y2565760D01*
X2458080Y2564400D01*
X2459180Y2563620D01*
X2496100Y2526720D01*
X2498740Y2524720D01*
X2501600Y2523300D01*
X2504660Y2522420D01*
X2508020Y2522120D01*
X2597480Y2522120D01*
X2599020Y2521800D01*
X2600320Y2520940D01*
X2783560Y2337720D01*
X2786200Y2335720D01*
X2789060Y2334300D01*
X2792120Y2333420D01*
X2795480Y2333120D01*
X2887300Y2333120D01*
X2888980Y2332740D01*
X2890340Y2331700D01*
X2891139Y2330200D01*
X2891240Y2328480D01*
X2890620Y2326880D01*
X2887400Y2322080D01*
X2884980Y2317200D01*
X2883240Y2312020D01*
X2882160Y2306680D01*
X2881820Y2301240D01*
X2882160Y2295800D01*
X2883240Y2290460D01*
X2884980Y2285280D01*
X2887400Y2280400D01*
X2890419Y2275860D01*
X2894020Y2271760D01*
X2898120Y2268160D01*
X2902660Y2265140D01*
X2907540Y2262720D01*
X2912720Y2260980D01*
X2918060Y2259900D01*
X2923500Y2259560D01*
X2928940Y2259900D01*
X2934280Y2260980D01*
X2939460Y2262720D01*
X2944340Y2265140D01*
X2948880Y2268160D01*
X2952980Y2271760D01*
X2956580Y2275860D01*
X2959540Y2280300D01*
X2960640Y2281420D01*
X2962080Y2282000D01*
X2963660Y2282000D01*
X2965100Y2281420D01*
X2966200Y2280300D01*
X2969160Y2275860D01*
X2972760Y2271760D01*
X2976860Y2268160D01*
X2981400Y2265140D01*
X2986280Y2262720D01*
X2991460Y2260980D01*
X2996800Y2259900D01*
X3002240Y2259560D01*
X3007679Y2259900D01*
X3013020Y2260980D01*
X3018200Y2262720D01*
X3023080Y2265140D01*
X3027620Y2268160D01*
X3031720Y2271760D01*
X3035320Y2275860D01*
X3038279Y2280300D01*
X3039380Y2281420D01*
X3040820Y2282000D01*
X3042400Y2282000D01*
X3043840Y2281420D01*
X3044940Y2280300D01*
X3047900Y2275860D01*
X3051500Y2271760D01*
X3055600Y2268160D01*
X3060140Y2265140D01*
X3065020Y2262720D01*
X3070200Y2260980D01*
X3075539Y2259900D01*
X3080980Y2259560D01*
X3086420Y2259900D01*
X3091760Y2260980D01*
X3096940Y2262720D01*
X3101820Y2265140D01*
X3106360Y2268160D01*
X3110460Y2271760D01*
X3114060Y2275860D01*
X3117080Y2280400D01*
X3119500Y2285280D01*
X3121240Y2290460D01*
X3122320Y2295800D01*
X3122660Y2301240D01*
X3122320Y2306680D01*
X3121240Y2312020D01*
X3119500Y2317200D01*
X3117080Y2322080D01*
X3113860Y2326880D01*
X3113240Y2328480D01*
X3113340Y2330200D01*
X3114140Y2331700D01*
X3115500Y2332740D01*
X3117180Y2333120D01*
X3125080Y2333120D01*
X3126600Y2332800D01*
X3127900Y2331940D01*
X3250120Y2209580D01*
X3251000Y2208280D01*
X3251300Y2206740D01*
X3251000Y2205220D01*
X3250120Y2203920D01*
X3248820Y2203060D01*
X3247300Y2202760D01*
X3217100Y2202760D01*
X3215680Y2203020D01*
X3214440Y2203760D01*
X3211480Y2206400D01*
X3210460Y2207220D01*
X3204840Y2211220D01*
X3203720Y2211920D01*
X3197700Y2215240D01*
X3196520Y2215820D01*
X3190140Y2218460D01*
X3182280Y2220800D01*
X3181000Y2221080D01*
X3174200Y2222240D01*
X3172900Y2222400D01*
X3165240Y2222800D01*
X2301320Y2222800D01*
X2299800Y2223100D01*
X2298500Y2223980D01*
X2297620Y2225260D01*
X2297320Y2226800D01*
X2297620Y2228340D01*
X2298500Y2229620D01*
X2317840Y2248980D01*
X2318680Y2249620D01*
X2319640Y2250020D01*
X2322540Y2250800D01*
X2326060Y2252420D01*
X2329220Y2254640D01*
X2331960Y2257380D01*
X2334180Y2260560D01*
X2335820Y2264060D01*
X2336820Y2267800D01*
X2337140Y2271640D01*
X2336820Y2275500D01*
X2335820Y2279240D01*
X2334180Y2282740D01*
X2331960Y2285920D01*
X2329220Y2288640D01*
X2326060Y2290860D01*
X2322540Y2292500D01*
X2318800Y2293500D01*
X2314960Y2293840D01*
X2311100Y2293500D01*
X2307360Y2292500D01*
X2303860Y2290860D01*
X2300700Y2288640D01*
X2297960Y2285920D01*
X2295740Y2282740D01*
X2294100Y2279240D01*
X2293320Y2276340D01*
X2292920Y2275360D01*
X2292280Y2274540D01*
X2277140Y2259400D01*
X2275840Y2258540D01*
X2274320Y2258220D01*
X1375280Y2258220D01*
X1373760Y2258540D01*
X1372460Y2259400D01*
X1338140Y2293720D01*
X1337280Y2295000D01*
X1336960Y2296540D01*
X1336960Y2610940D01*
X1336480Y2614360D01*
X1335420Y2617520D01*
X1333800Y2620440D01*
X1331540Y2623140D01*
X1321879Y2632820D01*
X1321240Y2633639D01*
X1320840Y2634600D01*
X1320060Y2637520D01*
X1318420Y2641019D01*
X1316220Y2644180D01*
X1313480Y2646920D01*
X1310300Y2649140D01*
X1306800Y2650779D01*
X1303060Y2651780D01*
X1299220Y2652120D01*
X1295360Y2651780D01*
X1291620Y2650779D01*
X1288120Y2649140D01*
X1284940Y2646920D01*
X1282200Y2644180D01*
X1280000Y2641019D01*
X1278360Y2637520D01*
X1277360Y2633780D01*
X1277020Y2629920D01*
X1277360Y2626060D01*
X1278360Y2622320D01*
X1280000Y2618820D01*
X1282200Y2615659D01*
X1284940Y2612919D01*
X1288120Y2610700D01*
X1291620Y2609060D01*
X1294520Y2608279D01*
X1295480Y2607880D01*
X1296320Y2607260D01*
X1299640Y2603920D01*
X1300520Y2602620D01*
X1300820Y2601100D01*
X1300840Y2286700D01*
X1301320Y2283260D01*
X1302380Y2280100D01*
X1304000Y2277200D01*
X1306240Y2274480D01*
X1351100Y2229620D01*
X1351980Y2228340D01*
X1352280Y2226800D01*
X1351980Y2225260D01*
X1351100Y2223980D01*
X1349800Y2223100D01*
X1348280Y2222800D01*
X1236320Y2222800D01*
X1228680Y2222380D01*
X1227380Y2222240D01*
X1220580Y2221080D01*
X1219300Y2220800D01*
X1211440Y2218460D01*
X1205060Y2215820D01*
X1203880Y2215240D01*
X1197840Y2211920D01*
X1196740Y2211220D01*
X1191120Y2207220D01*
X1190080Y2206400D01*
X1187140Y2203760D01*
X1185900Y2203020D01*
X1184480Y2202760D01*
X957260Y2202760D01*
X955840Y2203020D01*
X954599Y2203760D01*
X951640Y2206400D01*
X950620Y2207220D01*
X945000Y2211220D01*
X937860Y2215240D01*
X936660Y2215820D01*
X930300Y2218460D01*
X922440Y2220800D01*
X921160Y2221080D01*
X914360Y2222240D01*
X913060Y2222380D01*
X905400Y2222800D01*
X299320Y2222800D01*
X291660Y2222400D01*
X290360Y2222240D01*
X283580Y2221080D01*
X282300Y2220800D01*
X274420Y2218460D01*
X268060Y2215820D01*
X266880Y2215240D01*
X260840Y2211920D01*
X259720Y2211220D01*
X254100Y2207220D01*
X253080Y2206400D01*
X250120Y2203760D01*
X248880Y2203020D01*
X247460Y2202760D01*
G37*

%LPC*%
G36*
X506100Y2237820D02*
G01*
X600340Y2237820D01*
X606180Y2238200D01*
X611800Y2239280D01*
X617260Y2241040D01*
X622440Y2243480D01*
X627280Y2246560D01*
X631700Y2250200D01*
X635620Y2254380D01*
X638980Y2259020D01*
X641740Y2264040D01*
X643840Y2269360D01*
X645280Y2274920D01*
X646000Y2280600D01*
X646000Y2286320D01*
X645280Y2292020D01*
X643840Y2297560D01*
X641740Y2302880D01*
X638980Y2307900D01*
X635620Y2312540D01*
X631700Y2316720D01*
X627280Y2320380D01*
X622440Y2323440D01*
X617260Y2325880D01*
X611800Y2327660D01*
X606180Y2328720D01*
X600340Y2329100D01*
X506100Y2329100D01*
X500260Y2328720D01*
X494620Y2327660D01*
X489180Y2325880D01*
X483980Y2323440D01*
X479159Y2320380D01*
X474739Y2316720D01*
X470820Y2312540D01*
X467440Y2307900D01*
X464680Y2302880D01*
X462580Y2297560D01*
X461160Y2292020D01*
X460439Y2286320D01*
X460439Y2280600D01*
X461160Y2274920D01*
X462580Y2269360D01*
X464680Y2264040D01*
X467440Y2259020D01*
X470820Y2254380D01*
X474739Y2250200D01*
X479159Y2246560D01*
X483980Y2243480D01*
X489180Y2241040D01*
X494620Y2239280D01*
X500260Y2238200D01*
G37*
G36*
X3334640Y2244140D02*
G01*
X3340360Y2244500D01*
X3345980Y2245560D01*
X3351440Y2247340D01*
X3356620Y2249780D01*
X3361460Y2252840D01*
X3365880Y2256500D01*
X3369800Y2260680D01*
X3373159Y2265320D01*
X3375920Y2270340D01*
X3378039Y2275660D01*
X3379460Y2281200D01*
X3380179Y2286900D01*
X3380179Y2292620D01*
X3379460Y2298300D01*
X3378039Y2303860D01*
X3375920Y2309180D01*
X3373159Y2314200D01*
X3369800Y2318840D01*
X3365880Y2323020D01*
X3361460Y2326680D01*
X3356620Y2329740D01*
X3351440Y2332180D01*
X3345980Y2333960D01*
X3340360Y2335020D01*
X3334640Y2335380D01*
X3328920Y2335020D01*
X3323300Y2333960D01*
X3317840Y2332180D01*
X3312660Y2329740D01*
X3307820Y2326680D01*
X3303399Y2323020D01*
X3299480Y2318840D01*
X3296120Y2314200D01*
X3293360Y2309180D01*
X3291240Y2303860D01*
X3289820Y2298300D01*
X3289100Y2292620D01*
X3289100Y2286900D01*
X3289820Y2281200D01*
X3291240Y2275660D01*
X3293360Y2270340D01*
X3296120Y2265320D01*
X3299480Y2260680D01*
X3303399Y2256500D01*
X3307820Y2252840D01*
X3312660Y2249780D01*
X3317840Y2247340D01*
X3323300Y2245560D01*
X3328920Y2244500D01*
G37*
G36*
X388260Y2317420D02*
G01*
X392500Y2319740D01*
X397120Y2323120D01*
X401300Y2327040D01*
X404960Y2331460D01*
X408020Y2336300D01*
X410460Y2341480D01*
X412239Y2346920D01*
X413320Y2352560D01*
X413680Y2358400D01*
X413680Y2359700D01*
X388260Y2359700D01*
G37*
G36*
X347819Y2317420D02*
G01*
X347819Y2359700D01*
X322420Y2359700D01*
X322420Y2358400D01*
X322780Y2352560D01*
X323860Y2346920D01*
X325620Y2341480D01*
X328060Y2336300D01*
X331140Y2331460D01*
X334780Y2327040D01*
X338960Y2323120D01*
X343600Y2319740D01*
G37*
G36*
X1385640Y2335520D02*
G01*
X1385640Y2354160D01*
X1367020Y2354160D01*
X1367280Y2353520D01*
X1370020Y2348900D01*
X1373340Y2344700D01*
X1377200Y2340960D01*
X1381519Y2337780D01*
G37*
G36*
X1420640Y2335560D02*
G01*
X1422460Y2336400D01*
X1427000Y2339300D01*
X1431100Y2342760D01*
X1434700Y2346740D01*
X1437740Y2351180D01*
X1439240Y2354160D01*
X1420640Y2354160D01*
G37*
G36*
X3334640Y2344140D02*
G01*
X3340360Y2344500D01*
X3345980Y2345560D01*
X3351440Y2347340D01*
X3356620Y2349780D01*
X3361460Y2352840D01*
X3365880Y2356500D01*
X3369800Y2360680D01*
X3373159Y2365320D01*
X3375920Y2370340D01*
X3378039Y2375660D01*
X3379460Y2381200D01*
X3380179Y2386900D01*
X3380179Y2392620D01*
X3379460Y2398300D01*
X3378039Y2403860D01*
X3375920Y2409180D01*
X3373159Y2414200D01*
X3369800Y2418840D01*
X3365880Y2423020D01*
X3361460Y2426680D01*
X3356620Y2429740D01*
X3351440Y2432180D01*
X3345980Y2433960D01*
X3340360Y2435020D01*
X3334640Y2435380D01*
X3328920Y2435020D01*
X3323300Y2433960D01*
X3317840Y2432180D01*
X3312660Y2429740D01*
X3307820Y2426680D01*
X3303399Y2423020D01*
X3299480Y2418840D01*
X3296120Y2414200D01*
X3293360Y2409180D01*
X3291240Y2403860D01*
X3289820Y2398300D01*
X3289100Y2392620D01*
X3289100Y2386900D01*
X3289820Y2381200D01*
X3291240Y2375660D01*
X3293360Y2370340D01*
X3296120Y2365320D01*
X3299480Y2360680D01*
X3303399Y2356500D01*
X3307820Y2352840D01*
X3312660Y2349780D01*
X3317840Y2347340D01*
X3323300Y2345560D01*
X3328920Y2344500D01*
G37*
G36*
X1420640Y2389160D02*
G01*
X1439240Y2389160D01*
X1437740Y2392140D01*
X1434700Y2396560D01*
X1431100Y2400540D01*
X1427000Y2404020D01*
X1422460Y2406900D01*
X1420640Y2407740D01*
G37*
G36*
X1367020Y2389160D02*
G01*
X1385640Y2389160D01*
X1385640Y2407800D01*
X1381519Y2405540D01*
X1377200Y2402340D01*
X1373340Y2398620D01*
X1370020Y2394400D01*
X1367280Y2389780D01*
G37*
G36*
X1401800Y2431480D02*
G01*
X1407180Y2431660D01*
X1412460Y2432560D01*
X1417600Y2434140D01*
X1422460Y2436400D01*
X1427000Y2439300D01*
X1431100Y2442760D01*
X1434700Y2446740D01*
X1437740Y2451180D01*
X1440160Y2455960D01*
X1441920Y2461040D01*
X1442980Y2466300D01*
X1443340Y2471660D01*
X1442980Y2477020D01*
X1441920Y2482280D01*
X1440160Y2487340D01*
X1437740Y2492140D01*
X1434700Y2496560D01*
X1431100Y2500540D01*
X1427000Y2504020D01*
X1422460Y2506900D01*
X1417600Y2509160D01*
X1412460Y2510760D01*
X1407180Y2511640D01*
X1401800Y2511820D01*
X1396459Y2511280D01*
X1391240Y2510040D01*
X1386240Y2508120D01*
X1381519Y2505540D01*
X1377200Y2502340D01*
X1373340Y2498620D01*
X1370020Y2494400D01*
X1367280Y2489780D01*
X1365180Y2484840D01*
X1363760Y2479660D01*
X1363040Y2474340D01*
X1363040Y2468980D01*
X1363760Y2463640D01*
X1365180Y2458480D01*
X1367280Y2453520D01*
X1370020Y2448900D01*
X1373340Y2444700D01*
X1377200Y2440960D01*
X1381519Y2437780D01*
X1386240Y2435200D01*
X1391240Y2433260D01*
X1396459Y2432020D01*
G37*
G36*
X2923500Y2436720D02*
G01*
X2928940Y2437060D01*
X2934280Y2438140D01*
X2939460Y2439880D01*
X2944340Y2442300D01*
X2948880Y2445320D01*
X2952980Y2448920D01*
X2956580Y2453020D01*
X2959540Y2457460D01*
X2960640Y2458580D01*
X2962080Y2459160D01*
X2963660Y2459160D01*
X2965100Y2458580D01*
X2966200Y2457460D01*
X2969160Y2453020D01*
X2972760Y2448920D01*
X2976860Y2445320D01*
X2981400Y2442300D01*
X2986280Y2439880D01*
X2991460Y2438140D01*
X2996800Y2437060D01*
X3002240Y2436720D01*
X3007679Y2437060D01*
X3013020Y2438140D01*
X3018200Y2439880D01*
X3023080Y2442300D01*
X3027620Y2445320D01*
X3031720Y2448920D01*
X3035320Y2453020D01*
X3038279Y2457460D01*
X3039380Y2458580D01*
X3040820Y2459160D01*
X3042400Y2459160D01*
X3043840Y2458580D01*
X3044940Y2457460D01*
X3047900Y2453020D01*
X3051500Y2448920D01*
X3055600Y2445320D01*
X3060140Y2442300D01*
X3065020Y2439880D01*
X3070200Y2438140D01*
X3075539Y2437060D01*
X3080980Y2436720D01*
X3086420Y2437060D01*
X3091760Y2438140D01*
X3096940Y2439880D01*
X3101820Y2442300D01*
X3106360Y2445320D01*
X3110460Y2448920D01*
X3114060Y2453020D01*
X3117080Y2457560D01*
X3119500Y2462440D01*
X3121240Y2467620D01*
X3122320Y2472960D01*
X3122660Y2478400D01*
X3122320Y2483840D01*
X3121240Y2489180D01*
X3119500Y2494360D01*
X3117080Y2499240D01*
X3114060Y2503780D01*
X3110460Y2507880D01*
X3106360Y2511480D01*
X3101820Y2514500D01*
X3098420Y2516180D01*
X3097040Y2517300D01*
X3096280Y2518880D01*
X3096280Y2520660D01*
X3097040Y2522240D01*
X3098420Y2523360D01*
X3101820Y2525040D01*
X3106360Y2528060D01*
X3110460Y2531660D01*
X3114060Y2535760D01*
X3117080Y2540300D01*
X3119500Y2545180D01*
X3121240Y2550360D01*
X3122320Y2555700D01*
X3122660Y2561139D01*
X3122320Y2566580D01*
X3121240Y2571920D01*
X3119500Y2577100D01*
X3117080Y2581980D01*
X3114060Y2586520D01*
X3110460Y2590620D01*
X3106360Y2594220D01*
X3101820Y2597240D01*
X3096940Y2599660D01*
X3091760Y2601400D01*
X3086420Y2602480D01*
X3080980Y2602820D01*
X3075539Y2602480D01*
X3070200Y2601400D01*
X3065020Y2599660D01*
X3060140Y2597240D01*
X3055600Y2594220D01*
X3051500Y2590620D01*
X3047900Y2586520D01*
X3044940Y2582080D01*
X3043840Y2580960D01*
X3042400Y2580360D01*
X3040820Y2580360D01*
X3039380Y2580960D01*
X3038279Y2582080D01*
X3035320Y2586520D01*
X3031720Y2590620D01*
X3027620Y2594220D01*
X3023080Y2597240D01*
X3018200Y2599660D01*
X3013020Y2601400D01*
X3007679Y2602480D01*
X3002240Y2602820D01*
X2996800Y2602480D01*
X2991460Y2601400D01*
X2986280Y2599660D01*
X2981400Y2597240D01*
X2976860Y2594220D01*
X2972760Y2590620D01*
X2969160Y2586520D01*
X2966200Y2582080D01*
X2965100Y2580960D01*
X2963660Y2580360D01*
X2962080Y2580360D01*
X2960640Y2580960D01*
X2959540Y2582080D01*
X2956580Y2586520D01*
X2952980Y2590620D01*
X2948880Y2594220D01*
X2944340Y2597240D01*
X2939460Y2599660D01*
X2934280Y2601400D01*
X2928940Y2602480D01*
X2923500Y2602820D01*
X2918060Y2602480D01*
X2912720Y2601400D01*
X2907540Y2599660D01*
X2902660Y2597240D01*
X2898120Y2594220D01*
X2894020Y2590620D01*
X2890419Y2586520D01*
X2887400Y2581980D01*
X2884980Y2577100D01*
X2883240Y2571920D01*
X2882160Y2566580D01*
X2881820Y2561139D01*
X2882160Y2555700D01*
X2883240Y2550360D01*
X2884980Y2545180D01*
X2887400Y2540300D01*
X2890419Y2535760D01*
X2894020Y2531660D01*
X2898120Y2528060D01*
X2902660Y2525040D01*
X2906060Y2523360D01*
X2907440Y2522240D01*
X2908200Y2520660D01*
X2908200Y2518880D01*
X2907440Y2517300D01*
X2906060Y2516180D01*
X2902660Y2514500D01*
X2898120Y2511480D01*
X2894020Y2507880D01*
X2890419Y2503780D01*
X2887400Y2499240D01*
X2884980Y2494360D01*
X2883240Y2489180D01*
X2882160Y2483840D01*
X2881820Y2478400D01*
X2882160Y2472960D01*
X2883240Y2467620D01*
X2884980Y2462440D01*
X2887400Y2457560D01*
X2890419Y2453020D01*
X2894020Y2448920D01*
X2898120Y2445320D01*
X2902660Y2442300D01*
X2907540Y2439880D01*
X2912720Y2438140D01*
X2918060Y2437060D01*
G37*
G36*
X388260Y2443440D02*
G01*
X413680Y2443440D01*
X413680Y2444760D01*
X413320Y2450600D01*
X412239Y2456240D01*
X410460Y2461680D01*
X408020Y2466860D01*
X404960Y2471700D01*
X401300Y2476120D01*
X397120Y2480040D01*
X392500Y2483400D01*
X388260Y2485740D01*
G37*
G36*
X322420Y2443440D02*
G01*
X347819Y2443440D01*
X347819Y2485740D01*
X343600Y2483400D01*
X338960Y2480040D01*
X334780Y2476120D01*
X331140Y2471700D01*
X328060Y2466860D01*
X325620Y2461680D01*
X323860Y2456240D01*
X322780Y2450600D01*
X322420Y2444760D01*
G37*
G36*
X3299440Y2448560D02*
G01*
X3314420Y2448560D01*
X3314420Y2471760D01*
X3289000Y2471760D01*
X3289000Y2458980D01*
X3289280Y2456500D01*
X3290040Y2454340D01*
X3291259Y2452420D01*
X3292860Y2450800D01*
X3294800Y2449600D01*
X3296940Y2448840D01*
G37*
G36*
X3354860Y2448560D02*
G01*
X3369840Y2448560D01*
X3372340Y2448840D01*
X3374480Y2449600D01*
X3376420Y2450800D01*
X3378020Y2452420D01*
X3379240Y2454340D01*
X3380000Y2456500D01*
X3380280Y2458980D01*
X3380280Y2471760D01*
X3354860Y2471760D01*
G37*
G36*
X510040Y2474040D02*
G01*
X511340Y2474040D01*
X511340Y2499460D01*
X469060Y2499460D01*
X471380Y2495240D01*
X474760Y2490600D01*
X478680Y2486420D01*
X483080Y2482780D01*
X487920Y2479700D01*
X493120Y2477260D01*
X498560Y2475500D01*
X504180Y2474420D01*
G37*
G36*
X595080Y2474040D02*
G01*
X596400Y2474040D01*
X602240Y2474420D01*
X607860Y2475500D01*
X613320Y2477260D01*
X618500Y2479700D01*
X623340Y2482780D01*
X627760Y2486420D01*
X631680Y2490600D01*
X635040Y2495240D01*
X637360Y2499460D01*
X595080Y2499460D01*
G37*
G36*
X3289000Y2507760D02*
G01*
X3314420Y2507760D01*
X3314420Y2530960D01*
X3299440Y2530960D01*
X3296940Y2530680D01*
X3294800Y2529920D01*
X3292860Y2528720D01*
X3291259Y2527100D01*
X3290040Y2525180D01*
X3289280Y2523020D01*
X3289000Y2520540D01*
G37*
G36*
X3354860Y2507760D02*
G01*
X3380280Y2507760D01*
X3380280Y2520540D01*
X3380000Y2523020D01*
X3379240Y2525180D01*
X3378020Y2527100D01*
X3376420Y2528720D01*
X3374480Y2529920D01*
X3372340Y2530680D01*
X3369840Y2530960D01*
X3354860Y2530960D01*
G37*
G36*
X1401800Y2531480D02*
G01*
X1407180Y2531660D01*
X1412460Y2532560D01*
X1417600Y2534140D01*
X1422460Y2536400D01*
X1427000Y2539300D01*
X1431100Y2542760D01*
X1434700Y2546740D01*
X1437840Y2551380D01*
X1438720Y2552560D01*
X1439980Y2553320D01*
X1441420Y2553580D01*
X1454240Y2553600D01*
X1457680Y2554080D01*
X1460840Y2555140D01*
X1463760Y2556760D01*
X1466459Y2559020D01*
X1526000Y2618560D01*
X1527300Y2619420D01*
X1528839Y2619720D01*
X2159240Y2619720D01*
X2160440Y2619520D01*
X2162120Y2618580D01*
X2165640Y2616940D01*
X2169380Y2615940D01*
X2173220Y2615600D01*
X2177080Y2615940D01*
X2180820Y2616940D01*
X2184320Y2618580D01*
X2187480Y2620779D01*
X2190220Y2623519D01*
X2192440Y2626700D01*
X2194080Y2630200D01*
X2195080Y2633940D01*
X2195420Y2637780D01*
X2195160Y2640620D01*
X2195380Y2642280D01*
X2196220Y2643700D01*
X2197600Y2644660D01*
X2199220Y2644980D01*
X2204800Y2643500D01*
X2208660Y2643159D01*
X2212520Y2643500D01*
X2216240Y2644500D01*
X2219760Y2646120D01*
X2222920Y2648340D01*
X2225660Y2651080D01*
X2227880Y2654260D01*
X2229520Y2657760D01*
X2230520Y2661500D01*
X2230840Y2665340D01*
X2230520Y2669200D01*
X2229520Y2672940D01*
X2227880Y2676440D01*
X2225660Y2679620D01*
X2222920Y2682340D01*
X2219760Y2684560D01*
X2216240Y2686200D01*
X2210620Y2687640D01*
X2208880Y2688500D01*
X2205660Y2689400D01*
X2202160Y2689740D01*
X1441399Y2689740D01*
X1439960Y2690000D01*
X1438720Y2690760D01*
X1434700Y2696560D01*
X1431100Y2700539D01*
X1427000Y2704020D01*
X1422460Y2706900D01*
X1417600Y2709160D01*
X1412460Y2710760D01*
X1407180Y2711640D01*
X1401800Y2711820D01*
X1396459Y2711280D01*
X1391240Y2710040D01*
X1386240Y2708120D01*
X1381519Y2705539D01*
X1377200Y2702340D01*
X1373340Y2698620D01*
X1370020Y2694400D01*
X1367280Y2689780D01*
X1365180Y2684840D01*
X1363760Y2679660D01*
X1363040Y2674340D01*
X1363040Y2668980D01*
X1363760Y2663639D01*
X1365180Y2658480D01*
X1367280Y2653519D01*
X1370020Y2648900D01*
X1373340Y2644700D01*
X1377200Y2640960D01*
X1381519Y2637780D01*
X1386240Y2635200D01*
X1391240Y2633260D01*
X1396459Y2632020D01*
X1401800Y2631480D01*
X1407180Y2631660D01*
X1412460Y2632559D01*
X1417600Y2634140D01*
X1422460Y2636400D01*
X1427000Y2639300D01*
X1431100Y2642760D01*
X1434700Y2646740D01*
X1437840Y2651380D01*
X1438720Y2652559D01*
X1439980Y2653320D01*
X1441420Y2653580D01*
X1500260Y2653580D01*
X1501780Y2653279D01*
X1503080Y2652420D01*
X1503959Y2651120D01*
X1504259Y2649580D01*
X1503959Y2648060D01*
X1503080Y2646760D01*
X1447240Y2590899D01*
X1445940Y2590040D01*
X1444400Y2589740D01*
X1441399Y2589740D01*
X1439960Y2590000D01*
X1438720Y2590760D01*
X1434700Y2596560D01*
X1431100Y2600539D01*
X1427000Y2604020D01*
X1422460Y2606900D01*
X1417600Y2609160D01*
X1412460Y2610760D01*
X1407180Y2611640D01*
X1401800Y2611820D01*
X1396459Y2611280D01*
X1391240Y2610040D01*
X1386240Y2608120D01*
X1381519Y2605539D01*
X1377200Y2602340D01*
X1373340Y2598620D01*
X1370020Y2594400D01*
X1367280Y2589780D01*
X1365180Y2584840D01*
X1363760Y2579660D01*
X1363040Y2574340D01*
X1363040Y2568980D01*
X1363760Y2563639D01*
X1365180Y2558480D01*
X1367280Y2553520D01*
X1370020Y2548900D01*
X1373340Y2544700D01*
X1377200Y2540960D01*
X1381519Y2537780D01*
X1386240Y2535200D01*
X1391240Y2533260D01*
X1396459Y2532020D01*
G37*
G36*
X469060Y2539900D02*
G01*
X511340Y2539900D01*
X511340Y2565320D01*
X510040Y2565320D01*
X504180Y2564940D01*
X498560Y2563880D01*
X493120Y2562100D01*
X487920Y2559660D01*
X483080Y2556600D01*
X478680Y2552940D01*
X474760Y2548760D01*
X471380Y2544120D01*
G37*
G36*
X595080Y2539900D02*
G01*
X637360Y2539900D01*
X635040Y2544120D01*
X631680Y2548760D01*
X627760Y2552940D01*
X623340Y2556600D01*
X618500Y2559660D01*
X613320Y2562100D01*
X607860Y2563880D01*
X602240Y2564940D01*
X596400Y2565320D01*
X595080Y2565320D01*
G37*
G36*
X3161420Y2580179D02*
G01*
X3165260Y2580500D01*
X3169000Y2581520D01*
X3172500Y2583140D01*
X3175680Y2585360D01*
X3178399Y2588100D01*
X3180620Y2591259D01*
X3182260Y2594760D01*
X3183260Y2598500D01*
X3183600Y2602360D01*
X3183260Y2606200D01*
X3182260Y2609940D01*
X3180620Y2613440D01*
X3178399Y2616620D01*
X3175680Y2619360D01*
X3172500Y2621560D01*
X3169000Y2623200D01*
X3166160Y2623960D01*
X3165179Y2624360D01*
X3164360Y2625000D01*
X3114680Y2674660D01*
X3111900Y2676760D01*
X3108920Y2678240D01*
X3105720Y2679140D01*
X3102220Y2679480D01*
X2898940Y2679480D01*
X2897420Y2679780D01*
X2896120Y2680640D01*
X2795779Y2780960D01*
X2793000Y2783060D01*
X2790020Y2784540D01*
X2786820Y2785440D01*
X2783320Y2785779D01*
X2341800Y2785760D01*
X2338360Y2785280D01*
X2335200Y2784220D01*
X2332300Y2782600D01*
X2329580Y2780340D01*
X2304180Y2754940D01*
X2303340Y2754300D01*
X2302380Y2753900D01*
X2299500Y2753120D01*
X2295980Y2751500D01*
X2292820Y2749280D01*
X2290080Y2746540D01*
X2287860Y2743380D01*
X2286240Y2739860D01*
X2285240Y2736139D01*
X2284900Y2732280D01*
X2285240Y2728420D01*
X2286240Y2724700D01*
X2287860Y2721180D01*
X2290080Y2718020D01*
X2292820Y2715280D01*
X2295980Y2713060D01*
X2299500Y2711440D01*
X2303220Y2710440D01*
X2307080Y2710100D01*
X2310940Y2710440D01*
X2314660Y2711440D01*
X2318180Y2713060D01*
X2321340Y2715280D01*
X2324080Y2718020D01*
X2326300Y2721180D01*
X2327920Y2724700D01*
X2328700Y2727580D01*
X2329100Y2728560D01*
X2329740Y2729380D01*
X2348820Y2748460D01*
X2350120Y2749320D01*
X2351640Y2749620D01*
X2774360Y2749620D01*
X2775880Y2749320D01*
X2777180Y2748460D01*
X2877520Y2648140D01*
X2880299Y2646040D01*
X2883279Y2644560D01*
X2886480Y2643660D01*
X2889980Y2643320D01*
X3093260Y2643320D01*
X3094780Y2643020D01*
X3096080Y2642160D01*
X3138740Y2599500D01*
X3139380Y2598660D01*
X3139780Y2597700D01*
X3140560Y2594760D01*
X3142200Y2591259D01*
X3144420Y2588100D01*
X3147160Y2585360D01*
X3150320Y2583140D01*
X3153820Y2581520D01*
X3157559Y2580500D01*
G37*
G36*
X3303380Y2604080D02*
G01*
X3310800Y2604080D01*
X3318180Y2604820D01*
X3325440Y2606320D01*
X3332500Y2608540D01*
X3339320Y2611460D01*
X3345800Y2615059D01*
X3351880Y2619300D01*
X3357520Y2624120D01*
X3362620Y2629500D01*
X3367160Y2635360D01*
X3371080Y2641660D01*
X3374340Y2648300D01*
X3376920Y2655260D01*
X3378780Y2662440D01*
X3379900Y2669760D01*
X3380280Y2677160D01*
X3379900Y2684580D01*
X3378780Y2691900D01*
X3376920Y2699080D01*
X3374340Y2706040D01*
X3371080Y2712679D01*
X3367160Y2718980D01*
X3362620Y2724840D01*
X3357520Y2730220D01*
X3351880Y2735040D01*
X3345800Y2739280D01*
X3339320Y2742880D01*
X3332500Y2745800D01*
X3325440Y2748020D01*
X3318180Y2749520D01*
X3310800Y2750260D01*
X3303380Y2750260D01*
X3296000Y2749520D01*
X3288740Y2748020D01*
X3281680Y2745800D01*
X3274860Y2742880D01*
X3268380Y2739280D01*
X3262300Y2735040D01*
X3256660Y2730220D01*
X3251560Y2724840D01*
X3247020Y2718980D01*
X3243100Y2712679D01*
X3239840Y2706040D01*
X3237260Y2699080D01*
X3235400Y2691900D01*
X3234280Y2684580D01*
X3233900Y2677160D01*
X3234280Y2669760D01*
X3235400Y2662440D01*
X3237260Y2655260D01*
X3239840Y2648300D01*
X3243100Y2641660D01*
X3247020Y2635360D01*
X3251560Y2629500D01*
X3256660Y2624120D01*
X3262300Y2619300D01*
X3268380Y2615059D01*
X3274860Y2611460D01*
X3281680Y2608540D01*
X3288740Y2606320D01*
X3296000Y2604820D01*
G37*
G36*
X153780Y2604080D02*
G01*
X161180Y2604080D01*
X168560Y2604820D01*
X175820Y2606320D01*
X182900Y2608540D01*
X189720Y2611460D01*
X196200Y2615059D01*
X202280Y2619300D01*
X207900Y2624120D01*
X213020Y2629500D01*
X217540Y2635360D01*
X221480Y2641660D01*
X224740Y2648300D01*
X227320Y2655260D01*
X229160Y2662440D01*
X230300Y2669760D01*
X230660Y2677160D01*
X230300Y2684580D01*
X229160Y2691900D01*
X227320Y2699080D01*
X224740Y2706040D01*
X221480Y2712679D01*
X217540Y2718980D01*
X213020Y2724840D01*
X207900Y2730220D01*
X202280Y2735040D01*
X196200Y2739280D01*
X189720Y2742880D01*
X182900Y2745800D01*
X175820Y2748020D01*
X168560Y2749520D01*
X161180Y2750260D01*
X153780Y2750260D01*
X146400Y2749520D01*
X139140Y2748020D01*
X132060Y2745800D01*
X125239Y2742880D01*
X118760Y2739280D01*
X112680Y2735040D01*
X107060Y2730220D01*
X101940Y2724840D01*
X97420Y2718980D01*
X93480Y2712679D01*
X90220Y2706040D01*
X87640Y2699080D01*
X85800Y2691900D01*
X84660Y2684580D01*
X84300Y2677160D01*
X84660Y2669760D01*
X85800Y2662440D01*
X87640Y2655260D01*
X90220Y2648300D01*
X93480Y2641660D01*
X97420Y2635360D01*
X101940Y2629500D01*
X107060Y2624120D01*
X112680Y2619300D01*
X118760Y2615059D01*
X125239Y2611460D01*
X132060Y2608540D01*
X139140Y2606320D01*
X146400Y2604820D01*
G37*
G36*
X2923500Y2696620D02*
G01*
X2928940Y2696960D01*
X2934280Y2698039D01*
X2939460Y2699780D01*
X2944340Y2702200D01*
X2948880Y2705220D01*
X2952980Y2708820D01*
X2956580Y2712919D01*
X2959540Y2717360D01*
X2960640Y2718480D01*
X2962080Y2719060D01*
X2963660Y2719060D01*
X2965100Y2718480D01*
X2966200Y2717360D01*
X2969160Y2712919D01*
X2972760Y2708820D01*
X2976860Y2705220D01*
X2981400Y2702200D01*
X2986280Y2699780D01*
X2991460Y2698039D01*
X2996800Y2696960D01*
X3002240Y2696620D01*
X3007679Y2696960D01*
X3013020Y2698039D01*
X3018200Y2699780D01*
X3023080Y2702200D01*
X3027620Y2705220D01*
X3031720Y2708820D01*
X3035320Y2712919D01*
X3038279Y2717360D01*
X3039380Y2718480D01*
X3040820Y2719060D01*
X3042400Y2719060D01*
X3043840Y2718480D01*
X3044940Y2717360D01*
X3047900Y2712919D01*
X3051500Y2708820D01*
X3055600Y2705220D01*
X3060140Y2702200D01*
X3065020Y2699780D01*
X3070200Y2698039D01*
X3075539Y2696960D01*
X3080980Y2696620D01*
X3086420Y2696960D01*
X3091760Y2698039D01*
X3096940Y2699780D01*
X3101820Y2702200D01*
X3106360Y2705220D01*
X3110460Y2708820D01*
X3114060Y2712919D01*
X3117080Y2717460D01*
X3119500Y2722340D01*
X3121240Y2727520D01*
X3122320Y2732860D01*
X3122660Y2738300D01*
X3122320Y2743740D01*
X3121240Y2749080D01*
X3119500Y2754260D01*
X3117080Y2759140D01*
X3114060Y2763680D01*
X3110460Y2767780D01*
X3106360Y2771380D01*
X3101820Y2774400D01*
X3096940Y2776820D01*
X3091760Y2778560D01*
X3086420Y2779640D01*
X3080980Y2779980D01*
X3075539Y2779640D01*
X3070200Y2778560D01*
X3065020Y2776820D01*
X3060140Y2774400D01*
X3055600Y2771380D01*
X3051500Y2767780D01*
X3047900Y2763680D01*
X3044940Y2759240D01*
X3043840Y2758120D01*
X3042400Y2757520D01*
X3040820Y2757520D01*
X3039380Y2758120D01*
X3038279Y2759240D01*
X3035320Y2763680D01*
X3031720Y2767780D01*
X3027620Y2771380D01*
X3023080Y2774400D01*
X3018200Y2776820D01*
X3013020Y2778560D01*
X3007679Y2779640D01*
X3002240Y2779980D01*
X2996800Y2779640D01*
X2991460Y2778560D01*
X2986280Y2776820D01*
X2981400Y2774400D01*
X2976860Y2771380D01*
X2972760Y2767780D01*
X2969160Y2763680D01*
X2966200Y2759240D01*
X2965100Y2758120D01*
X2963660Y2757520D01*
X2962080Y2757520D01*
X2960640Y2758120D01*
X2959540Y2759240D01*
X2956580Y2763680D01*
X2952980Y2767780D01*
X2948880Y2771380D01*
X2944340Y2774400D01*
X2939460Y2776820D01*
X2934280Y2778560D01*
X2928940Y2779640D01*
X2923500Y2779980D01*
X2918060Y2779640D01*
X2912720Y2778560D01*
X2907540Y2776820D01*
X2902660Y2774400D01*
X2898120Y2771380D01*
X2894020Y2767780D01*
X2890419Y2763680D01*
X2887400Y2759140D01*
X2884980Y2754260D01*
X2883240Y2749080D01*
X2882160Y2743740D01*
X2881820Y2738300D01*
X2882160Y2732860D01*
X2883240Y2727520D01*
X2884980Y2722340D01*
X2887400Y2717460D01*
X2890419Y2712919D01*
X2894020Y2708820D01*
X2898120Y2705220D01*
X2902660Y2702200D01*
X2907540Y2699780D01*
X2912720Y2698039D01*
X2918060Y2696960D01*
G37*

%LPD*%
D11*
X3357088Y1980315D02*
G01*
X3357100Y2109070D01*
X3358270Y2110239D01*
X3257088Y1980315D02*
G01*
X3257100Y2107500D01*
X3259840Y2110239D01*
X2314956Y2271649D02*
G01*
X2283459Y2240153D01*
X1366139Y2240153D01*
X1318895Y2287397D01*
X1318895Y2610234D01*
X1299210Y2629920D01*
X1403149Y2571660D02*
G01*
X1453549Y2571660D01*
X1519687Y2637797D01*
X2153531Y2637797D01*
X2153539Y2637790D01*
X1403149Y2671660D02*
G01*
X2202349Y2671660D01*
X2208660Y2665349D01*
X2173220Y2637790D02*
G01*
X2153537Y2637790D01*
X2153530Y2637797D01*
D38*
X3307100Y1980000D02*
G01*
X3307100Y2176999D01*
X3133900Y2350399D01*
X2795298Y2350399D01*
X2606298Y2539398D01*
X2507840Y2539398D01*
X2460630Y2586610D01*
D11*
X2307100Y2732300D02*
G01*
X2342500Y2767700D01*
X2783500Y2767700D01*
X2889799Y2661399D01*
X3102399Y2661399D01*
X3161400Y2602399D01*
D32*
G01*
X3334639Y2289760D03*
G01*
X3334639Y2389760D03*
D33*
G01*
X3334639Y2489760D03*
D34*
G01*
X3080979Y2561140D03*
G01*
X3002240Y2561140D03*
G01*
X2923500Y2561140D03*
G01*
X2923500Y2738299D03*
G01*
X3002240Y2738299D03*
G01*
X3080979Y2738299D03*
G01*
X3080979Y2301239D03*
G01*
X3002240Y2301239D03*
G01*
X2923500Y2301239D03*
G01*
X2923500Y2478400D03*
G01*
X3002240Y2478400D03*
G01*
X3080979Y2478400D03*
D35*
G01*
X1403149Y2371660D03*
G01*
X1403149Y2471660D03*
G01*
X1403149Y2571660D03*
G01*
X1403149Y2671660D03*
D36*
G01*
X3357089Y1980320D03*
D15*
G01*
X2208660Y2665349D03*
G01*
X2173220Y2637790D03*
G01*
X2314960Y2271649D03*
G01*
X1299210Y2629920D03*
G01*
X3259840Y2110239D03*
G01*
X3358270Y2110239D03*
G01*
X3145670Y2248029D03*
G01*
X2055119Y2429130D03*
G01*
X1893699Y2468499D03*
G01*
X1799210Y2787399D03*
G01*
X1897640Y2598429D03*
G01*
X1444880Y2625990D03*
G01*
X1527560Y2716540D03*
G01*
X1625990Y2468499D03*
G01*
X1586610Y2338580D03*
G01*
X2460630Y2586610D03*
G01*
X2307079Y2732280D03*
G01*
X3161409Y2602359D03*
G01*
X2622039Y2311019D03*
G01*
X2688969Y2397629D03*
G01*
X2826769Y2448809D03*
G01*
X2688969Y2559050D03*
G01*
X2653540Y2732280D03*
G01*
X2484250Y2476370D03*
G01*
X2354330Y2515740D03*
G01*
X2397629Y2610230D03*
G01*
X2133879Y2711649D03*
G01*
X2177160Y2358260D03*
G01*
X1287399Y2795270D03*
D32*
X505965Y2283460D02*
G01*
X600453Y2283460D01*
X596516Y2519679D02*
G01*
X509902Y2519679D01*
X368040Y2444886D02*
G01*
X368040Y2358272D01*
D37*
X3257089Y1966540D02*
G01*
X3257089Y1994099D01*
X3307089Y1966540D02*
G01*
X3307089Y1994099D01*
M02*
