G04 Layer: BoardOutlineLayer*
G04 EasyEDA v6.4.32, 2022-03-04 17:10:02*
G04 9e068ee103114b4da440d1e05eba0729,9b295ca1ffa148ecaf4cbe0d9ff7b9be,10*
G04 Gerber Generator version 0.2*
G04 Scale: 100 percent, Rotated: No, Reflected: No *
G04 Dimensions in inches *
G04 leading zeros omitted , absolute positions ,3 integer and 6 decimal *
%FSLAX36Y36*%
%MOIN*%

%ADD10C,0.0100*%
D10*
X299212Y2086615D02*
G01*
X905511Y2086615D01*
X299212Y2212600D02*
G01*
X905511Y2212600D01*
X0Y156999D02*
G01*
X0Y2677166D01*
X3464569Y2677166D02*
G01*
X3465000Y156999D01*
X157478Y2834648D02*
G01*
X3307085Y2834648D01*
X1236221Y2086615D02*
G01*
X3165356Y2086615D01*
X1236221Y2212600D02*
G01*
X3165356Y2212600D01*
X3307087Y0D02*
G01*
X157480Y0D01*
G75*
G01*
X3307086Y2834648D02*
G02*
X3464566Y2677168I0J-157480D01*
G75*
G01*
X3464567Y157480D02*
G02*
X3307087Y0I-157480J0D01*
G75*
G01*
X157480Y0D02*
G02*
X0Y157480I0J157480D01*
G75*
G01*
X-1Y2677168D02*
G02*
X157479Y2834648I157480J0D01*
G75*
G01*
X299213Y2086615D02*
G02*
X236221Y2149607I0J62992D01*
G75*
G01*
X968504Y2149605D02*
G02*
X905512Y2086613I-62992J0D01*
G75*
G01*
X3228347Y2149608D02*
G02*
X3165356Y2086616I-62992J0D01*
G75*
G01*
X1236221Y2086615D02*
G02*
X1173230Y2149607I1J62992D01*
G75*
G01*
X3165356Y2212600D02*
G02*
X3228347Y2149608I-1J-62992D01*
G75*
G01*
X236221Y2149607D02*
G02*
X299213Y2212599I62992J0D01*
G75*
G01*
X1173230Y2149607D02*
G02*
X1236221Y2212599I62992J0D01*
G75*
G01*
X905512Y2212597D02*
G02*
X968504Y2149605I0J-62992D01*

%LPD*%
M02*
