G04 Layer: TopSolderMaskLayer*
G04 EasyEDA v6.4.32, 2022-03-04 17:10:02*
G04 9e068ee103114b4da440d1e05eba0729,9b295ca1ffa148ecaf4cbe0d9ff7b9be,10*
G04 Gerber Generator version 0.2*
G04 Scale: 100 percent, Rotated: No, Reflected: No *
G04 Dimensions in inches *
G04 leading zeros omitted , absolute positions ,3 integer and 6 decimal *
%FSLAX36Y36*%
%MOIN*%

%ADD49C,0.0150*%
%ADD50C,0.0749*%
%ADD51C,0.0394*%
%ADD55C,0.0670*%
%ADD60C,0.0680*%
%ADD64R,0.0394X0.0355*%

%LPD*%
D49*
X2260977Y2508577D02*
G01*
X2218662Y2466262D01*
X2274907Y2494657D02*
G01*
X2232592Y2452343D01*
X2288816Y2480736D02*
G01*
X2246503Y2438422D01*
X2302746Y2466817D02*
G01*
X2260433Y2424502D01*
X2316656Y2452907D02*
G01*
X2274342Y2410592D01*
X2330586Y2438977D02*
G01*
X2288272Y2396662D01*
X2344497Y2425066D02*
G01*
X2302183Y2382752D01*
X2358416Y2411136D02*
G01*
X2316103Y2368823D01*
X2372336Y2397226D02*
G01*
X2330023Y2354913D01*
X2386256Y2383307D02*
G01*
X2343942Y2340992D01*
X2400177Y2369387D02*
G01*
X2357862Y2327073D01*
X2414097Y2355466D02*
G01*
X2371782Y2313153D01*
X2444162Y2355466D02*
G01*
X2486477Y2313153D01*
X2458082Y2369387D02*
G01*
X2500397Y2327073D01*
X2472003Y2383307D02*
G01*
X2514317Y2340992D01*
X2485923Y2397226D02*
G01*
X2528236Y2354913D01*
X2499843Y2411136D02*
G01*
X2542156Y2368823D01*
X2513762Y2425066D02*
G01*
X2556076Y2382752D01*
X2527682Y2438977D02*
G01*
X2569997Y2396662D01*
X2541602Y2452907D02*
G01*
X2583917Y2410592D01*
X2555523Y2466817D02*
G01*
X2597836Y2424502D01*
X2569443Y2480736D02*
G01*
X2611756Y2438422D01*
X2583362Y2494657D02*
G01*
X2625676Y2452343D01*
X2597282Y2508577D02*
G01*
X2639597Y2466262D01*
X2639597Y2580956D02*
G01*
X2597282Y2538643D01*
X2625676Y2594886D02*
G01*
X2583362Y2552573D01*
X2611756Y2608796D02*
G01*
X2569443Y2566482D01*
X2597836Y2622716D02*
G01*
X2555523Y2580403D01*
X2583917Y2636637D02*
G01*
X2541602Y2594322D01*
X2569997Y2650556D02*
G01*
X2527682Y2608243D01*
X2556076Y2664477D02*
G01*
X2513762Y2622163D01*
X2542156Y2678397D02*
G01*
X2499843Y2636082D01*
X2528236Y2692316D02*
G01*
X2485923Y2650003D01*
X2514317Y2706237D02*
G01*
X2472003Y2663923D01*
X2500397Y2720156D02*
G01*
X2458082Y2677842D01*
X2486477Y2734077D02*
G01*
X2444162Y2691763D01*
X2371782Y2734077D02*
G01*
X2414097Y2691763D01*
X2357862Y2720156D02*
G01*
X2400177Y2677842D01*
X2343942Y2706237D02*
G01*
X2386256Y2663923D01*
X2330023Y2692316D02*
G01*
X2372336Y2650003D01*
X2316103Y2678397D02*
G01*
X2358416Y2636082D01*
X2302183Y2664477D02*
G01*
X2344497Y2622163D01*
X2288272Y2650556D02*
G01*
X2330586Y2608243D01*
X2274342Y2636637D02*
G01*
X2316656Y2594322D01*
X2260433Y2622716D02*
G01*
X2302746Y2580403D01*
X2246503Y2608796D02*
G01*
X2288816Y2566482D01*
X2232592Y2594886D02*
G01*
X2274907Y2552573D01*
X2218662Y2580956D02*
G01*
X2260977Y2538643D01*
D50*
X505965Y2283460D02*
G01*
X600453Y2283460D01*
X596516Y2519679D02*
G01*
X509902Y2519679D01*
X368040Y2444886D02*
G01*
X368040Y2358272D01*
D51*
X3257089Y1966540D02*
G01*
X3257089Y1994099D01*
X3307089Y1966540D02*
G01*
X3307089Y1994099D01*
G36*
X2212600Y2711799D02*
G01*
X2212600Y2736999D01*
X2247700Y2736999D01*
X2247700Y2711799D01*
G37*
G36*
X2169600Y2711799D02*
G01*
X2169600Y2736999D01*
X2204799Y2736999D01*
X2204799Y2711799D01*
G37*
G36*
X3150299Y2492100D02*
G01*
X3150299Y2527800D01*
X3188299Y2527800D01*
X3188299Y2492100D01*
G37*
G36*
X3150299Y2432800D02*
G01*
X3150299Y2468499D01*
X3188299Y2468499D01*
X3188299Y2432800D01*
G37*
D50*
G01*
X3334639Y2289760D03*
G01*
X3334639Y2389760D03*
G36*
X3297200Y2456799D02*
G01*
X3297200Y2522800D01*
X3372100Y2522800D01*
X3372100Y2456799D01*
G37*
D55*
G01*
X3080979Y2561140D03*
G01*
X3002240Y2561140D03*
G01*
X2923500Y2561140D03*
G01*
X2923500Y2738299D03*
G01*
X3002240Y2738299D03*
G01*
X3080979Y2738299D03*
G01*
X3080979Y2301239D03*
G01*
X3002240Y2301239D03*
G01*
X2923500Y2301239D03*
G01*
X2923500Y2478400D03*
G01*
X3002240Y2478400D03*
G01*
X3080979Y2478400D03*
G36*
X2232200Y2272300D02*
G01*
X2232200Y2310300D01*
X2268000Y2310300D01*
X2268000Y2272300D01*
G37*
G36*
X2172899Y2272300D02*
G01*
X2172899Y2310300D01*
X2208699Y2310300D01*
X2208699Y2272300D01*
G37*
G36*
X2736899Y2342500D02*
G01*
X2736899Y2378200D01*
X2774899Y2378200D01*
X2774899Y2342500D01*
G37*
G36*
X2736899Y2283200D02*
G01*
X2736899Y2318899D01*
X2774899Y2318899D01*
X2774899Y2283200D01*
G37*
G36*
X2791999Y2621999D02*
G01*
X2791999Y2657800D01*
X2830000Y2657800D01*
X2830000Y2621999D01*
G37*
G36*
X2791999Y2562700D02*
G01*
X2791999Y2598499D01*
X2830000Y2598499D01*
X2830000Y2562700D01*
G37*
G36*
X1581999Y2731300D02*
G01*
X1581999Y2780500D01*
X1623400Y2780500D01*
X1623400Y2731300D01*
G37*
G36*
X1715200Y2731300D02*
G01*
X1715200Y2780500D01*
X1756599Y2780500D01*
X1756599Y2731300D01*
G37*
G36*
X798199Y2341500D02*
G01*
X798199Y2400999D01*
X855299Y2400999D01*
X855299Y2341500D01*
G37*
G36*
X798199Y2260399D02*
G01*
X798199Y2319899D01*
X855299Y2319899D01*
X855299Y2260399D01*
G37*
G36*
X899600Y2387800D02*
G01*
X899600Y2439000D01*
X958699Y2439000D01*
X958699Y2387800D01*
G37*
G36*
X899600Y2253899D02*
G01*
X899600Y2305200D01*
X958699Y2305200D01*
X958699Y2253899D01*
G37*
D60*
G01*
X1403149Y2371660D03*
G01*
X1403149Y2471660D03*
G01*
X1403149Y2571660D03*
G01*
X1403149Y2671660D03*
G36*
X1773500Y2267700D02*
G01*
X1771700Y2267800D01*
X1769799Y2268000D01*
X1768000Y2268200D01*
X1764399Y2269000D01*
X1762600Y2269499D01*
X1760900Y2270100D01*
X1757500Y2271500D01*
X1755799Y2272399D01*
X1754200Y2273299D01*
X1752700Y2274299D01*
X1751099Y2275300D01*
X1749700Y2276399D01*
X1748299Y2277600D01*
X1746899Y2278899D01*
X1745600Y2280200D01*
X1743199Y2283000D01*
X1742200Y2284499D01*
X1741099Y2286100D01*
X1740200Y2287600D01*
X1739300Y2289299D01*
X1738500Y2290900D01*
X1737799Y2292600D01*
X1737200Y2294400D01*
X1736599Y2296100D01*
X1736099Y2297899D01*
X1735500Y2301500D01*
X1735200Y2303400D01*
X1735100Y2305200D01*
X1735100Y2381900D01*
X1735200Y2383699D01*
X1735500Y2385599D01*
X1736099Y2389200D01*
X1736599Y2390999D01*
X1737200Y2392800D01*
X1737799Y2394499D01*
X1738500Y2396199D01*
X1739300Y2397899D01*
X1741099Y2401100D01*
X1742200Y2402600D01*
X1743199Y2404099D01*
X1745600Y2406900D01*
X1746899Y2408200D01*
X1748299Y2409499D01*
X1749700Y2410700D01*
X1751099Y2411799D01*
X1752700Y2412899D01*
X1754200Y2413800D01*
X1755799Y2414800D01*
X1757600Y2415700D01*
X1759499Y2416100D01*
X1759499Y2483299D01*
X1789399Y2483299D01*
X1789399Y2416100D01*
X1791199Y2415700D01*
X1793000Y2414800D01*
X1794700Y2413800D01*
X1796199Y2412899D01*
X1799200Y2410700D01*
X1800600Y2409499D01*
X1803199Y2406900D01*
X1804499Y2405500D01*
X1805600Y2404099D01*
X1806700Y2402600D01*
X1807700Y2401100D01*
X1808699Y2399499D01*
X1809600Y2397899D01*
X1810399Y2396199D01*
X1811099Y2394499D01*
X1811700Y2392800D01*
X1812299Y2390999D01*
X1813100Y2387399D01*
X1813400Y2385599D01*
X1813599Y2383699D01*
X1813800Y2381900D01*
X1813800Y2305200D01*
X1813599Y2303400D01*
X1813400Y2301500D01*
X1813100Y2299699D01*
X1812299Y2296100D01*
X1811700Y2294400D01*
X1811099Y2292600D01*
X1810399Y2290900D01*
X1809600Y2289299D01*
X1808699Y2287600D01*
X1807700Y2286100D01*
X1806700Y2284499D01*
X1805600Y2283000D01*
X1804499Y2281599D01*
X1803199Y2280200D01*
X1800600Y2277600D01*
X1799200Y2276399D01*
X1797700Y2275300D01*
X1794700Y2273299D01*
X1793000Y2272399D01*
X1791400Y2271500D01*
X1788000Y2270100D01*
X1786300Y2269499D01*
X1784499Y2269000D01*
X1780900Y2268200D01*
X1778999Y2268000D01*
X1777200Y2267800D01*
X1775399Y2267700D01*
G37*
G36*
X1700500Y2417300D02*
G01*
X1700500Y2483400D01*
X1731000Y2483400D01*
X1731000Y2417300D01*
G37*
G36*
X1818599Y2417300D02*
G01*
X1818599Y2483400D01*
X1849099Y2483400D01*
X1849099Y2417300D01*
G37*
G36*
X1704499Y2518000D02*
G01*
X1704499Y2575100D01*
X1763999Y2575100D01*
X1763999Y2518000D01*
G37*
G36*
X1785600Y2518000D02*
G01*
X1785600Y2575100D01*
X1845100Y2575100D01*
X1845100Y2518000D01*
G37*
G36*
X1784600Y2613499D02*
G01*
X1784600Y2652899D01*
X1820100Y2652899D01*
X1820100Y2613499D01*
G37*
G36*
X1729499Y2613499D02*
G01*
X1729499Y2652899D01*
X1765000Y2652899D01*
X1765000Y2613499D01*
G37*
G36*
X1906800Y2282600D02*
G01*
X1906800Y2342199D01*
X1963999Y2342199D01*
X1963999Y2282600D01*
G37*
G36*
X1906800Y2363699D02*
G01*
X1906800Y2423299D01*
X1963999Y2423299D01*
X1963999Y2363699D01*
G37*
D64*
G01*
X2022010Y2364760D03*
G01*
X2022010Y2309650D03*
G36*
X3284700Y2150300D02*
G01*
X3284700Y2189699D01*
X3320200Y2189699D01*
X3320200Y2150300D01*
G37*
G36*
X3339799Y2150300D02*
G01*
X3339799Y2189699D01*
X3375299Y2189699D01*
X3375299Y2150300D01*
G37*
G36*
X2548299Y2282399D02*
G01*
X2530399Y2300200D01*
X2555200Y2325100D01*
X2573100Y2307199D01*
G37*
G36*
X2578599Y2312700D02*
G01*
X2560799Y2330599D01*
X2585600Y2355399D01*
X2603400Y2337500D01*
G37*
G36*
X2680299Y2283800D02*
G01*
X2680299Y2318899D01*
X2705500Y2318899D01*
X2705500Y2283800D01*
G37*
G36*
X2680299Y2326700D02*
G01*
X2680299Y2361799D01*
X2705500Y2361799D01*
X2705500Y2326700D01*
G37*
G36*
X2735399Y2563400D02*
G01*
X2735399Y2598499D01*
X2760699Y2598499D01*
X2760699Y2563400D01*
G37*
G36*
X2735399Y2606300D02*
G01*
X2735399Y2641399D01*
X2760699Y2641399D01*
X2760699Y2606300D01*
G37*
G36*
X2640699Y2628800D02*
G01*
X2615900Y2653699D01*
X2633699Y2671500D01*
X2658599Y2646700D01*
G37*
G36*
X2610299Y2659200D02*
G01*
X2585500Y2684000D01*
X2603400Y2701900D01*
X2628199Y2676999D01*
G37*
G36*
X2054300Y2761100D02*
G01*
X2054300Y2796599D01*
X2093699Y2796599D01*
X2093699Y2761100D01*
G37*
G36*
X2054300Y2705999D02*
G01*
X2054300Y2741500D01*
X2093699Y2741500D01*
X2093699Y2705999D01*
G37*
G36*
X1198400Y2617100D02*
G01*
X1198400Y2739200D01*
X1265399Y2739200D01*
X1265399Y2617100D01*
G37*
G36*
X1018100Y2617100D02*
G01*
X1018100Y2739200D01*
X1085100Y2739200D01*
X1085100Y2617100D01*
G37*
G36*
X1025600Y2284499D02*
G01*
X1025600Y2532500D01*
X1257899Y2532500D01*
X1257899Y2284499D01*
G37*
G36*
X1863800Y2757199D02*
G01*
X1863800Y2805700D01*
X1921999Y2805700D01*
X1921999Y2757199D01*
G37*
G36*
X1863800Y2681100D02*
G01*
X1863800Y2729699D01*
X1921999Y2729699D01*
X1921999Y2681100D01*
G37*
G36*
X1958299Y2757199D02*
G01*
X1958299Y2805700D01*
X2016499Y2805700D01*
X2016499Y2757199D01*
G37*
G36*
X1958299Y2681100D02*
G01*
X1958299Y2729699D01*
X2016499Y2729699D01*
X2016499Y2681100D01*
G37*
G36*
X3337399Y1946799D02*
G01*
X3337399Y2013800D01*
X3376800Y2013800D01*
X3376800Y1946799D01*
G37*
G36*
X885799Y2521599D02*
G01*
X885799Y2557100D01*
X925200Y2557100D01*
X925200Y2521599D01*
G37*
G36*
X885799Y2576700D02*
G01*
X885799Y2612199D01*
X925200Y2612199D01*
X925200Y2576700D01*
G37*
G36*
X139699Y2186199D02*
G01*
X139699Y2328000D01*
X190999Y2328000D01*
X190999Y2186199D01*
G37*
G36*
X139699Y2396399D02*
G01*
X139699Y2538200D01*
X190999Y2538200D01*
X190999Y2396399D01*
G37*
G36*
X805100Y2499000D02*
G01*
X805100Y2514800D01*
X832700Y2514800D01*
X832700Y2499000D01*
G37*
G36*
X805100Y2524600D02*
G01*
X805100Y2540399D01*
X832700Y2540399D01*
X832700Y2524600D01*
G37*
M02*
