G04 Layer: TopLayer*
G04 EasyEDA v6.4.32, 2022-03-04 17:10:02*
G04 9e068ee103114b4da440d1e05eba0729,9b295ca1ffa148ecaf4cbe0d9ff7b9be,10*
G04 Gerber Generator version 0.2*
G04 Scale: 100 percent, Rotated: No, Reflected: No *
G04 Dimensions in inches *
G04 leading zeros omitted , absolute positions ,3 integer and 6 decimal *
%FSLAX36Y36*%
%MOIN*%

%ADD11C,0.0157*%
%ADD12C,0.0394*%
%ADD13C,0.0551*%
%ADD14C,0.0110*%
%ADD15C,0.0240*%
%ADD17R,0.0340X0.0318*%
%ADD19R,0.0374X0.0453*%
%ADD20R,0.0532X0.0555*%
%ADD21R,0.0551X0.0472*%
%ADD22R,0.0265X0.0620*%
%ADD24R,0.0315X0.0354*%
%ADD25R,0.0354X0.0315*%
%ADD26R,0.0213X0.0311*%
%ADD27R,0.0630X0.1181*%
%ADD28R,0.2283X0.2441*%
%ADD29R,0.0542X0.0446*%
%ADD30R,0.0472X0.1378*%
%ADD31R,0.0236X0.0118*%
%ADD32C,0.0709*%
%ADD33R,0.0709X0.0620*%
%ADD34C,0.0630*%
%ADD35C,0.0600*%
%ADD36R,0.0354X0.0630*%
%ADD37C,0.0354*%

%LPD*%
G36*
X2439400Y2551140D02*
G01*
X2437860Y2551440D01*
X2436560Y2552320D01*
X2369540Y2619340D01*
X2368720Y2620539D01*
X2368380Y2621980D01*
X2368580Y2623420D01*
X2369280Y2624700D01*
X2371460Y2627380D01*
X2372920Y2630080D01*
X2373560Y2632200D01*
X2374140Y2633360D01*
X2375060Y2634280D01*
X2376220Y2634860D01*
X2378340Y2635500D01*
X2381060Y2636960D01*
X2383720Y2639160D01*
X2385000Y2639860D01*
X2386460Y2640059D01*
X2387880Y2639720D01*
X2389100Y2638880D01*
X2437360Y2590620D01*
X2438280Y2589160D01*
X2438520Y2587440D01*
X2438440Y2586600D01*
X2438780Y2582760D01*
X2439780Y2579020D01*
X2441420Y2575520D01*
X2443640Y2572340D01*
X2446360Y2569620D01*
X2449540Y2567400D01*
X2453040Y2565760D01*
X2456780Y2564760D01*
X2460620Y2564420D01*
X2464480Y2564760D01*
X2468220Y2565760D01*
X2471720Y2567400D01*
X2474880Y2569620D01*
X2477620Y2572340D01*
X2479840Y2575520D01*
X2481480Y2579020D01*
X2482480Y2582760D01*
X2482800Y2586600D01*
X2482480Y2590460D01*
X2481480Y2594200D01*
X2479840Y2597700D01*
X2477620Y2600860D01*
X2474880Y2603600D01*
X2471720Y2605820D01*
X2468220Y2607460D01*
X2464820Y2608360D01*
X2463840Y2608759D01*
X2463020Y2609400D01*
X2411320Y2661100D01*
X2410480Y2662320D01*
X2410140Y2663740D01*
X2410340Y2665200D01*
X2411040Y2666480D01*
X2413220Y2669120D01*
X2414680Y2671840D01*
X2415320Y2673960D01*
X2415900Y2675120D01*
X2416820Y2676040D01*
X2417980Y2676620D01*
X2420100Y2677260D01*
X2422820Y2678720D01*
X2425200Y2680680D01*
X2426040Y2681700D01*
X2427420Y2682780D01*
X2429120Y2683159D01*
X2430840Y2682780D01*
X2432220Y2681700D01*
X2433060Y2680680D01*
X2435440Y2678720D01*
X2438160Y2677260D01*
X2440280Y2676620D01*
X2441440Y2676040D01*
X2442360Y2675120D01*
X2442940Y2673960D01*
X2443580Y2671840D01*
X2445040Y2669120D01*
X2446980Y2666740D01*
X2449360Y2664800D01*
X2452080Y2663340D01*
X2454200Y2662700D01*
X2455360Y2662120D01*
X2456280Y2661200D01*
X2456860Y2660040D01*
X2457500Y2657919D01*
X2458960Y2655200D01*
X2460900Y2652840D01*
X2463280Y2650880D01*
X2466000Y2649420D01*
X2468120Y2648780D01*
X2469280Y2648220D01*
X2470200Y2647280D01*
X2470780Y2646120D01*
X2471420Y2644000D01*
X2472880Y2641280D01*
X2474820Y2638900D01*
X2477200Y2636960D01*
X2479920Y2635500D01*
X2482040Y2634860D01*
X2483200Y2634280D01*
X2484120Y2633360D01*
X2484700Y2632200D01*
X2485340Y2630080D01*
X2486800Y2627380D01*
X2488740Y2625000D01*
X2491120Y2623039D01*
X2493840Y2621600D01*
X2495960Y2620940D01*
X2497120Y2620380D01*
X2498040Y2619440D01*
X2498620Y2618279D01*
X2499260Y2616160D01*
X2500720Y2613440D01*
X2502660Y2611060D01*
X2505040Y2609120D01*
X2507760Y2607660D01*
X2509880Y2607020D01*
X2511040Y2606440D01*
X2511960Y2605520D01*
X2512540Y2604360D01*
X2513180Y2602240D01*
X2514620Y2599540D01*
X2516580Y2597160D01*
X2518960Y2595200D01*
X2521680Y2593759D01*
X2523800Y2593100D01*
X2524960Y2592540D01*
X2525880Y2591620D01*
X2526460Y2590440D01*
X2527100Y2588320D01*
X2527480Y2587640D01*
X2533060Y2593220D01*
X2534020Y2593920D01*
X2536400Y2595200D01*
X2538700Y2597100D01*
X2540240Y2597880D01*
X2541960Y2597940D01*
X2543560Y2597260D01*
X2544720Y2595980D01*
X2545220Y2594340D01*
X2545000Y2592640D01*
X2544080Y2591180D01*
X2505200Y2552320D01*
X2503900Y2551440D01*
X2502380Y2551140D01*
G37*

%LPD*%
G36*
X2471980Y2379720D02*
G01*
X2470280Y2379940D01*
X2468820Y2380880D01*
X2448120Y2401580D01*
X2447240Y2402880D01*
X2446940Y2404400D01*
X2446940Y2515720D01*
X2447240Y2517240D01*
X2448120Y2518540D01*
X2449420Y2519420D01*
X2450940Y2519720D01*
X2510340Y2519720D01*
X2513600Y2520040D01*
X2516540Y2520920D01*
X2519260Y2522380D01*
X2521800Y2524460D01*
X2552700Y2555360D01*
X2553900Y2556180D01*
X2555320Y2556520D01*
X2556780Y2556320D01*
X2558060Y2555620D01*
X2560720Y2553440D01*
X2563440Y2552000D01*
X2565539Y2551340D01*
X2566720Y2550780D01*
X2567640Y2549860D01*
X2568220Y2548680D01*
X2568860Y2546560D01*
X2570299Y2543860D01*
X2572260Y2541480D01*
X2574640Y2539520D01*
X2577360Y2538080D01*
X2579480Y2537440D01*
X2580640Y2536860D01*
X2581560Y2535940D01*
X2582140Y2534760D01*
X2582780Y2532640D01*
X2584240Y2529940D01*
X2586180Y2527560D01*
X2587220Y2526700D01*
X2588279Y2525320D01*
X2588680Y2523620D01*
X2588279Y2521900D01*
X2587220Y2520520D01*
X2586180Y2519680D01*
X2584240Y2517300D01*
X2582780Y2514580D01*
X2582140Y2512460D01*
X2581560Y2511300D01*
X2580640Y2510380D01*
X2579480Y2509800D01*
X2577360Y2509160D01*
X2574640Y2507700D01*
X2572260Y2505760D01*
X2570299Y2503380D01*
X2568860Y2500660D01*
X2568220Y2498560D01*
X2567640Y2497380D01*
X2566720Y2496460D01*
X2565539Y2495880D01*
X2563440Y2495240D01*
X2560720Y2493800D01*
X2558340Y2491840D01*
X2556400Y2489460D01*
X2554940Y2486760D01*
X2554300Y2484640D01*
X2553720Y2483460D01*
X2552800Y2482540D01*
X2551640Y2481960D01*
X2549520Y2481320D01*
X2546800Y2479880D01*
X2544420Y2477920D01*
X2542460Y2475540D01*
X2541020Y2472820D01*
X2540380Y2470720D01*
X2539800Y2469540D01*
X2538880Y2468620D01*
X2537720Y2468040D01*
X2535600Y2467400D01*
X2532880Y2465960D01*
X2530500Y2464000D01*
X2528560Y2461620D01*
X2527100Y2458920D01*
X2526460Y2456800D01*
X2525880Y2455620D01*
X2524960Y2454700D01*
X2523800Y2454120D01*
X2521680Y2453480D01*
X2518960Y2452040D01*
X2516580Y2450080D01*
X2514620Y2447700D01*
X2513180Y2444980D01*
X2512540Y2442880D01*
X2511960Y2441700D01*
X2511040Y2440780D01*
X2509880Y2440200D01*
X2507760Y2439560D01*
X2505040Y2438120D01*
X2502660Y2436160D01*
X2500720Y2433780D01*
X2499260Y2431080D01*
X2498620Y2428960D01*
X2498040Y2427780D01*
X2497120Y2426860D01*
X2495960Y2426280D01*
X2493840Y2425640D01*
X2491120Y2424200D01*
X2488740Y2422240D01*
X2486800Y2419860D01*
X2485340Y2417160D01*
X2484700Y2415040D01*
X2484120Y2413860D01*
X2483200Y2412940D01*
X2482040Y2412360D01*
X2479920Y2411720D01*
X2477200Y2410280D01*
X2474820Y2408320D01*
X2472880Y2405940D01*
X2471420Y2403240D01*
X2470780Y2401120D01*
X2470200Y2399940D01*
X2469280Y2399020D01*
X2468120Y2398440D01*
X2466000Y2397800D01*
X2465300Y2397440D01*
X2470900Y2391840D01*
X2471600Y2390900D01*
X2472880Y2388520D01*
X2474740Y2386240D01*
X2475520Y2384700D01*
X2475580Y2382980D01*
X2474900Y2381400D01*
X2473620Y2380240D01*
G37*

%LPD*%
G36*
X2429120Y2364080D02*
G01*
X2427420Y2364460D01*
X2426040Y2365540D01*
X2425200Y2366560D01*
X2422820Y2368520D01*
X2420100Y2369960D01*
X2417980Y2370600D01*
X2416820Y2371180D01*
X2415900Y2372100D01*
X2415320Y2373280D01*
X2414680Y2375400D01*
X2413220Y2378100D01*
X2411260Y2380480D01*
X2408900Y2382440D01*
X2406180Y2383880D01*
X2404060Y2384520D01*
X2402900Y2385100D01*
X2401980Y2386020D01*
X2401400Y2387200D01*
X2400760Y2389320D01*
X2399300Y2392020D01*
X2397360Y2394400D01*
X2394980Y2396360D01*
X2392260Y2397800D01*
X2390140Y2398440D01*
X2388980Y2399020D01*
X2388060Y2399940D01*
X2387480Y2401120D01*
X2386840Y2403240D01*
X2385380Y2405940D01*
X2383440Y2408320D01*
X2381060Y2410280D01*
X2378340Y2411720D01*
X2376220Y2412360D01*
X2375060Y2412940D01*
X2374140Y2413860D01*
X2373560Y2415040D01*
X2372920Y2417160D01*
X2371460Y2419860D01*
X2369520Y2422240D01*
X2367140Y2424200D01*
X2364420Y2425640D01*
X2362300Y2426280D01*
X2361140Y2426860D01*
X2360220Y2427780D01*
X2359640Y2428960D01*
X2359000Y2431080D01*
X2357540Y2433780D01*
X2355600Y2436160D01*
X2353220Y2438120D01*
X2350500Y2439560D01*
X2348380Y2440200D01*
X2347220Y2440780D01*
X2346300Y2441700D01*
X2345720Y2442880D01*
X2345080Y2444980D01*
X2343620Y2447700D01*
X2341680Y2450080D01*
X2339300Y2452040D01*
X2336580Y2453480D01*
X2334460Y2454120D01*
X2333300Y2454700D01*
X2332380Y2455620D01*
X2331800Y2456800D01*
X2331160Y2458920D01*
X2329700Y2461620D01*
X2327760Y2464000D01*
X2325380Y2465960D01*
X2322660Y2467400D01*
X2320540Y2468040D01*
X2319380Y2468620D01*
X2318460Y2469540D01*
X2317880Y2470720D01*
X2317240Y2472820D01*
X2315780Y2475540D01*
X2313840Y2477920D01*
X2311460Y2479880D01*
X2308740Y2481320D01*
X2306620Y2481960D01*
X2305460Y2482540D01*
X2304540Y2483460D01*
X2303960Y2484640D01*
X2303320Y2486760D01*
X2301860Y2489460D01*
X2299920Y2491840D01*
X2297540Y2493800D01*
X2294820Y2495240D01*
X2292700Y2495880D01*
X2291540Y2496460D01*
X2290620Y2497380D01*
X2290040Y2498560D01*
X2289400Y2500660D01*
X2287960Y2503380D01*
X2286000Y2505760D01*
X2283620Y2507700D01*
X2280900Y2509160D01*
X2278780Y2509800D01*
X2277620Y2510380D01*
X2276700Y2511300D01*
X2276120Y2512460D01*
X2275480Y2514580D01*
X2274020Y2517300D01*
X2272080Y2519680D01*
X2271040Y2520520D01*
X2269960Y2521900D01*
X2269580Y2523620D01*
X2269960Y2525320D01*
X2271040Y2526700D01*
X2272080Y2527560D01*
X2274020Y2529940D01*
X2275480Y2532640D01*
X2276120Y2534760D01*
X2276700Y2535940D01*
X2277620Y2536860D01*
X2278780Y2537440D01*
X2280900Y2538080D01*
X2283620Y2539520D01*
X2286000Y2541480D01*
X2287960Y2543860D01*
X2289400Y2546560D01*
X2290040Y2548680D01*
X2290620Y2549860D01*
X2291540Y2550780D01*
X2292700Y2551340D01*
X2294820Y2552000D01*
X2297540Y2553440D01*
X2299920Y2555400D01*
X2301860Y2557780D01*
X2303320Y2560480D01*
X2303960Y2562600D01*
X2304540Y2563780D01*
X2305460Y2564700D01*
X2306620Y2565260D01*
X2308740Y2565920D01*
X2311460Y2567360D01*
X2313840Y2569320D01*
X2315780Y2571700D01*
X2317240Y2574400D01*
X2317880Y2576520D01*
X2318460Y2577679D01*
X2319380Y2578620D01*
X2320540Y2579180D01*
X2322660Y2579820D01*
X2325380Y2581280D01*
X2327760Y2583240D01*
X2329700Y2585600D01*
X2331160Y2588320D01*
X2331800Y2590440D01*
X2332380Y2591620D01*
X2333300Y2592540D01*
X2334460Y2593100D01*
X2336580Y2593759D01*
X2337280Y2594120D01*
X2331680Y2599720D01*
X2330980Y2600659D01*
X2329700Y2603039D01*
X2327860Y2605299D01*
X2327080Y2606840D01*
X2327020Y2608560D01*
X2327700Y2610140D01*
X2328960Y2611300D01*
X2330620Y2611820D01*
X2332320Y2611580D01*
X2333780Y2610659D01*
X2414340Y2530100D01*
X2415220Y2528800D01*
X2415520Y2527260D01*
X2415520Y2396440D01*
X2415840Y2393180D01*
X2416740Y2390240D01*
X2418180Y2387520D01*
X2420260Y2384980D01*
X2433040Y2372220D01*
X2433860Y2371000D01*
X2434200Y2369580D01*
X2434000Y2368140D01*
X2433300Y2366840D01*
X2432220Y2365540D01*
X2430840Y2364460D01*
G37*

%LPD*%
G36*
X2785680Y2319120D02*
G01*
X2784360Y2319340D01*
X2783180Y2320000D01*
X2782280Y2321000D01*
X2780860Y2323260D01*
X2779260Y2324880D01*
X2777320Y2326080D01*
X2774940Y2326920D01*
X2773540Y2327760D01*
X2772580Y2329100D01*
X2772260Y2330700D01*
X2772580Y2332300D01*
X2773540Y2333640D01*
X2774940Y2334480D01*
X2777320Y2335320D01*
X2779260Y2336520D01*
X2780860Y2338140D01*
X2782080Y2340060D01*
X2782820Y2342220D01*
X2783100Y2344700D01*
X2783100Y2349920D01*
X2766900Y2349920D01*
X2766900Y2331120D01*
X2766600Y2329580D01*
X2765740Y2328300D01*
X2764440Y2327420D01*
X2762900Y2327120D01*
X2748900Y2327120D01*
X2747360Y2327420D01*
X2746060Y2328300D01*
X2745200Y2329580D01*
X2744900Y2331120D01*
X2744900Y2349920D01*
X2728700Y2349920D01*
X2728700Y2344700D01*
X2728980Y2342220D01*
X2729720Y2340060D01*
X2730940Y2338140D01*
X2732540Y2336520D01*
X2734480Y2335320D01*
X2736860Y2334480D01*
X2738260Y2333640D01*
X2739220Y2332300D01*
X2739540Y2330700D01*
X2739220Y2329100D01*
X2738260Y2327760D01*
X2736860Y2326920D01*
X2734480Y2326080D01*
X2732540Y2324880D01*
X2730940Y2323260D01*
X2729600Y2321140D01*
X2728720Y2320140D01*
X2727520Y2319500D01*
X2726200Y2319280D01*
X2716580Y2319320D01*
X2715100Y2319620D01*
X2713820Y2320440D01*
X2712960Y2321680D01*
X2712600Y2323160D01*
X2712820Y2324640D01*
X2713460Y2326480D01*
X2713740Y2328960D01*
X2713740Y2334020D01*
X2700740Y2334020D01*
X2700740Y2331120D01*
X2700419Y2329600D01*
X2699560Y2328300D01*
X2698260Y2327440D01*
X2696740Y2327120D01*
X2689100Y2327120D01*
X2687559Y2327440D01*
X2686280Y2328300D01*
X2685400Y2329600D01*
X2685100Y2331120D01*
X2685100Y2334020D01*
X2669320Y2334020D01*
X2667780Y2334320D01*
X2666480Y2335200D01*
X2665620Y2336480D01*
X2665320Y2338020D01*
X2665320Y2344720D01*
X2665000Y2347980D01*
X2664500Y2349960D01*
X2664100Y2350920D01*
X2662640Y2353620D01*
X2660580Y2356160D01*
X2629820Y2386900D01*
X2628960Y2388200D01*
X2628660Y2389740D01*
X2628960Y2391260D01*
X2629820Y2392560D01*
X2631120Y2393420D01*
X2632660Y2393740D01*
X2637600Y2393740D01*
X2640860Y2394060D01*
X2643800Y2394940D01*
X2646500Y2396400D01*
X2649040Y2398480D01*
X2759040Y2508460D01*
X2761100Y2511000D01*
X2762559Y2513700D01*
X2763460Y2516660D01*
X2763780Y2519920D01*
X2763780Y2554480D01*
X2764080Y2556000D01*
X2764940Y2557300D01*
X2766640Y2559000D01*
X2767880Y2560960D01*
X2768759Y2561960D01*
X2769940Y2562620D01*
X2771259Y2562840D01*
X2781120Y2562840D01*
X2782660Y2562520D01*
X2783980Y2561620D01*
X2786060Y2558360D01*
X2787660Y2556740D01*
X2789600Y2555540D01*
X2791740Y2554780D01*
X2794240Y2554500D01*
X2827799Y2554500D01*
X2830299Y2554780D01*
X2832440Y2555540D01*
X2834360Y2556740D01*
X2835980Y2558360D01*
X2838060Y2561620D01*
X2839360Y2562520D01*
X2840920Y2562840D01*
X2877960Y2562840D01*
X2879420Y2562559D01*
X2880680Y2561760D01*
X2881580Y2560539D01*
X2881940Y2559100D01*
X2882160Y2555700D01*
X2883240Y2550360D01*
X2884980Y2545180D01*
X2887400Y2540300D01*
X2890419Y2535760D01*
X2894020Y2531660D01*
X2898120Y2528060D01*
X2902660Y2525040D01*
X2906060Y2523360D01*
X2907440Y2522240D01*
X2908200Y2520660D01*
X2908200Y2518880D01*
X2907440Y2517300D01*
X2906060Y2516180D01*
X2902660Y2514500D01*
X2898120Y2511480D01*
X2894020Y2507880D01*
X2890419Y2503780D01*
X2887400Y2499240D01*
X2884980Y2494360D01*
X2883240Y2489180D01*
X2882160Y2483840D01*
X2881820Y2478400D01*
X2882160Y2472960D01*
X2883240Y2467620D01*
X2884980Y2462440D01*
X2887400Y2457560D01*
X2890419Y2453020D01*
X2894020Y2448920D01*
X2898120Y2445320D01*
X2904300Y2441180D01*
X2905080Y2439940D01*
X2905340Y2438480D01*
X2905340Y2341160D01*
X2905080Y2339700D01*
X2904300Y2338460D01*
X2898120Y2334320D01*
X2894020Y2330720D01*
X2890419Y2326620D01*
X2887400Y2322080D01*
X2887040Y2321360D01*
X2886160Y2320180D01*
X2884900Y2319400D01*
X2883460Y2319120D01*
G37*

%LPC*%
G36*
X2672080Y2354580D02*
G01*
X2685100Y2354580D01*
X2685100Y2370040D01*
X2682500Y2370040D01*
X2680020Y2369760D01*
X2677880Y2369020D01*
X2675940Y2367800D01*
X2674340Y2366200D01*
X2673120Y2364260D01*
X2672360Y2362120D01*
X2672080Y2359620D01*
G37*
G36*
X2700740Y2354580D02*
G01*
X2713740Y2354580D01*
X2713740Y2359620D01*
X2713460Y2362120D01*
X2712720Y2364260D01*
X2711500Y2366200D01*
X2709880Y2367800D01*
X2707960Y2369020D01*
X2705800Y2369760D01*
X2703320Y2370040D01*
X2700740Y2370040D01*
G37*
G36*
X2766900Y2370800D02*
G01*
X2783100Y2370800D01*
X2783100Y2376000D01*
X2782820Y2378500D01*
X2782080Y2380640D01*
X2780860Y2382580D01*
X2779260Y2384180D01*
X2777320Y2385400D01*
X2775179Y2386160D01*
X2772679Y2386440D01*
X2766900Y2386440D01*
G37*
G36*
X2728700Y2370800D02*
G01*
X2744900Y2370800D01*
X2744900Y2386440D01*
X2739120Y2386440D01*
X2736620Y2386160D01*
X2734480Y2385400D01*
X2732540Y2384180D01*
X2730940Y2382580D01*
X2729720Y2380640D01*
X2728980Y2378500D01*
X2728700Y2376000D01*
G37*

%LPD*%
G36*
X2573820Y2254280D02*
G01*
X2572300Y2254580D01*
X2571000Y2255440D01*
X2570140Y2256740D01*
X2569820Y2258280D01*
X2569820Y2290680D01*
X2570140Y2292220D01*
X2571000Y2293520D01*
X2577320Y2299820D01*
X2578880Y2301780D01*
X2579940Y2304000D01*
X2580720Y2305100D01*
X2581820Y2305880D01*
X2584040Y2306940D01*
X2585980Y2308500D01*
X2589560Y2312080D01*
X2580360Y2321280D01*
X2578320Y2319240D01*
X2577020Y2318360D01*
X2575480Y2318060D01*
X2573960Y2318360D01*
X2572660Y2319240D01*
X2567260Y2324620D01*
X2566400Y2325920D01*
X2566100Y2327460D01*
X2566400Y2328980D01*
X2567260Y2330280D01*
X2569300Y2332320D01*
X2560100Y2341520D01*
X2556540Y2337960D01*
X2554960Y2336000D01*
X2553900Y2333780D01*
X2553120Y2332700D01*
X2552040Y2331920D01*
X2549820Y2330840D01*
X2547860Y2329280D01*
X2539180Y2320600D01*
X2537880Y2319740D01*
X2536340Y2319420D01*
X2531920Y2319420D01*
X2530380Y2319740D01*
X2529100Y2320600D01*
X2511900Y2337800D01*
X2510980Y2339260D01*
X2510740Y2340960D01*
X2511260Y2342600D01*
X2512420Y2343880D01*
X2514000Y2344560D01*
X2515720Y2344500D01*
X2517260Y2343720D01*
X2519520Y2341860D01*
X2521900Y2340600D01*
X2522840Y2339900D01*
X2528440Y2334300D01*
X2528820Y2334980D01*
X2529460Y2337100D01*
X2530040Y2338280D01*
X2530960Y2339200D01*
X2532120Y2339780D01*
X2534240Y2340420D01*
X2536960Y2341860D01*
X2539340Y2343820D01*
X2541280Y2346200D01*
X2542740Y2348900D01*
X2543380Y2351020D01*
X2543960Y2352200D01*
X2544880Y2353120D01*
X2546040Y2353700D01*
X2548160Y2354340D01*
X2550880Y2355780D01*
X2553240Y2357740D01*
X2555200Y2360120D01*
X2556660Y2362820D01*
X2557300Y2364940D01*
X2557880Y2366120D01*
X2558800Y2367040D01*
X2559960Y2367620D01*
X2562080Y2368260D01*
X2564800Y2369700D01*
X2567180Y2371660D01*
X2569120Y2374040D01*
X2570580Y2376740D01*
X2571220Y2378860D01*
X2571800Y2380040D01*
X2572720Y2380960D01*
X2573880Y2381520D01*
X2576000Y2382180D01*
X2578720Y2383620D01*
X2581380Y2385800D01*
X2582660Y2386520D01*
X2584120Y2386720D01*
X2585539Y2386380D01*
X2586740Y2385540D01*
X2632720Y2339580D01*
X2633580Y2338280D01*
X2633880Y2336740D01*
X2633880Y2319080D01*
X2634200Y2315840D01*
X2635100Y2312880D01*
X2636560Y2310180D01*
X2638620Y2307640D01*
X2655860Y2290400D01*
X2658399Y2288340D01*
X2661100Y2286880D01*
X2664060Y2285980D01*
X2667320Y2285660D01*
X2668780Y2285660D01*
X2670380Y2285340D01*
X2671720Y2284380D01*
X2672559Y2282980D01*
X2673120Y2281400D01*
X2674340Y2279480D01*
X2675940Y2277860D01*
X2677880Y2276660D01*
X2680020Y2275900D01*
X2682500Y2275620D01*
X2703320Y2275620D01*
X2705800Y2275900D01*
X2707960Y2276660D01*
X2709880Y2277860D01*
X2711500Y2279480D01*
X2712640Y2281320D01*
X2713540Y2282320D01*
X2714720Y2282960D01*
X2716060Y2283180D01*
X2726080Y2283140D01*
X2727400Y2282900D01*
X2728580Y2282240D01*
X2729460Y2281220D01*
X2730940Y2278820D01*
X2732540Y2277220D01*
X2734480Y2276000D01*
X2736620Y2275240D01*
X2739120Y2274960D01*
X2772679Y2274960D01*
X2775179Y2275240D01*
X2777320Y2276000D01*
X2779260Y2277220D01*
X2780860Y2278820D01*
X2782300Y2281100D01*
X2783180Y2282100D01*
X2784360Y2282760D01*
X2785680Y2282980D01*
X2883639Y2282980D01*
X2885080Y2282700D01*
X2886340Y2281920D01*
X2890419Y2275860D01*
X2894020Y2271760D01*
X2898120Y2268160D01*
X2902660Y2265140D01*
X2907540Y2262720D01*
X2909500Y2262060D01*
X2910880Y2261260D01*
X2911840Y2259980D01*
X2912220Y2258420D01*
X2911960Y2256840D01*
X2911100Y2255500D01*
X2909780Y2254600D01*
X2908220Y2254280D01*
G37*

%LPC*%
G36*
X2604100Y2326600D02*
G01*
X2607660Y2330180D01*
X2609220Y2332140D01*
X2610220Y2334180D01*
X2610720Y2336400D01*
X2610720Y2338680D01*
X2610220Y2340900D01*
X2609220Y2342960D01*
X2607660Y2344920D01*
X2605840Y2346760D01*
X2594900Y2335800D01*
G37*
G36*
X2583840Y2346860D02*
G01*
X2594780Y2357800D01*
X2592960Y2359640D01*
X2591000Y2361200D01*
X2588940Y2362180D01*
X2586720Y2362700D01*
X2584440Y2362700D01*
X2582220Y2362180D01*
X2580160Y2361200D01*
X2578200Y2359640D01*
X2574640Y2356060D01*
G37*

%LPD*%
G36*
X3217100Y2202760D02*
G01*
X3215680Y2203020D01*
X3214440Y2203760D01*
X3211480Y2206400D01*
X3210460Y2207220D01*
X3204840Y2211220D01*
X3203720Y2211920D01*
X3197700Y2215240D01*
X3196520Y2215820D01*
X3190140Y2218460D01*
X3182280Y2220800D01*
X3181000Y2221080D01*
X3174200Y2222240D01*
X3172900Y2222400D01*
X3165240Y2222800D01*
X2959020Y2222800D01*
X2957480Y2223100D01*
X2956180Y2223980D01*
X2955320Y2225260D01*
X2955020Y2226800D01*
X2955320Y2228340D01*
X2956180Y2229620D01*
X2986760Y2260200D01*
X2987980Y2261040D01*
X2989420Y2261380D01*
X2996800Y2259900D01*
X3002240Y2259560D01*
X3007679Y2259900D01*
X3013020Y2260980D01*
X3018200Y2262720D01*
X3023080Y2265140D01*
X3027620Y2268160D01*
X3031720Y2271760D01*
X3035320Y2275860D01*
X3038279Y2280300D01*
X3039380Y2281420D01*
X3040820Y2282000D01*
X3042400Y2282000D01*
X3043840Y2281420D01*
X3044940Y2280300D01*
X3047900Y2275860D01*
X3051500Y2271760D01*
X3055600Y2268160D01*
X3060140Y2265140D01*
X3065020Y2262720D01*
X3070200Y2260980D01*
X3075539Y2259900D01*
X3080980Y2259560D01*
X3086420Y2259900D01*
X3091760Y2260980D01*
X3096940Y2262720D01*
X3101820Y2265140D01*
X3106360Y2268160D01*
X3110460Y2271760D01*
X3114060Y2275860D01*
X3118240Y2282120D01*
X3119480Y2282900D01*
X3120940Y2283160D01*
X3286220Y2283160D01*
X3287919Y2282780D01*
X3289300Y2281720D01*
X3290100Y2280160D01*
X3291240Y2275660D01*
X3293360Y2270340D01*
X3296120Y2265320D01*
X3299480Y2260680D01*
X3303399Y2256500D01*
X3307820Y2252840D01*
X3312660Y2249780D01*
X3317840Y2247340D01*
X3323300Y2245560D01*
X3328920Y2244500D01*
X3336840Y2243940D01*
X3338220Y2243100D01*
X3339160Y2241760D01*
X3339480Y2240180D01*
X3339480Y2206760D01*
X3339180Y2205220D01*
X3338320Y2203920D01*
X3337020Y2203060D01*
X3335480Y2202760D01*
G37*

%LPD*%
G36*
X14200Y2202760D02*
G01*
X12660Y2203060D01*
X11379Y2203920D01*
X10500Y2205220D01*
X10200Y2206760D01*
X10200Y2676940D01*
X10560Y2687360D01*
X11600Y2697360D01*
X13320Y2707260D01*
X15700Y2717040D01*
X18760Y2726620D01*
X22460Y2735960D01*
X26780Y2745040D01*
X31720Y2753800D01*
X37240Y2762200D01*
X43320Y2770220D01*
X49940Y2777780D01*
X57060Y2784900D01*
X64640Y2791500D01*
X72660Y2797559D01*
X81080Y2803060D01*
X89840Y2807980D01*
X98940Y2812300D01*
X108300Y2815980D01*
X117880Y2819020D01*
X127640Y2821380D01*
X137560Y2823080D01*
X147560Y2824100D01*
X157720Y2824440D01*
X3306860Y2824440D01*
X3317280Y2824080D01*
X3327280Y2823039D01*
X3337180Y2821320D01*
X3346960Y2818940D01*
X3356540Y2815880D01*
X3365880Y2812200D01*
X3374960Y2807860D01*
X3383720Y2802919D01*
X3392120Y2797400D01*
X3400140Y2791320D01*
X3407700Y2784700D01*
X3414800Y2777580D01*
X3421420Y2770000D01*
X3427480Y2761980D01*
X3432980Y2753580D01*
X3437900Y2744800D01*
X3442220Y2735720D01*
X3445899Y2726360D01*
X3448940Y2716760D01*
X3451300Y2707000D01*
X3453000Y2697080D01*
X3454020Y2687080D01*
X3454360Y2676920D01*
X3454440Y2206760D01*
X3454140Y2205220D01*
X3453279Y2203920D01*
X3451980Y2203060D01*
X3450440Y2202760D01*
X3379640Y2202760D01*
X3378100Y2203060D01*
X3376800Y2203920D01*
X3375940Y2205220D01*
X3375640Y2206760D01*
X3375640Y2266700D01*
X3375560Y2269180D01*
X3375800Y2270040D01*
X3378039Y2275660D01*
X3379460Y2281200D01*
X3380179Y2286900D01*
X3380179Y2292620D01*
X3379460Y2298300D01*
X3378039Y2303860D01*
X3375920Y2309180D01*
X3373159Y2314200D01*
X3369800Y2318840D01*
X3365880Y2323020D01*
X3361460Y2326680D01*
X3356620Y2329740D01*
X3351440Y2332180D01*
X3345980Y2333960D01*
X3340360Y2335020D01*
X3334640Y2335380D01*
X3328920Y2335020D01*
X3323300Y2333960D01*
X3317840Y2332180D01*
X3312660Y2329740D01*
X3307820Y2326680D01*
X3303399Y2323020D01*
X3301120Y2320580D01*
X3299780Y2319640D01*
X3298200Y2319320D01*
X3120940Y2319320D01*
X3119480Y2319580D01*
X3118240Y2320360D01*
X3114060Y2326620D01*
X3110460Y2330720D01*
X3106360Y2334320D01*
X3100020Y2338540D01*
X3099240Y2339780D01*
X3098980Y2341240D01*
X3098980Y2438400D01*
X3099240Y2439860D01*
X3100020Y2441100D01*
X3106360Y2445320D01*
X3110460Y2448920D01*
X3114060Y2453020D01*
X3117080Y2457560D01*
X3119500Y2462440D01*
X3121240Y2467620D01*
X3122320Y2472960D01*
X3122660Y2478400D01*
X3122320Y2483840D01*
X3121240Y2489180D01*
X3119500Y2494360D01*
X3117080Y2499240D01*
X3114060Y2503780D01*
X3110460Y2507880D01*
X3106360Y2511480D01*
X3100020Y2515700D01*
X3099240Y2516940D01*
X3098980Y2518400D01*
X3098980Y2521140D01*
X3099240Y2522600D01*
X3100020Y2523840D01*
X3106360Y2528060D01*
X3110460Y2531660D01*
X3114060Y2535760D01*
X3117080Y2540300D01*
X3119500Y2545180D01*
X3121240Y2550360D01*
X3122320Y2555700D01*
X3122660Y2561139D01*
X3122320Y2566580D01*
X3121240Y2571920D01*
X3119500Y2577100D01*
X3117080Y2581980D01*
X3114060Y2586520D01*
X3110460Y2590620D01*
X3106360Y2594220D01*
X3100020Y2598440D01*
X3099240Y2599680D01*
X3098980Y2601139D01*
X3098980Y2698300D01*
X3099240Y2699760D01*
X3100020Y2701000D01*
X3106360Y2705220D01*
X3110460Y2708820D01*
X3114060Y2712919D01*
X3117080Y2717460D01*
X3119500Y2722340D01*
X3121240Y2727520D01*
X3122320Y2732860D01*
X3122660Y2738300D01*
X3122320Y2743740D01*
X3121240Y2749080D01*
X3119500Y2754260D01*
X3117080Y2759140D01*
X3114060Y2763680D01*
X3110460Y2767780D01*
X3106360Y2771380D01*
X3101820Y2774400D01*
X3096940Y2776820D01*
X3091760Y2778560D01*
X3086420Y2779640D01*
X3080980Y2779980D01*
X3075539Y2779640D01*
X3070200Y2778560D01*
X3065020Y2776820D01*
X3060140Y2774400D01*
X3055600Y2771380D01*
X3051500Y2767780D01*
X3047900Y2763680D01*
X3044940Y2759240D01*
X3043840Y2758120D01*
X3042400Y2757520D01*
X3040820Y2757520D01*
X3039380Y2758120D01*
X3038279Y2759240D01*
X3035320Y2763680D01*
X3031720Y2767780D01*
X3027620Y2771380D01*
X3023080Y2774400D01*
X3018200Y2776820D01*
X3013020Y2778560D01*
X3007679Y2779640D01*
X3002240Y2779980D01*
X2996800Y2779640D01*
X2991460Y2778560D01*
X2986280Y2776820D01*
X2981400Y2774400D01*
X2976860Y2771380D01*
X2972760Y2767780D01*
X2969160Y2763680D01*
X2966200Y2759240D01*
X2965100Y2758120D01*
X2963660Y2757520D01*
X2962080Y2757520D01*
X2960640Y2758120D01*
X2959540Y2759240D01*
X2956580Y2763680D01*
X2952980Y2767780D01*
X2948880Y2771380D01*
X2944340Y2774400D01*
X2939460Y2776820D01*
X2934280Y2778560D01*
X2928940Y2779640D01*
X2923500Y2779980D01*
X2918060Y2779640D01*
X2912720Y2778560D01*
X2907540Y2776820D01*
X2902660Y2774400D01*
X2898120Y2771380D01*
X2894020Y2767780D01*
X2890419Y2763680D01*
X2887400Y2759140D01*
X2884980Y2754260D01*
X2883240Y2749080D01*
X2882160Y2743740D01*
X2881820Y2738300D01*
X2882160Y2732860D01*
X2883240Y2727520D01*
X2884980Y2722340D01*
X2887400Y2717460D01*
X2890419Y2712919D01*
X2894020Y2708820D01*
X2898120Y2705220D01*
X2904300Y2701080D01*
X2905080Y2699840D01*
X2905340Y2698380D01*
X2905340Y2602980D01*
X2905040Y2601460D01*
X2904180Y2600160D01*
X2902880Y2599280D01*
X2901340Y2598980D01*
X2840580Y2598980D01*
X2839260Y2599200D01*
X2838100Y2599860D01*
X2837200Y2600860D01*
X2835980Y2602799D01*
X2834360Y2604400D01*
X2832440Y2605620D01*
X2830040Y2606460D01*
X2828639Y2607300D01*
X2827700Y2608639D01*
X2827380Y2610240D01*
X2827700Y2611840D01*
X2828639Y2613159D01*
X2830040Y2614000D01*
X2832440Y2614840D01*
X2834360Y2616060D01*
X2835980Y2617660D01*
X2837200Y2619600D01*
X2837940Y2621740D01*
X2838220Y2624240D01*
X2838220Y2629440D01*
X2822020Y2629440D01*
X2822020Y2610659D01*
X2821720Y2609120D01*
X2820860Y2607820D01*
X2819560Y2606960D01*
X2818020Y2606660D01*
X2804020Y2606660D01*
X2802480Y2606960D01*
X2801180Y2607820D01*
X2800320Y2609120D01*
X2800020Y2610659D01*
X2800020Y2629440D01*
X2783820Y2629440D01*
X2783820Y2624240D01*
X2784100Y2621740D01*
X2784840Y2619600D01*
X2786060Y2617660D01*
X2787660Y2616060D01*
X2789600Y2614840D01*
X2791980Y2614000D01*
X2793380Y2613159D01*
X2794340Y2611840D01*
X2794660Y2610240D01*
X2794340Y2608639D01*
X2793380Y2607300D01*
X2791980Y2606460D01*
X2789600Y2605620D01*
X2787660Y2604400D01*
X2786060Y2602799D01*
X2784840Y2600860D01*
X2783940Y2599860D01*
X2782780Y2599200D01*
X2781440Y2598980D01*
X2771800Y2598980D01*
X2770299Y2599280D01*
X2769020Y2600100D01*
X2768159Y2601320D01*
X2767799Y2602799D01*
X2768020Y2604300D01*
X2768620Y2606000D01*
X2768900Y2608500D01*
X2768900Y2613540D01*
X2755880Y2613540D01*
X2755880Y2610659D01*
X2755580Y2609120D01*
X2754700Y2607820D01*
X2753399Y2606960D01*
X2751880Y2606660D01*
X2744240Y2606660D01*
X2742720Y2606960D01*
X2741420Y2607820D01*
X2740560Y2609120D01*
X2740240Y2610659D01*
X2740240Y2613540D01*
X2727240Y2613540D01*
X2727240Y2608500D01*
X2727520Y2606000D01*
X2728320Y2603680D01*
X2728560Y2602360D01*
X2728320Y2601040D01*
X2727520Y2598720D01*
X2727240Y2596240D01*
X2727240Y2565580D01*
X2727520Y2563080D01*
X2728260Y2560940D01*
X2729480Y2559000D01*
X2731180Y2557300D01*
X2732040Y2556020D01*
X2732340Y2554480D01*
X2732340Y2527880D01*
X2732040Y2526340D01*
X2731180Y2525060D01*
X2659040Y2452920D01*
X2657679Y2452020D01*
X2656100Y2451740D01*
X2654520Y2452120D01*
X2653220Y2453080D01*
X2652420Y2454480D01*
X2652220Y2456080D01*
X2652679Y2457620D01*
X2654100Y2460260D01*
X2654980Y2463200D01*
X2655280Y2466260D01*
X2654980Y2469340D01*
X2654100Y2472280D01*
X2652640Y2474980D01*
X2650560Y2477520D01*
X2608519Y2519560D01*
X2607340Y2520520D01*
X2606259Y2521900D01*
X2605880Y2523620D01*
X2606259Y2525320D01*
X2607340Y2526700D01*
X2608519Y2527680D01*
X2650560Y2569720D01*
X2652640Y2572240D01*
X2654100Y2574960D01*
X2654980Y2577900D01*
X2655280Y2580960D01*
X2654980Y2584020D01*
X2654100Y2586960D01*
X2652640Y2589680D01*
X2650680Y2592060D01*
X2648320Y2594020D01*
X2645600Y2595460D01*
X2643480Y2596100D01*
X2642300Y2596680D01*
X2641380Y2597600D01*
X2640820Y2598780D01*
X2640160Y2600899D01*
X2638720Y2603600D01*
X2636760Y2605980D01*
X2634380Y2607940D01*
X2631680Y2609380D01*
X2629560Y2610020D01*
X2628399Y2610600D01*
X2627480Y2611520D01*
X2626900Y2612700D01*
X2626259Y2614800D01*
X2624800Y2617520D01*
X2622620Y2620179D01*
X2621920Y2621460D01*
X2621720Y2622919D01*
X2622060Y2624340D01*
X2622880Y2625539D01*
X2624800Y2627480D01*
X2626100Y2628340D01*
X2627640Y2628639D01*
X2629160Y2628340D01*
X2630460Y2627480D01*
X2633320Y2624600D01*
X2635280Y2623039D01*
X2637340Y2622060D01*
X2639560Y2621560D01*
X2641840Y2621560D01*
X2644060Y2622060D01*
X2646120Y2623039D01*
X2648060Y2624600D01*
X2662780Y2639320D01*
X2664340Y2641280D01*
X2665340Y2643340D01*
X2665840Y2645560D01*
X2665840Y2647840D01*
X2665340Y2650059D01*
X2664340Y2652100D01*
X2662780Y2654060D01*
X2641100Y2675740D01*
X2639140Y2677300D01*
X2636940Y2678380D01*
X2635840Y2679140D01*
X2635059Y2680240D01*
X2634000Y2682460D01*
X2632440Y2684420D01*
X2628860Y2687980D01*
X2619660Y2678780D01*
X2621700Y2676740D01*
X2622580Y2675440D01*
X2622880Y2673920D01*
X2622580Y2672380D01*
X2621700Y2671080D01*
X2616300Y2665680D01*
X2615020Y2664820D01*
X2613480Y2664520D01*
X2611940Y2664820D01*
X2610659Y2665680D01*
X2608600Y2667740D01*
X2599400Y2658519D01*
X2602580Y2655340D01*
X2603460Y2654060D01*
X2603759Y2652520D01*
X2603460Y2650980D01*
X2602580Y2649700D01*
X2587100Y2634220D01*
X2585659Y2633300D01*
X2583940Y2633060D01*
X2582300Y2633580D01*
X2581019Y2634740D01*
X2580340Y2636320D01*
X2580400Y2638039D01*
X2581180Y2639580D01*
X2583039Y2641840D01*
X2584320Y2644240D01*
X2585020Y2645179D01*
X2590620Y2650779D01*
X2589920Y2651139D01*
X2587799Y2651780D01*
X2586640Y2652360D01*
X2585720Y2653279D01*
X2585140Y2654440D01*
X2584500Y2656560D01*
X2583039Y2659280D01*
X2581080Y2661660D01*
X2578720Y2663620D01*
X2576000Y2665059D01*
X2573880Y2665700D01*
X2572720Y2666280D01*
X2571800Y2667200D01*
X2571220Y2668380D01*
X2570580Y2670480D01*
X2569120Y2673200D01*
X2567180Y2675580D01*
X2564800Y2677520D01*
X2562080Y2678980D01*
X2559960Y2679620D01*
X2558800Y2680200D01*
X2557880Y2681120D01*
X2557300Y2682280D01*
X2556660Y2684400D01*
X2555200Y2687120D01*
X2553240Y2689500D01*
X2550880Y2691460D01*
X2548160Y2692900D01*
X2546040Y2693540D01*
X2544880Y2694120D01*
X2543960Y2695040D01*
X2543380Y2696200D01*
X2542740Y2698320D01*
X2541280Y2701040D01*
X2539340Y2703420D01*
X2536960Y2705360D01*
X2534240Y2706820D01*
X2532120Y2707460D01*
X2530960Y2708039D01*
X2530040Y2708960D01*
X2529460Y2710120D01*
X2528820Y2712240D01*
X2527360Y2714960D01*
X2525420Y2717340D01*
X2523040Y2719300D01*
X2520320Y2720740D01*
X2518200Y2721380D01*
X2517040Y2721960D01*
X2516120Y2722880D01*
X2515540Y2724040D01*
X2514900Y2726160D01*
X2513440Y2728880D01*
X2511500Y2731259D01*
X2509120Y2733200D01*
X2506400Y2734660D01*
X2504280Y2735299D01*
X2503120Y2735880D01*
X2502200Y2736800D01*
X2501620Y2737960D01*
X2500980Y2740080D01*
X2499520Y2742799D01*
X2497580Y2745179D01*
X2495200Y2747120D01*
X2492480Y2748580D01*
X2489540Y2749480D01*
X2486480Y2749780D01*
X2483420Y2749480D01*
X2480480Y2748580D01*
X2477760Y2747120D01*
X2475220Y2745059D01*
X2433200Y2703020D01*
X2432220Y2701840D01*
X2430840Y2700760D01*
X2429120Y2700380D01*
X2427420Y2700760D01*
X2426040Y2701840D01*
X2425060Y2703020D01*
X2338280Y2789820D01*
X2335740Y2791880D01*
X2333020Y2793340D01*
X2330080Y2794240D01*
X2326820Y2794560D01*
X2105280Y2794560D01*
X2103680Y2794880D01*
X2102340Y2795840D01*
X2101500Y2797240D01*
X2100880Y2799000D01*
X2099660Y2800920D01*
X2098060Y2802540D01*
X2096120Y2803759D01*
X2093980Y2804500D01*
X2091480Y2804780D01*
X2056500Y2804780D01*
X2054019Y2804500D01*
X2051860Y2803759D01*
X2049940Y2802540D01*
X2048080Y2800700D01*
X2046780Y2799820D01*
X2045260Y2799520D01*
X2028680Y2799520D01*
X2027260Y2799780D01*
X2026020Y2800539D01*
X2025120Y2801700D01*
X2024720Y2803100D01*
X2024400Y2806019D01*
X2023660Y2808159D01*
X2022440Y2810080D01*
X2020840Y2811700D01*
X2018899Y2812919D01*
X2016759Y2813660D01*
X2014259Y2813940D01*
X1960500Y2813940D01*
X1958020Y2813660D01*
X1955860Y2812919D01*
X1953940Y2811700D01*
X1952320Y2810080D01*
X1951100Y2808159D01*
X1950360Y2806019D01*
X1950060Y2803100D01*
X1949640Y2801700D01*
X1948760Y2800539D01*
X1947500Y2799780D01*
X1946080Y2799520D01*
X1934199Y2799520D01*
X1932760Y2799780D01*
X1931519Y2800539D01*
X1930640Y2801700D01*
X1930220Y2803100D01*
X1929920Y2806019D01*
X1929160Y2808159D01*
X1927960Y2810080D01*
X1926339Y2811700D01*
X1924420Y2812919D01*
X1922260Y2813660D01*
X1919780Y2813940D01*
X1866020Y2813940D01*
X1863520Y2813660D01*
X1861380Y2812919D01*
X1859440Y2811700D01*
X1857840Y2810080D01*
X1856620Y2808159D01*
X1855860Y2806000D01*
X1855580Y2803519D01*
X1855580Y2759380D01*
X1855860Y2756900D01*
X1856620Y2754740D01*
X1857840Y2752820D01*
X1859440Y2751200D01*
X1861380Y2749980D01*
X1863520Y2749240D01*
X1866020Y2748960D01*
X1919780Y2748960D01*
X1922260Y2749240D01*
X1924420Y2749980D01*
X1926339Y2751200D01*
X1927960Y2752820D01*
X1929160Y2754740D01*
X1929920Y2756880D01*
X1930220Y2759800D01*
X1930640Y2761180D01*
X1931519Y2762340D01*
X1932760Y2763100D01*
X1934199Y2763380D01*
X1946080Y2763380D01*
X1947500Y2763100D01*
X1948760Y2762340D01*
X1949640Y2761180D01*
X1950060Y2759800D01*
X1950360Y2756880D01*
X1951100Y2754740D01*
X1952320Y2752820D01*
X1953940Y2751200D01*
X1955860Y2749980D01*
X1958020Y2749240D01*
X1960500Y2748960D01*
X2014259Y2748960D01*
X2016759Y2749240D01*
X2018899Y2749980D01*
X2020840Y2751200D01*
X2022440Y2752820D01*
X2023660Y2754740D01*
X2024400Y2756880D01*
X2024720Y2759800D01*
X2025120Y2761180D01*
X2026020Y2762340D01*
X2027260Y2763100D01*
X2028680Y2763380D01*
X2042640Y2763380D01*
X2044240Y2763039D01*
X2045560Y2762100D01*
X2046399Y2760700D01*
X2047120Y2758680D01*
X2048320Y2756740D01*
X2049940Y2755140D01*
X2050680Y2754660D01*
X2051840Y2753560D01*
X2052460Y2752080D01*
X2052460Y2750480D01*
X2051840Y2749000D01*
X2050680Y2747900D01*
X2049940Y2747420D01*
X2048320Y2745820D01*
X2047120Y2743880D01*
X2046360Y2741740D01*
X2046080Y2739240D01*
X2046080Y2734100D01*
X2062640Y2734100D01*
X2062640Y2748880D01*
X2062940Y2750419D01*
X2063800Y2751720D01*
X2065100Y2752580D01*
X2066639Y2752880D01*
X2081360Y2752880D01*
X2082880Y2752580D01*
X2084180Y2751720D01*
X2085040Y2750419D01*
X2085360Y2748880D01*
X2085360Y2734100D01*
X2101920Y2734100D01*
X2101920Y2739240D01*
X2101640Y2741740D01*
X2100880Y2743880D01*
X2099660Y2745820D01*
X2098060Y2747420D01*
X2097320Y2747900D01*
X2096160Y2749000D01*
X2095520Y2750480D01*
X2095520Y2752080D01*
X2096160Y2753560D01*
X2097320Y2754660D01*
X2098060Y2755140D01*
X2099660Y2756740D01*
X2100880Y2758680D01*
X2101500Y2760440D01*
X2102340Y2761840D01*
X2103680Y2762799D01*
X2105280Y2763120D01*
X2318860Y2763120D01*
X2320380Y2762820D01*
X2321680Y2761960D01*
X2346740Y2736900D01*
X2347560Y2735700D01*
X2347900Y2734280D01*
X2347700Y2732820D01*
X2347000Y2731540D01*
X2344820Y2728880D01*
X2343360Y2726160D01*
X2342720Y2724040D01*
X2342140Y2722880D01*
X2341220Y2721960D01*
X2340060Y2721380D01*
X2337940Y2720740D01*
X2335220Y2719300D01*
X2332920Y2717400D01*
X2331580Y2716680D01*
X2330060Y2716500D01*
X2328580Y2716920D01*
X2327380Y2717860D01*
X2326600Y2719180D01*
X2326400Y2720700D01*
X2326760Y2722180D01*
X2327920Y2724700D01*
X2328920Y2728420D01*
X2329260Y2732280D01*
X2328920Y2736139D01*
X2327920Y2739860D01*
X2326300Y2743380D01*
X2324080Y2746540D01*
X2321340Y2749280D01*
X2318180Y2751500D01*
X2314660Y2753120D01*
X2310940Y2754120D01*
X2307080Y2754460D01*
X2303220Y2754120D01*
X2299500Y2753120D01*
X2295980Y2751500D01*
X2292820Y2749280D01*
X2290080Y2746540D01*
X2287860Y2743380D01*
X2286240Y2739860D01*
X2285240Y2736139D01*
X2284900Y2732280D01*
X2285240Y2728420D01*
X2286240Y2724700D01*
X2287860Y2721180D01*
X2291080Y2716600D01*
X2291380Y2715059D01*
X2291380Y2706780D01*
X2291080Y2705260D01*
X2290220Y2703960D01*
X2288920Y2703100D01*
X2287380Y2702780D01*
X2285860Y2703100D01*
X2284560Y2703960D01*
X2257040Y2731480D01*
X2256180Y2732780D01*
X2255580Y2737300D01*
X2254840Y2739440D01*
X2253620Y2741380D01*
X2252020Y2742980D01*
X2250080Y2744200D01*
X2247940Y2744960D01*
X2245440Y2745240D01*
X2214780Y2745240D01*
X2212300Y2744960D01*
X2209980Y2744140D01*
X2208660Y2743920D01*
X2207340Y2744140D01*
X2205020Y2744960D01*
X2202520Y2745240D01*
X2197480Y2745240D01*
X2197480Y2732220D01*
X2200360Y2732220D01*
X2201900Y2731920D01*
X2203200Y2731040D01*
X2204060Y2729740D01*
X2204360Y2728220D01*
X2204360Y2720580D01*
X2204060Y2719060D01*
X2203200Y2717760D01*
X2201900Y2716900D01*
X2200360Y2716580D01*
X2197480Y2716580D01*
X2197480Y2703580D01*
X2202520Y2703580D01*
X2205020Y2703860D01*
X2207340Y2704660D01*
X2208660Y2704900D01*
X2209980Y2704660D01*
X2212300Y2703860D01*
X2214780Y2703580D01*
X2238840Y2703580D01*
X2240380Y2703260D01*
X2241680Y2702400D01*
X2288660Y2655419D01*
X2289600Y2653960D01*
X2289820Y2652240D01*
X2289320Y2650600D01*
X2288160Y2649320D01*
X2286560Y2648660D01*
X2284840Y2648720D01*
X2280680Y2650960D01*
X2279740Y2651660D01*
X2274140Y2657260D01*
X2273760Y2656560D01*
X2273120Y2654440D01*
X2272540Y2653279D01*
X2271620Y2652360D01*
X2270460Y2651780D01*
X2268340Y2651139D01*
X2265620Y2649680D01*
X2263240Y2647740D01*
X2261300Y2645360D01*
X2259840Y2642640D01*
X2259200Y2640539D01*
X2258620Y2639360D01*
X2257700Y2638440D01*
X2256540Y2637860D01*
X2254420Y2637220D01*
X2251700Y2635779D01*
X2249040Y2633580D01*
X2247760Y2632880D01*
X2246300Y2632679D01*
X2244880Y2633020D01*
X2243680Y2633840D01*
X2228360Y2649160D01*
X2227560Y2650299D01*
X2227200Y2651620D01*
X2227300Y2653000D01*
X2229520Y2657760D01*
X2230520Y2661500D01*
X2230840Y2665340D01*
X2230520Y2669200D01*
X2229520Y2672940D01*
X2227880Y2676440D01*
X2225660Y2679620D01*
X2222920Y2682340D01*
X2219760Y2684560D01*
X2216240Y2686200D01*
X2212520Y2687200D01*
X2208660Y2687540D01*
X2204800Y2687200D01*
X2201060Y2686200D01*
X2197560Y2684560D01*
X2194400Y2682340D01*
X2191660Y2679620D01*
X2189440Y2676440D01*
X2187800Y2672940D01*
X2186800Y2669200D01*
X2186460Y2665340D01*
X2186720Y2662520D01*
X2186500Y2660860D01*
X2185660Y2659440D01*
X2184300Y2658480D01*
X2182660Y2658159D01*
X2177080Y2659640D01*
X2173220Y2659980D01*
X2169380Y2659640D01*
X2165640Y2658639D01*
X2162120Y2657000D01*
X2158960Y2654800D01*
X2156220Y2652060D01*
X2154000Y2648880D01*
X2152360Y2645380D01*
X2151360Y2641640D01*
X2151040Y2637780D01*
X2151360Y2633940D01*
X2152360Y2630200D01*
X2154000Y2626700D01*
X2156220Y2623519D01*
X2158960Y2620779D01*
X2162120Y2618580D01*
X2165640Y2616940D01*
X2169380Y2615940D01*
X2173220Y2615600D01*
X2177080Y2615940D01*
X2180820Y2616940D01*
X2183400Y2618140D01*
X2184980Y2618519D01*
X2186560Y2618240D01*
X2187920Y2617340D01*
X2207540Y2597720D01*
X2208380Y2596500D01*
X2208700Y2595080D01*
X2208520Y2593639D01*
X2207800Y2592340D01*
X2205620Y2589680D01*
X2204160Y2586960D01*
X2203280Y2584020D01*
X2202980Y2580960D01*
X2203280Y2577900D01*
X2204160Y2574960D01*
X2205620Y2572240D01*
X2207700Y2569720D01*
X2249740Y2527680D01*
X2250920Y2526700D01*
X2252000Y2525320D01*
X2252380Y2523620D01*
X2252000Y2521900D01*
X2250920Y2520520D01*
X2249740Y2519560D01*
X2207700Y2477520D01*
X2205620Y2474980D01*
X2204160Y2472280D01*
X2203280Y2469340D01*
X2202980Y2466260D01*
X2203280Y2463200D01*
X2204160Y2460260D01*
X2205620Y2457560D01*
X2207560Y2455180D01*
X2209940Y2453220D01*
X2212660Y2451780D01*
X2214780Y2451120D01*
X2215940Y2450560D01*
X2216880Y2449640D01*
X2217440Y2448460D01*
X2218080Y2446340D01*
X2219540Y2443620D01*
X2221500Y2441260D01*
X2223860Y2439300D01*
X2226580Y2437840D01*
X2228700Y2437200D01*
X2229860Y2436640D01*
X2230780Y2435700D01*
X2231360Y2434540D01*
X2232000Y2432420D01*
X2233460Y2429720D01*
X2235400Y2427340D01*
X2237780Y2425380D01*
X2240500Y2423940D01*
X2242620Y2423280D01*
X2243780Y2422720D01*
X2244700Y2421800D01*
X2245280Y2420620D01*
X2245920Y2418500D01*
X2247380Y2415800D01*
X2249340Y2413420D01*
X2251700Y2411460D01*
X2254420Y2410020D01*
X2256540Y2409360D01*
X2257700Y2408800D01*
X2258620Y2407880D01*
X2259200Y2406700D01*
X2259840Y2404580D01*
X2261300Y2401880D01*
X2263240Y2399500D01*
X2265620Y2397540D01*
X2268340Y2396100D01*
X2270460Y2395460D01*
X2271620Y2394880D01*
X2272540Y2393960D01*
X2273120Y2392780D01*
X2273760Y2390660D01*
X2275220Y2387960D01*
X2277160Y2385580D01*
X2279540Y2383620D01*
X2282260Y2382180D01*
X2284380Y2381520D01*
X2285540Y2380960D01*
X2286460Y2380040D01*
X2287040Y2378860D01*
X2287680Y2376740D01*
X2289140Y2374040D01*
X2291080Y2371660D01*
X2293460Y2369700D01*
X2296180Y2368260D01*
X2298300Y2367620D01*
X2299460Y2367040D01*
X2300380Y2366120D01*
X2300960Y2364940D01*
X2301600Y2362820D01*
X2303060Y2360120D01*
X2305000Y2357740D01*
X2307380Y2355780D01*
X2310100Y2354340D01*
X2312220Y2353700D01*
X2313380Y2353120D01*
X2314300Y2352200D01*
X2314880Y2351020D01*
X2315520Y2348900D01*
X2316980Y2346200D01*
X2318920Y2343820D01*
X2321300Y2341860D01*
X2324020Y2340420D01*
X2326140Y2339780D01*
X2327300Y2339200D01*
X2328220Y2338280D01*
X2328800Y2337100D01*
X2329440Y2334980D01*
X2330900Y2332280D01*
X2332840Y2329900D01*
X2335220Y2327940D01*
X2337940Y2326500D01*
X2340060Y2325860D01*
X2341220Y2325280D01*
X2342140Y2324360D01*
X2342720Y2323180D01*
X2343360Y2321080D01*
X2344820Y2318360D01*
X2346760Y2315980D01*
X2349140Y2314020D01*
X2351860Y2312580D01*
X2353980Y2311940D01*
X2355140Y2311360D01*
X2356060Y2310440D01*
X2356640Y2309260D01*
X2357280Y2307140D01*
X2358740Y2304440D01*
X2360680Y2302060D01*
X2363060Y2300100D01*
X2365780Y2298660D01*
X2368720Y2297760D01*
X2371780Y2297460D01*
X2374840Y2297760D01*
X2377780Y2298660D01*
X2380500Y2300100D01*
X2383040Y2302180D01*
X2425060Y2344220D01*
X2426040Y2345400D01*
X2427420Y2346480D01*
X2429120Y2346860D01*
X2430840Y2346480D01*
X2432220Y2345400D01*
X2433200Y2344220D01*
X2483120Y2294260D01*
X2483980Y2292960D01*
X2484280Y2291440D01*
X2484280Y2287660D01*
X2483980Y2286140D01*
X2483120Y2284840D01*
X2478960Y2280680D01*
X2477660Y2279820D01*
X2476140Y2279520D01*
X2338240Y2279520D01*
X2336760Y2279800D01*
X2335480Y2280600D01*
X2334600Y2281820D01*
X2334180Y2282740D01*
X2331960Y2285920D01*
X2329220Y2288640D01*
X2326060Y2290860D01*
X2322540Y2292500D01*
X2319640Y2293280D01*
X2318680Y2293680D01*
X2317840Y2294320D01*
X2307540Y2304600D01*
X2304780Y2306680D01*
X2301800Y2308180D01*
X2298580Y2309080D01*
X2295080Y2309400D01*
X2279180Y2309400D01*
X2277580Y2309740D01*
X2276240Y2310680D01*
X2275400Y2312080D01*
X2275160Y2312760D01*
X2273960Y2314680D01*
X2272340Y2316300D01*
X2270420Y2317500D01*
X2268260Y2318260D01*
X2265780Y2318540D01*
X2234480Y2318540D01*
X2231980Y2318260D01*
X2229840Y2317500D01*
X2227900Y2316300D01*
X2226300Y2314680D01*
X2225080Y2312760D01*
X2224240Y2310360D01*
X2223400Y2308960D01*
X2222060Y2308020D01*
X2220460Y2307680D01*
X2218860Y2308020D01*
X2217540Y2308960D01*
X2216700Y2310360D01*
X2215860Y2312760D01*
X2214640Y2314680D01*
X2213040Y2316300D01*
X2211100Y2317500D01*
X2208960Y2318260D01*
X2206460Y2318540D01*
X2201260Y2318540D01*
X2201260Y2302340D01*
X2220040Y2302340D01*
X2221580Y2302040D01*
X2222880Y2301160D01*
X2223740Y2299860D01*
X2224040Y2298340D01*
X2224040Y2284320D01*
X2223740Y2282800D01*
X2222880Y2281500D01*
X2221580Y2280640D01*
X2220040Y2280320D01*
X2201260Y2280320D01*
X2201260Y2264120D01*
X2206460Y2264120D01*
X2208960Y2264400D01*
X2211100Y2265160D01*
X2213040Y2266380D01*
X2214640Y2267980D01*
X2215860Y2269920D01*
X2216700Y2272300D01*
X2217540Y2273700D01*
X2218860Y2274640D01*
X2220460Y2274980D01*
X2222060Y2274640D01*
X2223400Y2273700D01*
X2224240Y2272300D01*
X2225080Y2269920D01*
X2226300Y2267980D01*
X2227900Y2266380D01*
X2229840Y2265160D01*
X2231980Y2264400D01*
X2234480Y2264120D01*
X2265780Y2264120D01*
X2268260Y2264400D01*
X2270420Y2265160D01*
X2272340Y2266380D01*
X2273960Y2267980D01*
X2275160Y2269920D01*
X2275400Y2270580D01*
X2276240Y2271980D01*
X2277580Y2272920D01*
X2279180Y2273260D01*
X2286120Y2273260D01*
X2287660Y2272960D01*
X2288960Y2272080D01*
X2292280Y2268760D01*
X2292920Y2267920D01*
X2293320Y2266960D01*
X2294100Y2264060D01*
X2295740Y2260560D01*
X2296400Y2258960D01*
X2296300Y2257220D01*
X2295500Y2255700D01*
X2294140Y2254640D01*
X2292440Y2254280D01*
X2162440Y2254280D01*
X2160920Y2254580D01*
X2159620Y2255440D01*
X2092120Y2322960D01*
X2089420Y2325000D01*
X2086440Y2326480D01*
X2083240Y2327400D01*
X2079720Y2327720D01*
X2052420Y2327720D01*
X2051100Y2327940D01*
X2049920Y2328600D01*
X2049019Y2329600D01*
X2047680Y2331740D01*
X2046060Y2333360D01*
X2045320Y2333820D01*
X2044160Y2334920D01*
X2043540Y2336400D01*
X2043540Y2338000D01*
X2044160Y2339480D01*
X2045320Y2340600D01*
X2046060Y2341060D01*
X2047680Y2342660D01*
X2048880Y2344600D01*
X2049640Y2346740D01*
X2049920Y2349240D01*
X2049920Y2354380D01*
X2033360Y2354380D01*
X2033360Y2339600D01*
X2033060Y2338060D01*
X2032200Y2336780D01*
X2030900Y2335900D01*
X2029360Y2335600D01*
X2014640Y2335600D01*
X2013120Y2335900D01*
X2011819Y2336780D01*
X2010960Y2338060D01*
X2010640Y2339600D01*
X2010640Y2354380D01*
X1994079Y2354380D01*
X1994079Y2349240D01*
X1994360Y2346740D01*
X1995120Y2344600D01*
X1996339Y2342660D01*
X1997940Y2341060D01*
X1998680Y2340600D01*
X1999840Y2339480D01*
X2000480Y2338000D01*
X2000480Y2336400D01*
X1999840Y2334920D01*
X1998680Y2333820D01*
X1997940Y2333360D01*
X1996339Y2331740D01*
X1994980Y2329600D01*
X1994079Y2328600D01*
X1992920Y2327940D01*
X1991600Y2327720D01*
X1976160Y2327720D01*
X1974640Y2328020D01*
X1973340Y2328900D01*
X1972480Y2330180D01*
X1972160Y2331720D01*
X1972160Y2339940D01*
X1971879Y2342420D01*
X1971140Y2344580D01*
X1969920Y2346500D01*
X1968300Y2348120D01*
X1966000Y2349580D01*
X1964840Y2350680D01*
X1964199Y2352160D01*
X1964199Y2353760D01*
X1964840Y2355240D01*
X1966000Y2356340D01*
X1968300Y2357800D01*
X1969920Y2359400D01*
X1971140Y2361340D01*
X1971879Y2363480D01*
X1972160Y2365980D01*
X1972160Y2377120D01*
X1951180Y2377120D01*
X1951180Y2354360D01*
X1950880Y2352820D01*
X1950000Y2351540D01*
X1948700Y2350660D01*
X1947180Y2350360D01*
X1923600Y2350360D01*
X1922080Y2350660D01*
X1920780Y2351540D01*
X1919900Y2352820D01*
X1919600Y2354360D01*
X1919600Y2377120D01*
X1898620Y2377120D01*
X1898620Y2365980D01*
X1898899Y2363480D01*
X1899640Y2361340D01*
X1900860Y2359400D01*
X1902480Y2357800D01*
X1904780Y2356340D01*
X1905940Y2355220D01*
X1906579Y2353760D01*
X1906579Y2352160D01*
X1905940Y2350680D01*
X1904780Y2349560D01*
X1902480Y2348120D01*
X1900860Y2346500D01*
X1899640Y2344580D01*
X1898899Y2342420D01*
X1898620Y2339940D01*
X1898620Y2334480D01*
X1898320Y2332940D01*
X1897440Y2331660D01*
X1896140Y2330780D01*
X1894620Y2330480D01*
X1826040Y2330480D01*
X1824500Y2330780D01*
X1823200Y2331660D01*
X1822340Y2332940D01*
X1822040Y2334480D01*
X1822040Y2379980D01*
X1821840Y2384200D01*
X1821260Y2388620D01*
X1820240Y2392980D01*
X1818839Y2397220D01*
X1817040Y2401280D01*
X1815900Y2403320D01*
X1815400Y2405000D01*
X1815660Y2406720D01*
X1816620Y2408160D01*
X1818100Y2409060D01*
X1819840Y2409260D01*
X1820820Y2409140D01*
X1824720Y2409140D01*
X1824720Y2432340D01*
X1810400Y2432340D01*
X1810400Y2420500D01*
X1810120Y2419020D01*
X1809319Y2417760D01*
X1808120Y2416880D01*
X1806660Y2416500D01*
X1805180Y2416680D01*
X1803860Y2417400D01*
X1802840Y2418260D01*
X1799379Y2420600D01*
X1798440Y2421480D01*
X1797840Y2422620D01*
X1797620Y2423900D01*
X1797620Y2481120D01*
X1797340Y2483620D01*
X1796600Y2485760D01*
X1795380Y2487700D01*
X1793779Y2489300D01*
X1791840Y2490520D01*
X1789700Y2491280D01*
X1787200Y2491560D01*
X1761660Y2491560D01*
X1759180Y2491280D01*
X1757020Y2490520D01*
X1755100Y2489300D01*
X1753480Y2487700D01*
X1752280Y2485760D01*
X1751519Y2483620D01*
X1751240Y2481120D01*
X1751240Y2423900D01*
X1751020Y2422580D01*
X1750380Y2421420D01*
X1749379Y2420520D01*
X1748420Y2419920D01*
X1745500Y2417800D01*
X1743899Y2417120D01*
X1742160Y2417160D01*
X1740600Y2417960D01*
X1739540Y2419340D01*
X1739160Y2421040D01*
X1739160Y2481120D01*
X1738880Y2483620D01*
X1738120Y2485760D01*
X1736900Y2487700D01*
X1734980Y2489620D01*
X1734100Y2490920D01*
X1733800Y2492460D01*
X1733800Y2505780D01*
X1734100Y2507320D01*
X1734960Y2508600D01*
X1736260Y2509480D01*
X1737800Y2509780D01*
X1761759Y2509780D01*
X1764259Y2510060D01*
X1766399Y2510820D01*
X1768340Y2512020D01*
X1769940Y2513640D01*
X1771399Y2515960D01*
X1772500Y2517120D01*
X1773980Y2517740D01*
X1775580Y2517740D01*
X1777060Y2517100D01*
X1778180Y2515940D01*
X1779620Y2513640D01*
X1781240Y2512020D01*
X1783160Y2510820D01*
X1785320Y2510060D01*
X1787800Y2509780D01*
X1798959Y2509780D01*
X1798959Y2530760D01*
X1776180Y2530760D01*
X1774660Y2531080D01*
X1773360Y2531940D01*
X1772500Y2533240D01*
X1772180Y2534760D01*
X1772180Y2558340D01*
X1772500Y2559880D01*
X1773360Y2561180D01*
X1774660Y2562040D01*
X1776180Y2562340D01*
X1798959Y2562340D01*
X1798959Y2583340D01*
X1787800Y2583340D01*
X1785320Y2583060D01*
X1783160Y2582300D01*
X1781240Y2581080D01*
X1779620Y2579480D01*
X1778160Y2577160D01*
X1777060Y2576000D01*
X1775580Y2575380D01*
X1773980Y2575380D01*
X1772500Y2576000D01*
X1771399Y2577160D01*
X1769940Y2579480D01*
X1768340Y2581080D01*
X1766399Y2582300D01*
X1764259Y2583060D01*
X1761759Y2583340D01*
X1756300Y2583340D01*
X1754780Y2583639D01*
X1753480Y2584500D01*
X1752620Y2585800D01*
X1752300Y2587340D01*
X1752300Y2601259D01*
X1752620Y2602780D01*
X1753480Y2604080D01*
X1754780Y2604940D01*
X1756300Y2605260D01*
X1762760Y2605260D01*
X1765240Y2605539D01*
X1767400Y2606280D01*
X1769319Y2607500D01*
X1770940Y2609120D01*
X1771399Y2609860D01*
X1772500Y2611019D01*
X1773980Y2611640D01*
X1775580Y2611640D01*
X1777060Y2611019D01*
X1778160Y2609860D01*
X1778640Y2609120D01*
X1780240Y2607500D01*
X1782180Y2606280D01*
X1784319Y2605539D01*
X1786819Y2605260D01*
X1791960Y2605260D01*
X1791960Y2621820D01*
X1777180Y2621820D01*
X1775640Y2622120D01*
X1774340Y2622980D01*
X1773480Y2624280D01*
X1773180Y2625820D01*
X1773180Y2640520D01*
X1773480Y2642060D01*
X1774340Y2643360D01*
X1775640Y2644220D01*
X1777180Y2644520D01*
X1791960Y2644520D01*
X1791960Y2661080D01*
X1786819Y2661080D01*
X1784319Y2660800D01*
X1783420Y2660480D01*
X1781900Y2660260D01*
X1780420Y2660640D01*
X1779180Y2661520D01*
X1778360Y2662820D01*
X1778100Y2664320D01*
X1778420Y2665820D01*
X1779259Y2667100D01*
X1798300Y2686120D01*
X1799600Y2686980D01*
X1801120Y2687300D01*
X1851579Y2687300D01*
X1853020Y2687020D01*
X1854259Y2686259D01*
X1855160Y2685100D01*
X1855560Y2683720D01*
X1855880Y2680800D01*
X1856620Y2678660D01*
X1857840Y2676720D01*
X1859440Y2675120D01*
X1861380Y2673900D01*
X1863520Y2673159D01*
X1866020Y2672880D01*
X1919780Y2672880D01*
X1922260Y2673159D01*
X1924420Y2673900D01*
X1926339Y2675120D01*
X1927960Y2676720D01*
X1929160Y2678660D01*
X1929920Y2680800D01*
X1930200Y2683300D01*
X1930200Y2727440D01*
X1929920Y2729920D01*
X1929160Y2732080D01*
X1927960Y2734000D01*
X1926339Y2735620D01*
X1924420Y2736820D01*
X1922260Y2737580D01*
X1919780Y2737860D01*
X1866020Y2737860D01*
X1863520Y2737580D01*
X1861380Y2736820D01*
X1859440Y2735620D01*
X1857840Y2734000D01*
X1856620Y2732080D01*
X1855880Y2729940D01*
X1855560Y2727020D01*
X1855160Y2725620D01*
X1854259Y2724460D01*
X1853020Y2723700D01*
X1851579Y2723440D01*
X1801120Y2723440D01*
X1799600Y2723740D01*
X1798300Y2724620D01*
X1766000Y2756900D01*
X1765140Y2758200D01*
X1764820Y2759740D01*
X1764820Y2778320D01*
X1764540Y2780800D01*
X1763800Y2782960D01*
X1762580Y2784880D01*
X1760980Y2786500D01*
X1759040Y2787720D01*
X1756900Y2788460D01*
X1754400Y2788740D01*
X1717440Y2788740D01*
X1714960Y2788460D01*
X1712820Y2787720D01*
X1710880Y2786500D01*
X1709280Y2784880D01*
X1708060Y2782960D01*
X1707300Y2780800D01*
X1707020Y2778320D01*
X1707020Y2733500D01*
X1707300Y2731000D01*
X1708060Y2728860D01*
X1709280Y2726920D01*
X1710880Y2725320D01*
X1712820Y2724100D01*
X1714960Y2723340D01*
X1717440Y2723060D01*
X1747060Y2723060D01*
X1748600Y2722760D01*
X1749900Y2721900D01*
X1763600Y2708200D01*
X1764460Y2706900D01*
X1764760Y2705360D01*
X1764460Y2703840D01*
X1763600Y2702540D01*
X1733959Y2672880D01*
X1731879Y2670120D01*
X1730360Y2667100D01*
X1729640Y2664760D01*
X1729400Y2663120D01*
X1728779Y2661520D01*
X1727540Y2660320D01*
X1725120Y2658840D01*
X1723520Y2657240D01*
X1722320Y2655299D01*
X1721560Y2653159D01*
X1721279Y2650659D01*
X1721279Y2634200D01*
X1721080Y2632940D01*
X1720480Y2631800D01*
X1718880Y2629680D01*
X1717400Y2626700D01*
X1716480Y2623500D01*
X1716160Y2620000D01*
X1716160Y2587340D01*
X1715860Y2585800D01*
X1714980Y2584500D01*
X1713700Y2583639D01*
X1712160Y2583340D01*
X1706699Y2583340D01*
X1704220Y2583060D01*
X1702060Y2582300D01*
X1700140Y2581080D01*
X1698520Y2579480D01*
X1697300Y2577540D01*
X1696560Y2575400D01*
X1696279Y2572900D01*
X1696279Y2520200D01*
X1696560Y2517720D01*
X1697420Y2515240D01*
X1697660Y2513920D01*
X1697660Y2492460D01*
X1697340Y2490920D01*
X1696480Y2489620D01*
X1694540Y2487700D01*
X1693320Y2485760D01*
X1692580Y2483620D01*
X1692300Y2481120D01*
X1692300Y2419560D01*
X1692580Y2417080D01*
X1693320Y2414920D01*
X1694540Y2413000D01*
X1696160Y2411380D01*
X1698080Y2410180D01*
X1700240Y2409420D01*
X1702720Y2409140D01*
X1728720Y2409140D01*
X1730660Y2409000D01*
X1732140Y2408120D01*
X1733100Y2406700D01*
X1733400Y2405020D01*
X1732960Y2403360D01*
X1731140Y2399820D01*
X1729480Y2395700D01*
X1728220Y2391420D01*
X1727360Y2387040D01*
X1726900Y2382580D01*
X1726840Y2376360D01*
X1726519Y2374840D01*
X1725640Y2373560D01*
X1724360Y2372700D01*
X1722840Y2372400D01*
X1670560Y2372400D01*
X1669019Y2372700D01*
X1667740Y2373580D01*
X1556360Y2484920D01*
X1553600Y2487020D01*
X1550600Y2488500D01*
X1547400Y2489400D01*
X1543899Y2489740D01*
X1441399Y2489740D01*
X1439960Y2490000D01*
X1438720Y2490760D01*
X1434700Y2496560D01*
X1431100Y2500540D01*
X1427000Y2504020D01*
X1422460Y2506900D01*
X1417600Y2509160D01*
X1412460Y2510760D01*
X1407180Y2511640D01*
X1401800Y2511820D01*
X1396459Y2511280D01*
X1391240Y2510040D01*
X1386240Y2508120D01*
X1381519Y2505540D01*
X1377200Y2502340D01*
X1373340Y2498620D01*
X1370020Y2494400D01*
X1367280Y2489780D01*
X1365180Y2484840D01*
X1363760Y2479660D01*
X1363040Y2474340D01*
X1363040Y2468980D01*
X1363760Y2463640D01*
X1365180Y2458480D01*
X1367280Y2453520D01*
X1370020Y2448900D01*
X1373340Y2444700D01*
X1377200Y2440960D01*
X1381519Y2437780D01*
X1386240Y2435200D01*
X1391240Y2433260D01*
X1396459Y2432020D01*
X1401800Y2431480D01*
X1407180Y2431660D01*
X1412460Y2432560D01*
X1417600Y2434140D01*
X1422460Y2436400D01*
X1427000Y2439300D01*
X1431100Y2442760D01*
X1434700Y2446740D01*
X1437840Y2451380D01*
X1438720Y2452560D01*
X1439980Y2453320D01*
X1441420Y2453580D01*
X1534940Y2453580D01*
X1536480Y2453280D01*
X1537780Y2452420D01*
X1649139Y2341080D01*
X1651920Y2338980D01*
X1654900Y2337500D01*
X1658100Y2336580D01*
X1661600Y2336260D01*
X1722840Y2336260D01*
X1724360Y2335960D01*
X1725660Y2335080D01*
X1726519Y2333780D01*
X1726840Y2332260D01*
X1726879Y2305180D01*
X1727260Y2300700D01*
X1728080Y2296300D01*
X1729280Y2292000D01*
X1730900Y2287840D01*
X1732880Y2283860D01*
X1735240Y2280060D01*
X1737940Y2276520D01*
X1740960Y2273220D01*
X1744280Y2270240D01*
X1747860Y2267580D01*
X1751680Y2265260D01*
X1755680Y2263320D01*
X1759860Y2261760D01*
X1764180Y2260580D01*
X1768560Y2259820D01*
X1773020Y2259480D01*
X1777480Y2259560D01*
X1781900Y2260060D01*
X1786279Y2260960D01*
X1790540Y2262280D01*
X1794660Y2263980D01*
X1798600Y2266060D01*
X1802340Y2268500D01*
X1805840Y2271280D01*
X1809040Y2274380D01*
X1811960Y2277760D01*
X1814520Y2281420D01*
X1816759Y2285280D01*
X1818620Y2289380D01*
X1819500Y2291720D01*
X1820340Y2293080D01*
X1821680Y2294000D01*
X1823240Y2294340D01*
X1894620Y2294340D01*
X1896140Y2294020D01*
X1897440Y2293160D01*
X1898320Y2291860D01*
X1898620Y2290340D01*
X1898620Y2284880D01*
X1898899Y2282380D01*
X1899640Y2280240D01*
X1900860Y2278300D01*
X1902480Y2276700D01*
X1904400Y2275480D01*
X1906560Y2274720D01*
X1909040Y2274440D01*
X1961740Y2274440D01*
X1964240Y2274720D01*
X1966380Y2275480D01*
X1968300Y2276700D01*
X1969920Y2278300D01*
X1971140Y2280240D01*
X1971879Y2282380D01*
X1972160Y2284880D01*
X1972160Y2287580D01*
X1972480Y2289100D01*
X1973340Y2290400D01*
X1974640Y2291260D01*
X1976160Y2291580D01*
X1991600Y2291580D01*
X1992920Y2291340D01*
X1994100Y2290700D01*
X1994980Y2289700D01*
X1996339Y2287560D01*
X1997940Y2285940D01*
X1999880Y2284740D01*
X2002020Y2283980D01*
X2004520Y2283700D01*
X2039500Y2283700D01*
X2041980Y2283980D01*
X2044139Y2284740D01*
X2046060Y2285940D01*
X2047680Y2287560D01*
X2049019Y2289700D01*
X2049920Y2290700D01*
X2051080Y2291340D01*
X2052400Y2291580D01*
X2070720Y2291580D01*
X2072240Y2291260D01*
X2073540Y2290400D01*
X2134320Y2229620D01*
X2135180Y2228340D01*
X2135480Y2226800D01*
X2135180Y2225260D01*
X2134320Y2223980D01*
X2133020Y2223100D01*
X2131480Y2222800D01*
X1236320Y2222800D01*
X1228680Y2222380D01*
X1227380Y2222240D01*
X1220580Y2221080D01*
X1219300Y2220800D01*
X1211440Y2218460D01*
X1205060Y2215820D01*
X1203880Y2215240D01*
X1197840Y2211920D01*
X1196740Y2211220D01*
X1191120Y2207220D01*
X1190080Y2206400D01*
X1187140Y2203760D01*
X1185900Y2203020D01*
X1184480Y2202760D01*
X1177480Y2202760D01*
X1175840Y2203100D01*
X1174500Y2204080D01*
X1173660Y2205520D01*
X1173500Y2207180D01*
X1174020Y2208780D01*
X1174620Y2209780D01*
X1176400Y2213360D01*
X1176840Y2214440D01*
X1178100Y2218220D01*
X1178400Y2219340D01*
X1179140Y2223280D01*
X1179280Y2224420D01*
X1179500Y2228460D01*
X1179500Y2272260D01*
X1179800Y2273780D01*
X1180660Y2275080D01*
X1181960Y2275940D01*
X1183500Y2276260D01*
X1255680Y2276260D01*
X1258180Y2276540D01*
X1260320Y2277280D01*
X1262240Y2278500D01*
X1263860Y2280100D01*
X1265080Y2282040D01*
X1265820Y2284180D01*
X1266100Y2286680D01*
X1266100Y2530320D01*
X1265820Y2532820D01*
X1265080Y2534960D01*
X1263860Y2536900D01*
X1262240Y2538500D01*
X1260320Y2539720D01*
X1258180Y2540460D01*
X1255680Y2540740D01*
X1027780Y2540740D01*
X1025300Y2540460D01*
X1023139Y2539720D01*
X1021220Y2538500D01*
X1019599Y2536900D01*
X1018400Y2534960D01*
X1017640Y2532820D01*
X1017360Y2530320D01*
X1017360Y2455140D01*
X1017060Y2453620D01*
X1016180Y2452320D01*
X1014900Y2451460D01*
X1013360Y2451140D01*
X929240Y2451140D01*
X925200Y2450940D01*
X924060Y2450800D01*
X920140Y2450060D01*
X919020Y2449760D01*
X915280Y2448520D01*
X913240Y2447580D01*
X911560Y2447200D01*
X901800Y2447200D01*
X899320Y2446920D01*
X897159Y2446180D01*
X895240Y2444960D01*
X893620Y2443360D01*
X892400Y2441420D01*
X891660Y2439280D01*
X891380Y2436780D01*
X891380Y2430700D01*
X891080Y2429160D01*
X890200Y2427860D01*
X872520Y2410200D01*
X871240Y2409320D01*
X869700Y2409020D01*
X855100Y2409020D01*
X853120Y2409220D01*
X800420Y2409220D01*
X797940Y2408940D01*
X795780Y2408180D01*
X793860Y2406980D01*
X792240Y2405360D01*
X791020Y2403440D01*
X790280Y2401280D01*
X790000Y2398800D01*
X790000Y2380160D01*
X789100Y2373840D01*
X789100Y2368680D01*
X790000Y2362360D01*
X790000Y2343720D01*
X790280Y2341240D01*
X791020Y2339100D01*
X792240Y2337160D01*
X793860Y2335540D01*
X796160Y2334100D01*
X797320Y2332980D01*
X797960Y2331500D01*
X797960Y2329900D01*
X797320Y2328440D01*
X796160Y2327320D01*
X793860Y2325860D01*
X792240Y2324260D01*
X791020Y2322320D01*
X790280Y2320220D01*
X789980Y2316980D01*
X789580Y2315560D01*
X788680Y2314400D01*
X787440Y2313620D01*
X786000Y2313360D01*
X774040Y2313360D01*
X772520Y2313660D01*
X771220Y2314540D01*
X770340Y2315820D01*
X770040Y2317360D01*
X770040Y2434780D01*
X770340Y2436320D01*
X771220Y2437620D01*
X790740Y2457140D01*
X792039Y2458000D01*
X793560Y2458300D01*
X855380Y2458320D01*
X858860Y2458660D01*
X859820Y2458820D01*
X863199Y2459660D01*
X864120Y2459960D01*
X867360Y2461300D01*
X868220Y2461740D01*
X871220Y2463540D01*
X872020Y2464100D01*
X874700Y2466340D01*
X920699Y2512280D01*
X921780Y2513060D01*
X923080Y2513440D01*
X925500Y2513700D01*
X927640Y2514460D01*
X929580Y2515680D01*
X931180Y2517280D01*
X932540Y2519460D01*
X933439Y2520460D01*
X934620Y2521100D01*
X935939Y2521320D01*
X965300Y2521340D01*
X968740Y2521820D01*
X971900Y2522880D01*
X974800Y2524500D01*
X977520Y2526760D01*
X998420Y2547660D01*
X999720Y2548520D01*
X1001240Y2548820D01*
X1292000Y2548840D01*
X1295440Y2549320D01*
X1298600Y2550380D01*
X1301500Y2552000D01*
X1304220Y2554260D01*
X1351860Y2601920D01*
X1353959Y2604700D01*
X1355440Y2607679D01*
X1356339Y2610880D01*
X1356680Y2614380D01*
X1356680Y2659800D01*
X1357000Y2661380D01*
X1357940Y2662720D01*
X1359340Y2663560D01*
X1360960Y2663780D01*
X1362520Y2663340D01*
X1363779Y2662300D01*
X1364540Y2660840D01*
X1365180Y2658480D01*
X1367280Y2653519D01*
X1370020Y2648900D01*
X1373340Y2644700D01*
X1377200Y2640960D01*
X1381519Y2637780D01*
X1386240Y2635200D01*
X1391240Y2633260D01*
X1396459Y2632020D01*
X1401800Y2631480D01*
X1407180Y2631660D01*
X1412460Y2632559D01*
X1417600Y2634140D01*
X1422460Y2636400D01*
X1427000Y2639300D01*
X1431100Y2642760D01*
X1434700Y2646740D01*
X1437740Y2651180D01*
X1440160Y2655960D01*
X1441920Y2661040D01*
X1442980Y2666300D01*
X1443340Y2671660D01*
X1442980Y2677020D01*
X1441920Y2682280D01*
X1440160Y2687340D01*
X1437740Y2692140D01*
X1434700Y2696560D01*
X1431100Y2700539D01*
X1427000Y2704020D01*
X1422460Y2706900D01*
X1417600Y2709160D01*
X1412460Y2710760D01*
X1407180Y2711640D01*
X1401800Y2711820D01*
X1396459Y2711280D01*
X1391240Y2710040D01*
X1386240Y2708120D01*
X1381519Y2705539D01*
X1377200Y2702340D01*
X1373340Y2698620D01*
X1370020Y2694400D01*
X1367280Y2689780D01*
X1365180Y2684840D01*
X1364540Y2682460D01*
X1363779Y2681019D01*
X1362520Y2679980D01*
X1360960Y2679520D01*
X1359340Y2679740D01*
X1357940Y2680600D01*
X1357000Y2681920D01*
X1356680Y2683519D01*
X1356680Y2699560D01*
X1356980Y2701080D01*
X1357840Y2702380D01*
X1392120Y2736660D01*
X1393420Y2737520D01*
X1394940Y2737820D01*
X1569760Y2737820D01*
X1571200Y2737559D01*
X1572440Y2736780D01*
X1573340Y2735620D01*
X1573740Y2734200D01*
X1574040Y2730980D01*
X1574780Y2728860D01*
X1576000Y2726920D01*
X1577620Y2725320D01*
X1579540Y2724100D01*
X1581699Y2723340D01*
X1584180Y2723060D01*
X1621140Y2723060D01*
X1623620Y2723340D01*
X1625780Y2724100D01*
X1627700Y2725320D01*
X1629319Y2726920D01*
X1630520Y2728860D01*
X1631279Y2731000D01*
X1631560Y2733500D01*
X1631560Y2778320D01*
X1631279Y2780800D01*
X1630520Y2782960D01*
X1629319Y2784880D01*
X1627700Y2786500D01*
X1625780Y2787720D01*
X1623620Y2788460D01*
X1621140Y2788740D01*
X1584180Y2788740D01*
X1581699Y2788460D01*
X1579540Y2787720D01*
X1577620Y2786500D01*
X1576000Y2784880D01*
X1574780Y2782960D01*
X1574040Y2780800D01*
X1573760Y2777980D01*
X1573460Y2776440D01*
X1572580Y2775140D01*
X1571279Y2774280D01*
X1569760Y2773980D01*
X1385100Y2773960D01*
X1381660Y2773480D01*
X1378500Y2772420D01*
X1375600Y2770800D01*
X1372880Y2768540D01*
X1325340Y2720980D01*
X1323240Y2718200D01*
X1321759Y2715220D01*
X1320860Y2712020D01*
X1320520Y2708519D01*
X1320520Y2649520D01*
X1320220Y2648000D01*
X1319360Y2646700D01*
X1318060Y2645840D01*
X1316519Y2645520D01*
X1315000Y2645840D01*
X1310300Y2649140D01*
X1306800Y2650779D01*
X1303899Y2651560D01*
X1302940Y2651940D01*
X1302120Y2652580D01*
X1274760Y2679940D01*
X1273900Y2681240D01*
X1273580Y2682760D01*
X1273580Y2736940D01*
X1273300Y2739420D01*
X1272560Y2741580D01*
X1271340Y2743500D01*
X1269720Y2745120D01*
X1267800Y2746320D01*
X1265660Y2747080D01*
X1263160Y2747360D01*
X1200620Y2747360D01*
X1198120Y2747080D01*
X1195980Y2746320D01*
X1194060Y2745120D01*
X1192440Y2743500D01*
X1191220Y2741580D01*
X1190480Y2739420D01*
X1190200Y2736940D01*
X1190200Y2619280D01*
X1190480Y2616780D01*
X1191220Y2614640D01*
X1192440Y2612700D01*
X1194060Y2611100D01*
X1195980Y2609880D01*
X1198120Y2609140D01*
X1200620Y2608860D01*
X1263160Y2608860D01*
X1265660Y2609140D01*
X1267800Y2609880D01*
X1269720Y2611100D01*
X1271340Y2612700D01*
X1272560Y2614640D01*
X1273440Y2617140D01*
X1274360Y2618620D01*
X1275820Y2619580D01*
X1277540Y2619820D01*
X1279200Y2619300D01*
X1280480Y2618120D01*
X1282200Y2615659D01*
X1284940Y2612919D01*
X1288120Y2610700D01*
X1291620Y2609060D01*
X1295360Y2608060D01*
X1297420Y2607880D01*
X1298880Y2607480D01*
X1300060Y2606560D01*
X1300840Y2605260D01*
X1301080Y2603780D01*
X1300760Y2602320D01*
X1299900Y2601060D01*
X1284980Y2586139D01*
X1283680Y2585280D01*
X1282160Y2584980D01*
X991400Y2584960D01*
X987960Y2584480D01*
X984800Y2583420D01*
X981900Y2581800D01*
X979180Y2579540D01*
X958280Y2558640D01*
X956979Y2557780D01*
X955460Y2557480D01*
X935900Y2557480D01*
X934580Y2557700D01*
X933400Y2558340D01*
X932520Y2559340D01*
X931180Y2561460D01*
X929580Y2563080D01*
X928840Y2563540D01*
X927680Y2564660D01*
X927039Y2566120D01*
X927039Y2567740D01*
X927680Y2569200D01*
X928840Y2570320D01*
X929580Y2570779D01*
X931180Y2572400D01*
X932400Y2574320D01*
X933139Y2576480D01*
X933420Y2578960D01*
X933420Y2584120D01*
X916880Y2584120D01*
X916880Y2572380D01*
X916500Y2570680D01*
X915420Y2569300D01*
X913860Y2568500D01*
X912120Y2568440D01*
X908860Y2569060D01*
X904400Y2569220D01*
X899960Y2568720D01*
X899180Y2568519D01*
X897740Y2568399D01*
X896340Y2568820D01*
X895180Y2569700D01*
X894419Y2570960D01*
X894160Y2572380D01*
X894160Y2584120D01*
X877600Y2584120D01*
X877600Y2578960D01*
X877880Y2576480D01*
X878620Y2574320D01*
X879840Y2572400D01*
X881460Y2570779D01*
X882200Y2570320D01*
X883360Y2569200D01*
X883980Y2567740D01*
X883980Y2566120D01*
X883360Y2564660D01*
X882200Y2563540D01*
X881460Y2563080D01*
X879840Y2561460D01*
X878620Y2559540D01*
X877880Y2557380D01*
X877600Y2554960D01*
X877240Y2553680D01*
X876460Y2552580D01*
X847740Y2523860D01*
X846440Y2523000D01*
X844900Y2522700D01*
X843379Y2523000D01*
X842080Y2523860D01*
X841220Y2525160D01*
X840900Y2527040D01*
X827300Y2527040D01*
X827000Y2525480D01*
X826140Y2524180D01*
X824840Y2523300D01*
X823300Y2523000D01*
X814500Y2523000D01*
X812960Y2523300D01*
X811660Y2524180D01*
X810800Y2525480D01*
X810500Y2527040D01*
X796880Y2527040D01*
X797159Y2524320D01*
X797480Y2523400D01*
X797720Y2521900D01*
X797360Y2520420D01*
X796480Y2519180D01*
X795200Y2518360D01*
X793720Y2518080D01*
X778480Y2518060D01*
X775000Y2517720D01*
X774040Y2517560D01*
X770639Y2516720D01*
X769720Y2516420D01*
X766500Y2515080D01*
X765639Y2514640D01*
X762640Y2512840D01*
X761840Y2512280D01*
X759140Y2510040D01*
X718300Y2469200D01*
X716060Y2466500D01*
X715500Y2465720D01*
X713700Y2462720D01*
X713259Y2461860D01*
X711919Y2458620D01*
X711620Y2457700D01*
X710780Y2454300D01*
X710620Y2453340D01*
X710300Y2449860D01*
X710280Y2317360D01*
X709960Y2315820D01*
X709100Y2314540D01*
X707800Y2313660D01*
X706280Y2313360D01*
X636580Y2313360D01*
X634980Y2313680D01*
X633660Y2314620D01*
X631700Y2316720D01*
X627280Y2320380D01*
X622440Y2323440D01*
X617260Y2325880D01*
X611800Y2327660D01*
X606180Y2328720D01*
X600340Y2329100D01*
X506100Y2329100D01*
X500260Y2328720D01*
X494620Y2327660D01*
X489180Y2325880D01*
X483980Y2323440D01*
X479159Y2320380D01*
X474739Y2316720D01*
X470820Y2312540D01*
X467440Y2307900D01*
X464680Y2302880D01*
X462500Y2297360D01*
X461640Y2296040D01*
X460340Y2295160D01*
X458780Y2294840D01*
X203180Y2294840D01*
X201640Y2295140D01*
X200340Y2296020D01*
X199480Y2297320D01*
X199180Y2298840D01*
X199180Y2325760D01*
X198900Y2328240D01*
X198140Y2330400D01*
X196940Y2332320D01*
X195320Y2333940D01*
X193400Y2335160D01*
X191240Y2335900D01*
X188760Y2336180D01*
X141960Y2336180D01*
X139460Y2335900D01*
X137320Y2335160D01*
X135400Y2333940D01*
X133780Y2332320D01*
X132560Y2330400D01*
X131820Y2328240D01*
X131540Y2325760D01*
X131540Y2274580D01*
X131200Y2272980D01*
X129780Y2269720D01*
X128400Y2264760D01*
X127700Y2259660D01*
X127700Y2254500D01*
X128400Y2249400D01*
X129780Y2244440D01*
X131200Y2241180D01*
X131540Y2239600D01*
X131540Y2206760D01*
X131220Y2205220D01*
X130360Y2203920D01*
X129060Y2203060D01*
X127540Y2202760D01*
G37*

%LPC*%
G36*
X2175160Y2264120D02*
G01*
X2180380Y2264120D01*
X2180380Y2280320D01*
X2164740Y2280320D01*
X2164740Y2274560D01*
X2165020Y2272060D01*
X2165780Y2269920D01*
X2166980Y2267980D01*
X2168600Y2266380D01*
X2170520Y2265160D01*
X2172680Y2264400D01*
G37*
G36*
X2164740Y2302340D02*
G01*
X2180380Y2302340D01*
X2180380Y2318540D01*
X2175160Y2318540D01*
X2172680Y2318260D01*
X2170520Y2317500D01*
X2168600Y2316300D01*
X2166980Y2314680D01*
X2165780Y2312760D01*
X2165020Y2310600D01*
X2164740Y2308120D01*
G37*
G36*
X347819Y2317420D02*
G01*
X347819Y2359700D01*
X322420Y2359700D01*
X322420Y2358400D01*
X322780Y2352560D01*
X323860Y2346920D01*
X325620Y2341480D01*
X328060Y2336300D01*
X331140Y2331460D01*
X334780Y2327040D01*
X338960Y2323120D01*
X343600Y2319740D01*
G37*
G36*
X388260Y2317420D02*
G01*
X392500Y2319740D01*
X397120Y2323120D01*
X401300Y2327040D01*
X404960Y2331460D01*
X408020Y2336300D01*
X410460Y2341480D01*
X412239Y2346920D01*
X413320Y2352560D01*
X413680Y2358400D01*
X413680Y2359700D01*
X388260Y2359700D01*
G37*
G36*
X1385640Y2335520D02*
G01*
X1385640Y2354160D01*
X1367020Y2354160D01*
X1367280Y2353520D01*
X1370020Y2348900D01*
X1373340Y2344700D01*
X1377200Y2340960D01*
X1381519Y2337780D01*
G37*
G36*
X1420640Y2335560D02*
G01*
X1422460Y2336400D01*
X1427000Y2339300D01*
X1431100Y2342760D01*
X1434700Y2346740D01*
X1437740Y2351180D01*
X1439240Y2354160D01*
X1420640Y2354160D01*
G37*
G36*
X3334640Y2344140D02*
G01*
X3340360Y2344500D01*
X3345980Y2345560D01*
X3351440Y2347340D01*
X3356620Y2349780D01*
X3361460Y2352840D01*
X3365880Y2356500D01*
X3369800Y2360680D01*
X3373159Y2365320D01*
X3375920Y2370340D01*
X3378039Y2375660D01*
X3379460Y2381200D01*
X3380179Y2386900D01*
X3380179Y2392620D01*
X3379460Y2398300D01*
X3378039Y2403860D01*
X3375920Y2409180D01*
X3373159Y2414200D01*
X3369800Y2418840D01*
X3365880Y2423020D01*
X3361460Y2426680D01*
X3356620Y2429740D01*
X3351440Y2432180D01*
X3345980Y2433960D01*
X3340360Y2435020D01*
X3334640Y2435380D01*
X3328920Y2435020D01*
X3323300Y2433960D01*
X3317840Y2432180D01*
X3312660Y2429740D01*
X3307820Y2426680D01*
X3303399Y2423020D01*
X3299480Y2418840D01*
X3296120Y2414200D01*
X3293759Y2409900D01*
X3292860Y2408800D01*
X3291640Y2408080D01*
X3290240Y2407840D01*
X3237480Y2407840D01*
X3235960Y2408140D01*
X3234660Y2409000D01*
X3197660Y2446000D01*
X3196800Y2447300D01*
X3196500Y2448820D01*
X3196500Y2466300D01*
X3196220Y2468800D01*
X3195460Y2470940D01*
X3194240Y2472880D01*
X3192640Y2474480D01*
X3190700Y2475700D01*
X3188320Y2476540D01*
X3186920Y2477380D01*
X3185980Y2478720D01*
X3185640Y2480300D01*
X3185980Y2481900D01*
X3186920Y2483240D01*
X3188320Y2484080D01*
X3190700Y2484920D01*
X3192640Y2486140D01*
X3194240Y2487740D01*
X3195460Y2489680D01*
X3196220Y2491820D01*
X3196500Y2494320D01*
X3196500Y2525620D01*
X3196220Y2528100D01*
X3195460Y2530260D01*
X3194240Y2532180D01*
X3192640Y2533800D01*
X3190700Y2535000D01*
X3190040Y2535240D01*
X3188639Y2536080D01*
X3187700Y2537420D01*
X3187360Y2539020D01*
X3187340Y2595179D01*
X3186860Y2598620D01*
X3185800Y2601820D01*
X3184640Y2603980D01*
X3183820Y2605140D01*
X3183200Y2606460D01*
X3182260Y2609940D01*
X3180620Y2613440D01*
X3178399Y2616620D01*
X3175680Y2619360D01*
X3172500Y2621560D01*
X3169000Y2623200D01*
X3165260Y2624200D01*
X3161420Y2624540D01*
X3157559Y2624200D01*
X3153820Y2623200D01*
X3150320Y2621560D01*
X3147160Y2619360D01*
X3144420Y2616620D01*
X3142200Y2613440D01*
X3140560Y2609940D01*
X3139560Y2606200D01*
X3139220Y2602360D01*
X3139560Y2598500D01*
X3140560Y2594760D01*
X3142200Y2591259D01*
X3144420Y2588100D01*
X3147160Y2585360D01*
X3149500Y2583720D01*
X3150419Y2582820D01*
X3151019Y2581700D01*
X3151220Y2580440D01*
X3151220Y2539020D01*
X3150880Y2537420D01*
X3149940Y2536080D01*
X3148540Y2535240D01*
X3147860Y2535000D01*
X3145940Y2533800D01*
X3144320Y2532180D01*
X3143100Y2530260D01*
X3142360Y2528100D01*
X3142080Y2525620D01*
X3142080Y2494320D01*
X3142360Y2491820D01*
X3143100Y2489680D01*
X3144320Y2487740D01*
X3145940Y2486140D01*
X3147860Y2484920D01*
X3150260Y2484080D01*
X3151660Y2483240D01*
X3152600Y2481900D01*
X3152940Y2480300D01*
X3152600Y2478720D01*
X3151660Y2477380D01*
X3150260Y2476540D01*
X3147860Y2475700D01*
X3145940Y2474480D01*
X3144320Y2472880D01*
X3143100Y2470940D01*
X3142360Y2468800D01*
X3142080Y2466300D01*
X3142080Y2435000D01*
X3142360Y2432520D01*
X3143100Y2430360D01*
X3144320Y2428440D01*
X3145940Y2426820D01*
X3147860Y2425620D01*
X3150020Y2424860D01*
X3152500Y2424580D01*
X3166300Y2424580D01*
X3167840Y2424280D01*
X3169140Y2423400D01*
X3216060Y2376500D01*
X3218840Y2374400D01*
X3221820Y2372920D01*
X3225020Y2372000D01*
X3228519Y2371680D01*
X3290240Y2371680D01*
X3291640Y2371440D01*
X3292860Y2370720D01*
X3293759Y2369620D01*
X3296120Y2365320D01*
X3299480Y2360680D01*
X3303399Y2356500D01*
X3307820Y2352840D01*
X3312660Y2349780D01*
X3317840Y2347340D01*
X3323300Y2345560D01*
X3328920Y2344500D01*
G37*
G36*
X2033360Y2375140D02*
G01*
X2049920Y2375140D01*
X2049920Y2380280D01*
X2049640Y2382780D01*
X2048880Y2384920D01*
X2047680Y2386860D01*
X2046060Y2388460D01*
X2044139Y2389680D01*
X2041980Y2390420D01*
X2039500Y2390700D01*
X2033360Y2390700D01*
G37*
G36*
X1994079Y2375140D02*
G01*
X2010640Y2375140D01*
X2010640Y2390700D01*
X2004520Y2390700D01*
X2002020Y2390420D01*
X1999880Y2389680D01*
X1997940Y2388460D01*
X1996339Y2386860D01*
X1995120Y2384920D01*
X1994360Y2382780D01*
X1994079Y2380280D01*
G37*
G36*
X179660Y2388220D02*
G01*
X188760Y2388220D01*
X191240Y2388500D01*
X193400Y2389260D01*
X195320Y2390460D01*
X196940Y2392080D01*
X198140Y2394000D01*
X198900Y2396160D01*
X199180Y2398640D01*
X199180Y2430380D01*
X179660Y2430380D01*
G37*
G36*
X141960Y2388220D02*
G01*
X151040Y2388220D01*
X151040Y2430380D01*
X131540Y2430380D01*
X131540Y2398640D01*
X131820Y2396160D01*
X132560Y2394000D01*
X133780Y2392080D01*
X135400Y2390460D01*
X137320Y2389260D01*
X139460Y2388500D01*
G37*
G36*
X1420640Y2389160D02*
G01*
X1439240Y2389160D01*
X1437740Y2392140D01*
X1434700Y2396560D01*
X1431100Y2400540D01*
X1427000Y2404020D01*
X1422460Y2406900D01*
X1420640Y2407740D01*
G37*
G36*
X1367020Y2389160D02*
G01*
X1385640Y2389160D01*
X1385640Y2407800D01*
X1381519Y2405540D01*
X1377200Y2402340D01*
X1373340Y2398620D01*
X1370020Y2394400D01*
X1367280Y2389780D01*
G37*
G36*
X1842940Y2409140D02*
G01*
X1846840Y2409140D01*
X1849319Y2409420D01*
X1851480Y2410180D01*
X1853400Y2411380D01*
X1855020Y2413000D01*
X1856220Y2414920D01*
X1856980Y2417080D01*
X1857260Y2419560D01*
X1857260Y2432340D01*
X1842940Y2432340D01*
G37*
G36*
X1898620Y2409880D02*
G01*
X1919600Y2409880D01*
X1919600Y2431460D01*
X1909040Y2431460D01*
X1906560Y2431180D01*
X1904400Y2430420D01*
X1902480Y2429220D01*
X1900860Y2427600D01*
X1899640Y2425680D01*
X1898899Y2423520D01*
X1898620Y2421040D01*
G37*
G36*
X1951180Y2409880D02*
G01*
X1972160Y2409880D01*
X1972160Y2421040D01*
X1971879Y2423520D01*
X1971140Y2425680D01*
X1969920Y2427600D01*
X1968300Y2429220D01*
X1966380Y2430420D01*
X1964240Y2431180D01*
X1961740Y2431460D01*
X1951180Y2431460D01*
G37*
G36*
X388260Y2443440D02*
G01*
X413680Y2443440D01*
X413680Y2444760D01*
X413320Y2450600D01*
X412239Y2456240D01*
X410460Y2461680D01*
X408020Y2466860D01*
X404960Y2471700D01*
X401300Y2476120D01*
X397120Y2480040D01*
X392500Y2483400D01*
X388260Y2485740D01*
G37*
G36*
X322420Y2443440D02*
G01*
X347819Y2443440D01*
X347819Y2485740D01*
X343600Y2483400D01*
X338960Y2480040D01*
X334780Y2476120D01*
X331140Y2471700D01*
X328060Y2466860D01*
X325620Y2461680D01*
X323860Y2456240D01*
X322780Y2450600D01*
X322420Y2444760D01*
G37*
G36*
X3299440Y2448560D02*
G01*
X3314420Y2448560D01*
X3314420Y2471760D01*
X3289000Y2471760D01*
X3289000Y2458980D01*
X3289280Y2456500D01*
X3290040Y2454340D01*
X3291259Y2452420D01*
X3292860Y2450800D01*
X3294800Y2449600D01*
X3296940Y2448840D01*
G37*
G36*
X3354860Y2448560D02*
G01*
X3369840Y2448560D01*
X3372340Y2448840D01*
X3374480Y2449600D01*
X3376420Y2450800D01*
X3378020Y2452420D01*
X3379240Y2454340D01*
X3380000Y2456500D01*
X3380280Y2458980D01*
X3380280Y2471760D01*
X3354860Y2471760D01*
G37*
G36*
X1842940Y2468340D02*
G01*
X1857260Y2468340D01*
X1857260Y2481120D01*
X1856980Y2483620D01*
X1856220Y2485760D01*
X1855020Y2487700D01*
X1853400Y2489300D01*
X1851480Y2490520D01*
X1849319Y2491280D01*
X1846840Y2491560D01*
X1842940Y2491560D01*
G37*
G36*
X1810400Y2468340D02*
G01*
X1824720Y2468340D01*
X1824720Y2491560D01*
X1820820Y2491560D01*
X1818340Y2491280D01*
X1816180Y2490520D01*
X1814259Y2489300D01*
X1812640Y2487700D01*
X1811440Y2485760D01*
X1810680Y2483620D01*
X1810400Y2481120D01*
G37*
G36*
X510040Y2474040D02*
G01*
X511340Y2474040D01*
X511340Y2499460D01*
X469060Y2499460D01*
X471380Y2495240D01*
X474760Y2490600D01*
X478680Y2486420D01*
X483080Y2482780D01*
X487920Y2479700D01*
X493120Y2477260D01*
X498560Y2475500D01*
X504180Y2474420D01*
G37*
G36*
X595080Y2474040D02*
G01*
X596400Y2474040D01*
X602240Y2474420D01*
X607860Y2475500D01*
X613320Y2477260D01*
X618500Y2479700D01*
X623340Y2482780D01*
X627760Y2486420D01*
X631680Y2490600D01*
X635040Y2495240D01*
X637360Y2499460D01*
X595080Y2499460D01*
G37*
G36*
X131540Y2504280D02*
G01*
X151040Y2504280D01*
X151040Y2546420D01*
X141960Y2546420D01*
X139460Y2546140D01*
X137320Y2545380D01*
X135400Y2544180D01*
X133780Y2542560D01*
X132560Y2540640D01*
X131820Y2538480D01*
X131540Y2536000D01*
G37*
G36*
X179660Y2504280D02*
G01*
X199180Y2504280D01*
X199180Y2536000D01*
X198900Y2538480D01*
X198140Y2540640D01*
X196940Y2542560D01*
X195320Y2544180D01*
X193400Y2545380D01*
X191240Y2546140D01*
X188760Y2546420D01*
X179660Y2546420D01*
G37*
G36*
X3289000Y2507760D02*
G01*
X3314420Y2507760D01*
X3314420Y2530960D01*
X3299440Y2530960D01*
X3296940Y2530680D01*
X3294800Y2529920D01*
X3292860Y2528720D01*
X3291259Y2527100D01*
X3290040Y2525180D01*
X3289280Y2523020D01*
X3289000Y2520540D01*
G37*
G36*
X3354860Y2507760D02*
G01*
X3380280Y2507760D01*
X3380280Y2520540D01*
X3380000Y2523020D01*
X3379240Y2525180D01*
X3378020Y2527100D01*
X3376420Y2528720D01*
X3374480Y2529920D01*
X3372340Y2530680D01*
X3369840Y2530960D01*
X3354860Y2530960D01*
G37*
G36*
X1831720Y2509780D02*
G01*
X1842860Y2509780D01*
X1845360Y2510060D01*
X1847500Y2510820D01*
X1849440Y2512020D01*
X1851040Y2513640D01*
X1852260Y2515560D01*
X1853000Y2517720D01*
X1853300Y2520200D01*
X1853300Y2530760D01*
X1831720Y2530760D01*
G37*
G36*
X1401800Y2531480D02*
G01*
X1407180Y2531660D01*
X1412460Y2532560D01*
X1417600Y2534140D01*
X1422460Y2536400D01*
X1427000Y2539300D01*
X1431100Y2542760D01*
X1434700Y2546740D01*
X1437740Y2551180D01*
X1440160Y2555960D01*
X1441920Y2561040D01*
X1442980Y2566300D01*
X1443340Y2571660D01*
X1442980Y2577020D01*
X1441920Y2582280D01*
X1440160Y2587340D01*
X1437740Y2592140D01*
X1434700Y2596560D01*
X1431100Y2600539D01*
X1427000Y2604020D01*
X1422460Y2606900D01*
X1417600Y2609160D01*
X1412460Y2610760D01*
X1407180Y2611640D01*
X1401800Y2611820D01*
X1396459Y2611280D01*
X1391240Y2610040D01*
X1386240Y2608120D01*
X1381519Y2605539D01*
X1377200Y2602340D01*
X1373340Y2598620D01*
X1370020Y2594400D01*
X1367280Y2589780D01*
X1365180Y2584840D01*
X1363760Y2579660D01*
X1363040Y2574340D01*
X1363040Y2568980D01*
X1363760Y2563639D01*
X1365180Y2558480D01*
X1367280Y2553520D01*
X1370020Y2548900D01*
X1373340Y2544700D01*
X1377200Y2540960D01*
X1381519Y2537780D01*
X1386240Y2535200D01*
X1391240Y2533260D01*
X1396459Y2532020D01*
G37*
G36*
X796880Y2537940D02*
G01*
X810500Y2537940D01*
X810500Y2548600D01*
X807320Y2548600D01*
X804820Y2548320D01*
X802680Y2547560D01*
X800740Y2546340D01*
X799140Y2544740D01*
X797920Y2542800D01*
X797159Y2540660D01*
G37*
G36*
X827300Y2537940D02*
G01*
X840900Y2537940D01*
X840620Y2540660D01*
X839880Y2542800D01*
X838660Y2544740D01*
X837060Y2546340D01*
X835120Y2547560D01*
X832980Y2548320D01*
X830480Y2548600D01*
X827300Y2548600D01*
G37*
G36*
X595080Y2539900D02*
G01*
X637360Y2539900D01*
X635040Y2544120D01*
X631680Y2548760D01*
X627760Y2552940D01*
X623340Y2556600D01*
X618500Y2559660D01*
X613320Y2562100D01*
X607860Y2563880D01*
X602240Y2564940D01*
X596400Y2565320D01*
X595080Y2565320D01*
G37*
G36*
X469060Y2539900D02*
G01*
X511340Y2539900D01*
X511340Y2565320D01*
X510040Y2565320D01*
X504180Y2564940D01*
X498560Y2563880D01*
X493120Y2562100D01*
X487920Y2559660D01*
X483080Y2556600D01*
X478680Y2552940D01*
X474760Y2548760D01*
X471380Y2544120D01*
G37*
G36*
X1831720Y2562340D02*
G01*
X1853300Y2562340D01*
X1853300Y2572900D01*
X1853000Y2575400D01*
X1852260Y2577540D01*
X1851040Y2579480D01*
X1849440Y2581080D01*
X1847500Y2582300D01*
X1845360Y2583060D01*
X1842860Y2583340D01*
X1831720Y2583340D01*
G37*
G36*
X3303380Y2604080D02*
G01*
X3310800Y2604080D01*
X3318180Y2604820D01*
X3325440Y2606320D01*
X3332500Y2608540D01*
X3339320Y2611460D01*
X3345800Y2615059D01*
X3351880Y2619300D01*
X3357520Y2624120D01*
X3362620Y2629500D01*
X3367160Y2635360D01*
X3371080Y2641660D01*
X3374340Y2648300D01*
X3376920Y2655260D01*
X3378780Y2662440D01*
X3379900Y2669760D01*
X3380280Y2677160D01*
X3379900Y2684580D01*
X3378780Y2691900D01*
X3376920Y2699080D01*
X3374340Y2706040D01*
X3371080Y2712679D01*
X3367160Y2718980D01*
X3362620Y2724840D01*
X3357520Y2730220D01*
X3351880Y2735040D01*
X3345800Y2739280D01*
X3339320Y2742880D01*
X3332500Y2745800D01*
X3325440Y2748020D01*
X3318180Y2749520D01*
X3310800Y2750260D01*
X3303380Y2750260D01*
X3296000Y2749520D01*
X3288740Y2748020D01*
X3281680Y2745800D01*
X3274860Y2742880D01*
X3268380Y2739280D01*
X3262300Y2735040D01*
X3256660Y2730220D01*
X3251560Y2724840D01*
X3247020Y2718980D01*
X3243100Y2712679D01*
X3239840Y2706040D01*
X3237260Y2699080D01*
X3235400Y2691900D01*
X3234280Y2684580D01*
X3233900Y2677160D01*
X3234280Y2669760D01*
X3235400Y2662440D01*
X3237260Y2655260D01*
X3239840Y2648300D01*
X3243100Y2641660D01*
X3247020Y2635360D01*
X3251560Y2629500D01*
X3256660Y2624120D01*
X3262300Y2619300D01*
X3268380Y2615059D01*
X3274860Y2611460D01*
X3281680Y2608540D01*
X3288740Y2606320D01*
X3296000Y2604820D01*
G37*
G36*
X153780Y2604080D02*
G01*
X161180Y2604080D01*
X168560Y2604820D01*
X175820Y2606320D01*
X182900Y2608540D01*
X189720Y2611460D01*
X196200Y2615059D01*
X202280Y2619300D01*
X207900Y2624120D01*
X213020Y2629500D01*
X217540Y2635360D01*
X221480Y2641660D01*
X224740Y2648300D01*
X227320Y2655260D01*
X229160Y2662440D01*
X230300Y2669760D01*
X230660Y2677160D01*
X230300Y2684580D01*
X229160Y2691900D01*
X227320Y2699080D01*
X224740Y2706040D01*
X221480Y2712679D01*
X217540Y2718980D01*
X213020Y2724840D01*
X207900Y2730220D01*
X202280Y2735040D01*
X196200Y2739280D01*
X189720Y2742880D01*
X182900Y2745800D01*
X175820Y2748020D01*
X168560Y2749520D01*
X161180Y2750260D01*
X153780Y2750260D01*
X146400Y2749520D01*
X139140Y2748020D01*
X132060Y2745800D01*
X125239Y2742880D01*
X118760Y2739280D01*
X112680Y2735040D01*
X107060Y2730220D01*
X101940Y2724840D01*
X97420Y2718980D01*
X93480Y2712679D01*
X90220Y2706040D01*
X87640Y2699080D01*
X85800Y2691900D01*
X84660Y2684580D01*
X84300Y2677160D01*
X84660Y2669760D01*
X85800Y2662440D01*
X87640Y2655260D01*
X90220Y2648300D01*
X93480Y2641660D01*
X97420Y2635360D01*
X101940Y2629500D01*
X107060Y2624120D01*
X112680Y2619300D01*
X118760Y2615059D01*
X125239Y2611460D01*
X132060Y2608540D01*
X139140Y2606320D01*
X146400Y2604820D01*
G37*
G36*
X877600Y2604860D02*
G01*
X894160Y2604860D01*
X894160Y2620440D01*
X888020Y2620440D01*
X885540Y2620160D01*
X883379Y2619400D01*
X881460Y2618180D01*
X879840Y2616580D01*
X878620Y2614640D01*
X877880Y2612500D01*
X877600Y2610000D01*
G37*
G36*
X916880Y2604860D02*
G01*
X933420Y2604860D01*
X933420Y2610000D01*
X933139Y2612500D01*
X932400Y2614640D01*
X931180Y2616580D01*
X929580Y2618180D01*
X927640Y2619400D01*
X925500Y2620160D01*
X923000Y2620440D01*
X916880Y2620440D01*
G37*
G36*
X1812720Y2605260D02*
G01*
X1817860Y2605260D01*
X1820360Y2605539D01*
X1822500Y2606280D01*
X1824420Y2607500D01*
X1826040Y2609120D01*
X1827260Y2611040D01*
X1828000Y2613200D01*
X1828280Y2615680D01*
X1828280Y2621820D01*
X1812720Y2621820D01*
G37*
G36*
X1069820Y2608860D02*
G01*
X1082840Y2608860D01*
X1085340Y2609140D01*
X1087480Y2609880D01*
X1089420Y2611100D01*
X1091020Y2612700D01*
X1092240Y2614640D01*
X1093000Y2616780D01*
X1093280Y2619280D01*
X1093280Y2646080D01*
X1069820Y2646080D01*
G37*
G36*
X1020300Y2608860D02*
G01*
X1033319Y2608860D01*
X1033319Y2646080D01*
X1009880Y2646080D01*
X1009880Y2619280D01*
X1010160Y2616780D01*
X1010920Y2614640D01*
X1012120Y2612700D01*
X1013740Y2611100D01*
X1015660Y2609880D01*
X1017820Y2609140D01*
G37*
G36*
X2727240Y2634100D02*
G01*
X2740240Y2634100D01*
X2740240Y2649580D01*
X2737660Y2649580D01*
X2735160Y2649300D01*
X2733020Y2648540D01*
X2731080Y2647340D01*
X2729480Y2645720D01*
X2728260Y2643800D01*
X2727520Y2641640D01*
X2727240Y2639160D01*
G37*
G36*
X2755880Y2634100D02*
G01*
X2768900Y2634100D01*
X2768900Y2639160D01*
X2768620Y2641640D01*
X2767860Y2643800D01*
X2766640Y2645720D01*
X2765040Y2647340D01*
X2763100Y2648540D01*
X2760960Y2649300D01*
X2758460Y2649580D01*
X2755880Y2649580D01*
G37*
G36*
X1812720Y2644520D02*
G01*
X1828280Y2644520D01*
X1828280Y2650659D01*
X1828000Y2653159D01*
X1827260Y2655299D01*
X1826040Y2657240D01*
X1824420Y2658840D01*
X1822500Y2660059D01*
X1820360Y2660800D01*
X1817860Y2661080D01*
X1812720Y2661080D01*
G37*
G36*
X2783820Y2650320D02*
G01*
X2800020Y2650320D01*
X2800020Y2665960D01*
X2794240Y2665960D01*
X2791740Y2665680D01*
X2789600Y2664920D01*
X2787660Y2663720D01*
X2786060Y2662100D01*
X2784840Y2660179D01*
X2784100Y2658020D01*
X2783820Y2655539D01*
G37*
G36*
X2822020Y2650320D02*
G01*
X2838220Y2650320D01*
X2838220Y2655539D01*
X2837940Y2658020D01*
X2837200Y2660179D01*
X2835980Y2662100D01*
X2834360Y2663720D01*
X2832440Y2664920D01*
X2830299Y2665680D01*
X2827799Y2665960D01*
X2822020Y2665960D01*
G37*
G36*
X1960500Y2672880D02*
G01*
X1971320Y2672880D01*
X1971320Y2691720D01*
X1950080Y2691720D01*
X1950080Y2683300D01*
X1950360Y2680800D01*
X1951100Y2678660D01*
X1952320Y2676720D01*
X1953940Y2675120D01*
X1955860Y2673900D01*
X1958020Y2673159D01*
G37*
G36*
X2003440Y2672880D02*
G01*
X2014259Y2672880D01*
X2016759Y2673159D01*
X2018899Y2673900D01*
X2020840Y2675120D01*
X2022440Y2676720D01*
X2023660Y2678660D01*
X2024400Y2680800D01*
X2024680Y2683300D01*
X2024680Y2691720D01*
X2003440Y2691720D01*
G37*
G36*
X2584880Y2673060D02*
G01*
X2594080Y2682260D01*
X2583140Y2693200D01*
X2581300Y2691380D01*
X2579740Y2689420D01*
X2578759Y2687360D01*
X2578240Y2685140D01*
X2578240Y2682860D01*
X2578759Y2680640D01*
X2579740Y2678600D01*
X2581300Y2676640D01*
G37*
G36*
X2605120Y2693320D02*
G01*
X2614340Y2702520D01*
X2610760Y2706100D01*
X2608800Y2707660D01*
X2606740Y2708639D01*
X2604520Y2709140D01*
X2602240Y2709140D01*
X2600020Y2708639D01*
X2597980Y2707660D01*
X2596019Y2706100D01*
X2594180Y2704260D01*
G37*
G36*
X2056500Y2697780D02*
G01*
X2062640Y2697780D01*
X2062640Y2713360D01*
X2046080Y2713360D01*
X2046080Y2708200D01*
X2046360Y2705720D01*
X2047120Y2703560D01*
X2048320Y2701640D01*
X2049940Y2700020D01*
X2051860Y2698820D01*
X2054019Y2698060D01*
G37*
G36*
X2085360Y2697780D02*
G01*
X2091480Y2697780D01*
X2093980Y2698060D01*
X2096120Y2698820D01*
X2098060Y2700020D01*
X2099660Y2701640D01*
X2100880Y2703560D01*
X2101640Y2705720D01*
X2101920Y2708200D01*
X2101920Y2713360D01*
X2085360Y2713360D01*
G37*
G36*
X2171860Y2703580D02*
G01*
X2176920Y2703580D01*
X2176920Y2716580D01*
X2161440Y2716580D01*
X2161440Y2714000D01*
X2161720Y2711500D01*
X2162480Y2709360D01*
X2163700Y2707440D01*
X2165300Y2705820D01*
X2167240Y2704600D01*
X2169380Y2703860D01*
G37*
G36*
X1069820Y2710140D02*
G01*
X1093280Y2710140D01*
X1093280Y2736940D01*
X1093000Y2739420D01*
X1092240Y2741580D01*
X1091020Y2743500D01*
X1089420Y2745120D01*
X1087480Y2746320D01*
X1085340Y2747080D01*
X1082840Y2747360D01*
X1069820Y2747360D01*
G37*
G36*
X1009880Y2710140D02*
G01*
X1033319Y2710140D01*
X1033319Y2747360D01*
X1020300Y2747360D01*
X1017820Y2747080D01*
X1015660Y2746320D01*
X1013740Y2745120D01*
X1012120Y2743500D01*
X1010920Y2741580D01*
X1010160Y2739420D01*
X1009880Y2736940D01*
G37*
G36*
X2003440Y2719020D02*
G01*
X2024680Y2719020D01*
X2024680Y2727440D01*
X2024400Y2729920D01*
X2023660Y2732080D01*
X2022440Y2734000D01*
X2020840Y2735620D01*
X2018899Y2736820D01*
X2016759Y2737580D01*
X2014259Y2737860D01*
X2003440Y2737860D01*
G37*
G36*
X1950080Y2719020D02*
G01*
X1971320Y2719020D01*
X1971320Y2737860D01*
X1960500Y2737860D01*
X1958020Y2737580D01*
X1955860Y2736820D01*
X1953940Y2735620D01*
X1952320Y2734000D01*
X1951100Y2732080D01*
X1950360Y2729920D01*
X1950080Y2727440D01*
G37*
G36*
X2161440Y2732220D02*
G01*
X2176920Y2732220D01*
X2176920Y2745240D01*
X2171860Y2745240D01*
X2169380Y2744960D01*
X2167240Y2744200D01*
X2165300Y2742980D01*
X2163700Y2741380D01*
X2162480Y2739440D01*
X2161720Y2737300D01*
X2161440Y2734800D01*
G37*

%LPD*%
G36*
X3125720Y1826759D02*
G01*
X3124260Y1827040D01*
X3123020Y1827820D01*
X3122120Y1829000D01*
X3121740Y1830440D01*
X3102520Y2061140D01*
X3102740Y2062860D01*
X3103680Y2064300D01*
X3116940Y2077560D01*
X3118240Y2078440D01*
X3119760Y2078740D01*
X3450480Y2078740D01*
X3452000Y2078440D01*
X3453300Y2077560D01*
X3454160Y2076279D01*
X3454480Y2074740D01*
X3454520Y1830760D01*
X3454200Y1829240D01*
X3453340Y1827940D01*
X3452040Y1827080D01*
X3450520Y1826759D01*
G37*

%LPC*%
G36*
X3339600Y1938620D02*
G01*
X3374580Y1938620D01*
X3377060Y1938899D01*
X3379220Y1939660D01*
X3381139Y1940860D01*
X3382760Y1942480D01*
X3383980Y1944400D01*
X3384720Y1946560D01*
X3385000Y1949040D01*
X3385000Y2011579D01*
X3384720Y2014079D01*
X3383980Y2016220D01*
X3382760Y2018160D01*
X3381139Y2019760D01*
X3379220Y2020980D01*
X3377060Y2021740D01*
X3374580Y2022020D01*
X3339600Y2022020D01*
X3337100Y2021740D01*
X3334960Y2020980D01*
X3333020Y2019760D01*
X3331420Y2018160D01*
X3330500Y2016699D01*
X3329320Y2015480D01*
X3327720Y2014880D01*
X3326019Y2014980D01*
X3324520Y2015800D01*
X3323480Y2016680D01*
X3319760Y2018959D01*
X3315720Y2020640D01*
X3311460Y2021660D01*
X3307080Y2022000D01*
X3302720Y2021660D01*
X3298460Y2020640D01*
X3294420Y2018959D01*
X3290680Y2016680D01*
X3287360Y2013820D01*
X3285120Y2011220D01*
X3283759Y2010180D01*
X3282080Y2009820D01*
X3280419Y2010180D01*
X3279040Y2011220D01*
X3276820Y2013820D01*
X3273480Y2016680D01*
X3269760Y2018959D01*
X3265720Y2020640D01*
X3261460Y2021660D01*
X3257080Y2022000D01*
X3252720Y2021660D01*
X3248460Y2020640D01*
X3244420Y2018959D01*
X3240680Y2016680D01*
X3237360Y2013820D01*
X3234520Y2010500D01*
X3232220Y2006759D01*
X3230539Y2002720D01*
X3229520Y1998460D01*
X3229180Y1993940D01*
X3229180Y1966699D01*
X3229520Y1962180D01*
X3230539Y1957920D01*
X3232220Y1953860D01*
X3234520Y1950140D01*
X3237360Y1946800D01*
X3240680Y1943959D01*
X3244420Y1941680D01*
X3248460Y1940000D01*
X3252720Y1938980D01*
X3257080Y1938640D01*
X3261460Y1938980D01*
X3265720Y1940000D01*
X3269760Y1941680D01*
X3273480Y1943959D01*
X3276820Y1946800D01*
X3279040Y1949420D01*
X3280419Y1950440D01*
X3282080Y1950820D01*
X3283759Y1950440D01*
X3285120Y1949420D01*
X3287360Y1946800D01*
X3290680Y1943959D01*
X3294420Y1941680D01*
X3298460Y1940000D01*
X3302720Y1938980D01*
X3307080Y1938640D01*
X3311460Y1938980D01*
X3315720Y1940000D01*
X3319760Y1941680D01*
X3323480Y1943959D01*
X3324520Y1944840D01*
X3326019Y1945640D01*
X3327720Y1945760D01*
X3329320Y1945140D01*
X3330500Y1943920D01*
X3331420Y1942480D01*
X3333020Y1940860D01*
X3334960Y1939660D01*
X3337100Y1938899D01*
G37*

%LPD*%
D11*
X2692915Y2301377D02*
G01*
X2755907Y2301048D01*
X2692915Y2299094D02*
G01*
X2692915Y2301377D01*
X2923505Y2301226D02*
G01*
X2923329Y2301050D01*
X2755910Y2301050D01*
X1299212Y2629922D02*
G01*
X1251022Y2678112D01*
X1231893Y2678112D01*
X1403149Y2471660D02*
G01*
X1544086Y2471660D01*
X1661415Y2354331D01*
X1763666Y2354331D01*
X1774443Y2343555D01*
X1602700Y2755900D02*
G01*
X1385799Y2755900D01*
X1338599Y2708699D01*
X1338599Y2614200D01*
X1291300Y2566900D01*
X992100Y2566900D01*
X964600Y2539400D01*
X905500Y2539400D01*
X1735922Y2755907D02*
G01*
X1741441Y2755907D01*
X1791980Y2705367D01*
X1747223Y2633171D02*
G01*
X1747223Y2660608D01*
X1791980Y2705367D01*
X1892893Y2705367D01*
X1734234Y2546558D02*
G01*
X1715724Y2528047D01*
X1715724Y2450344D01*
X1747223Y2633171D02*
G01*
X1734234Y2620180D01*
X1734234Y2546558D01*
X1935392Y2312404D02*
G01*
X1805591Y2312404D01*
X1774444Y2343555D01*
X1935392Y2312404D02*
G01*
X1938150Y2309645D01*
X2022003Y2309645D01*
X2073999Y2778840D02*
G01*
X2071392Y2781444D01*
X1892897Y2781444D01*
D12*
X905514Y2539376D02*
G01*
X854327Y2488189D01*
X779528Y2488189D01*
X740158Y2448820D01*
X740158Y2275599D01*
D13*
X3110217Y1968555D02*
G01*
X3110217Y2039353D01*
X1126018Y2039353D01*
X1126018Y2212633D01*
X1141733Y2228348D01*
X1141733Y2408503D01*
X1141733Y2408503D02*
G01*
X1136848Y2413388D01*
X929134Y2413388D01*
X346500Y1968499D02*
G01*
X346500Y2039400D01*
X1015699Y2039400D01*
X1015699Y2220500D01*
X960600Y2275599D01*
X549299Y2275599D01*
X929130Y2413393D02*
G01*
X886997Y2371260D01*
X826769Y2371260D01*
X549277Y2275592D02*
G01*
X530769Y2257082D01*
X165358Y2257082D01*
D11*
X2923422Y2738220D02*
G01*
X2923422Y2561060D01*
X2923422Y2301219D02*
G01*
X2923422Y2478377D01*
X3002161Y2738220D02*
G01*
X3002161Y2301219D01*
X3080901Y2301219D02*
G01*
X3080901Y2738220D01*
X3002161Y2738220D02*
G01*
X3080901Y2738220D01*
X3002161Y2478377D02*
G01*
X3080901Y2478377D01*
X3080901Y2301219D02*
G01*
X3002161Y2301219D01*
D13*
X2188986Y1968506D02*
G01*
X2188986Y78737D01*
X2259850Y78737D01*
X2259850Y1968506D01*
X2330720Y1968506D01*
X1905519Y1968506D02*
G01*
X1905519Y78737D01*
X1976388Y78737D01*
X1976388Y1968506D01*
X2047253Y1968506D01*
X1763786Y1968506D02*
G01*
X1763786Y78737D01*
X1834655Y78737D01*
X1834655Y1968506D01*
X1905519Y1968506D01*
X346457Y1968506D02*
G01*
X346457Y78737D01*
X417323Y78737D01*
X417323Y1968506D01*
X488191Y1968506D01*
X488191Y1968506D02*
G01*
X488191Y78737D01*
X559054Y78737D01*
X559054Y1968506D01*
X629924Y1968506D01*
X629924Y1968506D02*
G01*
X629924Y78737D01*
X700787Y78737D01*
X700787Y1968506D01*
X771655Y1968506D01*
X771655Y1968506D02*
G01*
X771655Y78737D01*
X842521Y78737D01*
X842521Y1968506D01*
X913388Y1968506D01*
X1055123Y1968506D02*
G01*
X1055123Y78737D01*
X1125987Y78737D01*
X1125987Y1968506D01*
X1196853Y1968506D01*
X1196853Y1968506D02*
G01*
X1196853Y78737D01*
X1267722Y78737D01*
X1267722Y1968506D01*
X1338585Y1968506D01*
X1338585Y1968506D02*
G01*
X1338585Y78737D01*
X1409454Y78737D01*
X1409454Y1968506D01*
X1480320Y1968506D01*
X1480320Y1968506D02*
G01*
X1480320Y78737D01*
X1551189Y78737D01*
X1551189Y1968506D01*
X1622052Y1968506D01*
X1622052Y1968506D02*
G01*
X1622052Y78737D01*
X1692921Y78737D01*
X1692921Y1968506D01*
X1763786Y1968506D01*
X2047253Y1968506D02*
G01*
X2047253Y78737D01*
X2118122Y78737D01*
X2118122Y1968506D01*
X2188986Y1968506D01*
X2330720Y1968506D02*
G01*
X2330720Y78737D01*
X2401584Y78737D01*
X2401584Y1968506D01*
X2472452Y1968506D01*
X2472452Y1968506D02*
G01*
X2472452Y78737D01*
X2543317Y78737D01*
X2543317Y1968506D01*
X2614187Y1968506D01*
X2755919Y1968506D02*
G01*
X2755919Y78737D01*
X2826783Y78737D01*
X2826783Y1968506D01*
X2897654Y1968506D01*
X2897654Y1968506D02*
G01*
X2897654Y78737D01*
X2968518Y78737D01*
X2968518Y1968506D01*
X3039386Y1968506D01*
X913388Y1968506D02*
G01*
X913388Y78737D01*
X984255Y78737D01*
X984255Y1968506D01*
X1055123Y1968506D01*
D11*
X3358270Y2110239D02*
G01*
X3357559Y2110951D01*
X3357559Y2170000D01*
D13*
X3039386Y1968506D02*
G01*
X3039386Y78737D01*
X3110250Y78737D01*
X3110250Y1968506D01*
X3110236Y1968506D01*
X2614187Y1968506D02*
G01*
X2614187Y78737D01*
X2685051Y78737D01*
X2685051Y1968506D01*
X2755919Y1968506D01*
D11*
X2079899Y2309600D02*
G01*
X2153299Y2236199D01*
X2937200Y2236199D01*
X3002200Y2301199D01*
X3302440Y2170000D02*
G01*
X3302440Y2152840D01*
X3259840Y2110239D01*
X3145671Y2248033D02*
G01*
X3212600Y2248033D01*
X3290632Y2170000D01*
X3302439Y2170000D01*
X3357560Y2170000D02*
G01*
X3357560Y2266840D01*
X3334639Y2289760D01*
X3080979Y2301239D02*
G01*
X3323159Y2301239D01*
X3334639Y2289760D01*
X3169287Y2450655D02*
G01*
X3169287Y2448811D01*
X3228339Y2389758D01*
X3334638Y2389758D01*
X2022003Y2309645D02*
G01*
X2079912Y2309645D01*
X2079899Y2309600D01*
X2250128Y2291334D02*
G01*
X2295271Y2291334D01*
X2314956Y2271649D01*
D14*
X2267658Y2587642D02*
G01*
X2208657Y2646644D01*
X2208657Y2665349D01*
X2253747Y2573732D02*
G01*
X2189690Y2637790D01*
X2173224Y2637790D01*
X2479237Y2348233D02*
G01*
X2523755Y2303715D01*
X2551755Y2303715D01*
X2576678Y2601563D02*
G01*
X2625285Y2650171D01*
X2637218Y2650171D01*
X2465299Y2334299D02*
G01*
X2500000Y2299600D01*
X2500000Y2279499D01*
X2484300Y2263800D01*
X2322799Y2263800D01*
X2315000Y2271599D01*
X2392938Y2712923D02*
G01*
X2327021Y2778840D01*
X2073999Y2778840D01*
D11*
X2551755Y2303715D02*
G01*
X2551755Y2236199D01*
X2923500Y2561140D02*
G01*
X2903730Y2580909D01*
X2748060Y2580909D01*
D14*
X2562758Y2431752D02*
G01*
X2649601Y2344910D01*
X2649601Y2318892D01*
X2667114Y2301379D01*
X2692920Y2301379D01*
X2576678Y2445662D02*
G01*
X2612897Y2409443D01*
X2637790Y2409443D01*
X2748060Y2519715D01*
X2748060Y2580909D01*
X2365100Y2685100D02*
G01*
X2460600Y2589600D01*
X2460600Y2586599D01*
X2323338Y2643321D02*
G01*
X2431232Y2535428D01*
X2510542Y2535428D01*
X2576678Y2601563D01*
X2479237Y2348233D02*
G01*
X2431232Y2396239D01*
X2431232Y2535428D01*
X2323299Y2643000D02*
G01*
X2241899Y2724400D01*
X2230100Y2724400D01*
X2337299Y2657199D02*
G01*
X2307100Y2687399D01*
X2307100Y2732300D01*
D11*
X3161410Y2602357D02*
G01*
X3169287Y2594481D01*
X3169287Y2509965D01*
D14*
X2260977Y2508577D02*
G01*
X2218662Y2466262D01*
X2274907Y2494657D02*
G01*
X2232592Y2452343D01*
X2288816Y2480736D02*
G01*
X2246503Y2438422D01*
X2302746Y2466817D02*
G01*
X2260433Y2424502D01*
X2316656Y2452907D02*
G01*
X2274342Y2410592D01*
X2330586Y2438977D02*
G01*
X2288272Y2396662D01*
X2344497Y2425066D02*
G01*
X2302183Y2382752D01*
X2358416Y2411136D02*
G01*
X2316103Y2368823D01*
X2372336Y2397226D02*
G01*
X2330023Y2354913D01*
X2386256Y2383307D02*
G01*
X2343942Y2340992D01*
X2400177Y2369387D02*
G01*
X2357862Y2327073D01*
X2414097Y2355466D02*
G01*
X2371782Y2313153D01*
X2444162Y2355466D02*
G01*
X2486477Y2313153D01*
X2458082Y2369387D02*
G01*
X2500397Y2327073D01*
X2472003Y2383307D02*
G01*
X2514317Y2340992D01*
X2485923Y2397226D02*
G01*
X2528236Y2354913D01*
X2499843Y2411136D02*
G01*
X2542156Y2368823D01*
X2513762Y2425066D02*
G01*
X2556076Y2382752D01*
X2527682Y2438977D02*
G01*
X2569997Y2396662D01*
X2541602Y2452907D02*
G01*
X2583917Y2410592D01*
X2555523Y2466817D02*
G01*
X2597836Y2424502D01*
X2569443Y2480736D02*
G01*
X2611756Y2438422D01*
X2583362Y2494657D02*
G01*
X2625676Y2452343D01*
X2597282Y2508577D02*
G01*
X2639597Y2466262D01*
X2639597Y2580956D02*
G01*
X2597282Y2538643D01*
X2625676Y2594886D02*
G01*
X2583362Y2552573D01*
X2611756Y2608796D02*
G01*
X2569443Y2566482D01*
X2597836Y2622716D02*
G01*
X2555523Y2580403D01*
X2583917Y2636637D02*
G01*
X2541602Y2594322D01*
X2569997Y2650556D02*
G01*
X2527682Y2608243D01*
X2556076Y2664477D02*
G01*
X2513762Y2622163D01*
X2542156Y2678397D02*
G01*
X2499843Y2636082D01*
X2528236Y2692316D02*
G01*
X2485923Y2650003D01*
X2514317Y2706237D02*
G01*
X2472003Y2663923D01*
X2500397Y2720156D02*
G01*
X2458082Y2677842D01*
X2486477Y2734077D02*
G01*
X2444162Y2691763D01*
X2371782Y2734077D02*
G01*
X2414097Y2691763D01*
X2357862Y2720156D02*
G01*
X2400177Y2677842D01*
X2343942Y2706237D02*
G01*
X2386256Y2663923D01*
X2330023Y2692316D02*
G01*
X2372336Y2650003D01*
X2316103Y2678397D02*
G01*
X2358416Y2636082D01*
X2302183Y2664477D02*
G01*
X2344497Y2622163D01*
X2288272Y2650556D02*
G01*
X2330586Y2608243D01*
X2274342Y2636637D02*
G01*
X2316656Y2594322D01*
X2260433Y2622716D02*
G01*
X2302746Y2580403D01*
X2246503Y2608796D02*
G01*
X2288816Y2566482D01*
X2232592Y2594886D02*
G01*
X2274907Y2552573D01*
X2218662Y2580956D02*
G01*
X2260977Y2538643D01*
G36*
X2214562Y2713773D02*
G01*
X2214562Y2735034D01*
X2245668Y2735034D01*
X2245668Y2713773D01*
G37*
G36*
X2202750Y2713773D02*
G01*
X2202750Y2735034D01*
X2171644Y2735034D01*
X2171644Y2713773D01*
G37*
G36*
X3186292Y2494090D02*
G01*
X3152277Y2494090D01*
X3152277Y2525841D01*
X3186292Y2525841D01*
G37*
D17*
G01*
X3169290Y2450650D03*
G36*
X2234247Y2274326D02*
G01*
X2234247Y2308341D01*
X2265999Y2308341D01*
X2265999Y2274326D01*
G37*
G36*
X2206688Y2274326D02*
G01*
X2206688Y2308341D01*
X2174937Y2308341D01*
X2174937Y2274326D01*
G37*
G36*
X2772907Y2344479D02*
G01*
X2738891Y2344479D01*
X2738891Y2376230D01*
X2772907Y2376230D01*
G37*
G01*
X2755900Y2301039D03*
G36*
X2828026Y2624011D02*
G01*
X2794009Y2624011D01*
X2794009Y2655761D01*
X2828026Y2655761D01*
G37*
G01*
X2811019Y2580580D03*
D19*
G01*
X1602659Y2755909D03*
G01*
X1735919Y2755909D03*
G36*
X853347Y2343505D02*
G01*
X800196Y2343505D01*
X800196Y2399016D01*
X853347Y2399016D01*
G37*
D20*
G01*
X826769Y2290160D03*
D21*
G01*
X929129Y2413389D03*
G01*
X929129Y2279529D03*
G36*
X1737034Y2307058D02*
G01*
X1737034Y2380059D01*
X1737075Y2381812D01*
X1737199Y2383560D01*
X1737403Y2385302D01*
X1737690Y2387033D01*
X1738058Y2388748D01*
X1738504Y2390443D01*
X1739031Y2392116D01*
X1739634Y2393762D01*
X1740316Y2395378D01*
X1741071Y2396961D01*
X1741899Y2398506D01*
X1742800Y2400010D01*
X1743770Y2401471D01*
X1744808Y2402885D01*
X1745910Y2404249D01*
X1747075Y2405560D01*
X1748301Y2406813D01*
X1749584Y2408009D01*
X1750920Y2409144D01*
X1752309Y2410214D01*
X1753747Y2411217D01*
X1755231Y2412152D01*
X1756756Y2413018D01*
X1758320Y2413811D01*
X1761442Y2414529D01*
X1761442Y2481352D01*
X1787426Y2481352D01*
X1787426Y2414529D01*
X1790550Y2413811D01*
X1792115Y2413018D01*
X1793640Y2412152D01*
X1795123Y2411217D01*
X1796562Y2410214D01*
X1797951Y2409144D01*
X1799287Y2408009D01*
X1800571Y2406813D01*
X1801796Y2405560D01*
X1802961Y2404249D01*
X1804063Y2402885D01*
X1805101Y2401471D01*
X1806071Y2400010D01*
X1806971Y2398506D01*
X1807800Y2396961D01*
X1808555Y2395378D01*
X1809237Y2393762D01*
X1809840Y2392116D01*
X1810366Y2390443D01*
X1810814Y2388748D01*
X1811181Y2387033D01*
X1811468Y2385302D01*
X1811673Y2383560D01*
X1811796Y2381812D01*
X1811837Y2380059D01*
X1811837Y2307058D01*
X1811796Y2305306D01*
X1811673Y2303557D01*
X1811468Y2301815D01*
X1811181Y2300084D01*
X1810814Y2298370D01*
X1810366Y2296675D01*
X1809840Y2295001D01*
X1809237Y2293355D01*
X1808555Y2291740D01*
X1807800Y2290156D01*
X1806971Y2288611D01*
X1806071Y2287107D01*
X1805101Y2285646D01*
X1804063Y2284232D01*
X1802961Y2282869D01*
X1801796Y2281558D01*
X1800571Y2280304D01*
X1799287Y2279108D01*
X1797951Y2277973D01*
X1796562Y2276903D01*
X1795123Y2275900D01*
X1793640Y2274965D01*
X1792115Y2274099D01*
X1790550Y2273307D01*
X1788950Y2272588D01*
X1787319Y2271945D01*
X1785659Y2271381D01*
X1783975Y2270893D01*
X1782268Y2270486D01*
X1780546Y2270160D01*
X1778810Y2269913D01*
X1777064Y2269749D01*
X1775312Y2269668D01*
X1773558Y2269668D01*
X1771808Y2269749D01*
X1770061Y2269913D01*
X1768325Y2270160D01*
X1766602Y2270486D01*
X1764897Y2270893D01*
X1763212Y2271381D01*
X1761552Y2271945D01*
X1759921Y2272588D01*
X1758320Y2273307D01*
X1756756Y2274099D01*
X1755231Y2274965D01*
X1753747Y2275900D01*
X1752309Y2276903D01*
X1750920Y2277973D01*
X1749584Y2279108D01*
X1748301Y2280304D01*
X1747075Y2281558D01*
X1745910Y2282869D01*
X1744808Y2284232D01*
X1743770Y2285646D01*
X1742800Y2287107D01*
X1741899Y2288611D01*
X1741071Y2290156D01*
X1740316Y2291740D01*
X1739634Y2293355D01*
X1739031Y2295001D01*
X1738504Y2296675D01*
X1738058Y2298370D01*
X1737690Y2300084D01*
X1737403Y2301815D01*
X1737199Y2303557D01*
X1737075Y2305306D01*
X1737034Y2307058D01*
G37*
D22*
G01*
X1715720Y2450349D03*
G01*
X1833829Y2450349D03*
G36*
X1761988Y2573132D02*
G01*
X1761988Y2519982D01*
X1706476Y2519982D01*
X1706476Y2573132D01*
G37*
G36*
X1787578Y2573132D02*
G01*
X1787578Y2519982D01*
X1843090Y2519982D01*
X1843090Y2573132D01*
G37*
G36*
X1786593Y2650888D02*
G01*
X1818090Y2650888D01*
X1818090Y2615453D01*
X1786593Y2615453D01*
G37*
G36*
X1731476Y2650888D02*
G01*
X1762971Y2650888D01*
X1762971Y2615453D01*
X1731476Y2615453D01*
G37*
G36*
X1908815Y2340160D02*
G01*
X1961966Y2340160D01*
X1961966Y2284648D01*
X1908815Y2284648D01*
G37*
D20*
G01*
X1935389Y2393510D03*
D25*
G01*
X2022010Y2364760D03*
G01*
X2022010Y2309650D03*
D24*
G01*
X3302439Y2170000D03*
G01*
X3357560Y2170000D03*
G36*
X2555231Y2322233D02*
G01*
X2570263Y2307199D01*
X2548269Y2285205D01*
X2533235Y2300237D01*
G37*
G36*
X2563584Y2330585D02*
G01*
X2578617Y2315553D01*
X2600612Y2337548D01*
X2585578Y2352581D01*
G37*
G36*
X2682285Y2316930D02*
G01*
X2703545Y2316930D01*
X2703545Y2285823D01*
X2682285Y2285823D01*
G37*
D26*
G01*
X2692920Y2344290D03*
G36*
X2737433Y2596457D02*
G01*
X2758693Y2596457D01*
X2758693Y2565351D01*
X2737433Y2565351D01*
G37*
G01*
X2748059Y2623820D03*
G36*
X2618702Y2653656D02*
G01*
X2633734Y2668688D01*
X2655730Y2646694D01*
X2640697Y2631660D01*
G37*
G36*
X2610348Y2662008D02*
G01*
X2625381Y2677042D01*
X2603387Y2699036D01*
X2588353Y2684004D01*
G37*
D25*
G01*
X2073999Y2778840D03*
G01*
X2073999Y2723719D03*
D27*
G01*
X1231890Y2678110D03*
G01*
X1051570Y2678110D03*
D28*
G01*
X1141729Y2408499D03*
G36*
X1920000Y2759155D02*
G01*
X1865788Y2759155D01*
X1865788Y2803742D01*
X1920000Y2803742D01*
G37*
D29*
G01*
X1892889Y2705360D03*
G36*
X2014488Y2759155D02*
G01*
X1960276Y2759155D01*
X1960276Y2803742D01*
X2014488Y2803742D01*
G37*
G01*
X1987380Y2705360D03*
D25*
G01*
X905510Y2539369D03*
G01*
X905510Y2594490D03*
D30*
G01*
X165360Y2257089D03*
G01*
X165360Y2467319D03*
D31*
G01*
X818900Y2506900D03*
G01*
X818900Y2532489D03*
D32*
G01*
X3334639Y2289760D03*
G01*
X3334639Y2389760D03*
D33*
G01*
X3334639Y2489760D03*
D34*
G01*
X3080979Y2561140D03*
G01*
X3002240Y2561140D03*
G01*
X2923500Y2561140D03*
G01*
X2923500Y2738299D03*
G01*
X3002240Y2738299D03*
G01*
X3080979Y2738299D03*
G01*
X3080979Y2301239D03*
G01*
X3002240Y2301239D03*
G01*
X2923500Y2301239D03*
G01*
X2923500Y2478400D03*
G01*
X3002240Y2478400D03*
G01*
X3080979Y2478400D03*
D35*
G01*
X1403149Y2371660D03*
G01*
X1403149Y2471660D03*
G01*
X1403149Y2571660D03*
G01*
X1403149Y2671660D03*
D36*
G01*
X3357089Y1980320D03*
D15*
G01*
X2208660Y2665349D03*
G01*
X2173220Y2637790D03*
G01*
X2314960Y2271649D03*
G01*
X1299210Y2629920D03*
G01*
X3259840Y2110239D03*
G01*
X3358270Y2110239D03*
G01*
X3145670Y2248029D03*
G01*
X2055119Y2429130D03*
G01*
X1893699Y2468499D03*
G01*
X1799210Y2787399D03*
G01*
X1897640Y2598429D03*
G01*
X1444880Y2625990D03*
G01*
X1527560Y2716540D03*
G01*
X1625990Y2468499D03*
G01*
X1586610Y2338580D03*
G01*
X2460630Y2586610D03*
G01*
X2307079Y2732280D03*
G01*
X3161409Y2602359D03*
G01*
X2622039Y2311019D03*
G01*
X2688969Y2397629D03*
G01*
X2826769Y2448809D03*
G01*
X2688969Y2559050D03*
G01*
X2653540Y2732280D03*
G01*
X2484250Y2476370D03*
G01*
X2354330Y2515740D03*
G01*
X2397629Y2610230D03*
G01*
X2133879Y2711649D03*
G01*
X2177160Y2358260D03*
G01*
X1287399Y2795270D03*
D32*
X505965Y2283460D02*
G01*
X600453Y2283460D01*
X596516Y2519679D02*
G01*
X509902Y2519679D01*
X368040Y2444886D02*
G01*
X368040Y2358272D01*
D37*
X3257089Y1966540D02*
G01*
X3257089Y1994099D01*
X3307089Y1966540D02*
G01*
X3307089Y1994099D01*
M02*
